<?xml version="1.0" encoding="UTF-8"?>
<svg id="OBJECTS" xmlns="http://www.w3.org/2000/svg" viewBox="0 0 369.3913 413.6425">
  <defs>
    <style>
      .cls-1 {
        fill: none;
        stroke: #7d7b87;
        stroke-miterlimit: 10;
        stroke-width: .5px;
      }

      .cls-2 {
        fill: #fff;
      }

      .cls-3 {
        fill: #bf2b31;
      }

      .cls-4 {
        fill: #013556;
      }

      .cls-5 {
        fill: #201f34;
      }
    </style>
  </defs>
  <g>
    <g>
      <path class="cls-4" d="m84.1014,9.4776c-.2094.8274-2.8914-.1058-3.6411,0-.7496.1057-1.7134-.9522-2.463-1.0579-.7497-.1058-.7497,1.3912-1.4993,1.2245s-1.3922-.1248-2.0347.0129c-.6426.1377-.1071,1.513-.6426,1.9362-.5354.4231-3.1056,3.7026-3.534,3.9142-.4283.2116-1.7134-.4231-2.0347,0-.3212.4232-.3212,2.4332,0,3.0679.3213.6348-.1071,2.9622.4284,2.9622s1.7134-.8463,2.1418-1.1637c.4284-.3174.5355.7405,1.2851.7405s1.7134-.9521,2.356-.6347c.6425.3173-.1071,2.01.4283,2.7505.5355.7406,1.8206,1.1637,2.4631,1.5869.6426.4231.7497,2.1158,1.4993,2.1158s2.5702-1.0579,2.8914-.9521c.3213.1058-1.4992,3.1737-.9638,3.7026.5355.529,1.7135.3174,2.5702.7406.8567.4231,1.9276.8463,2.1418,1.5868.2142.7406-.8567,1.9571-1.178,2.4332s-.2142,1.5339-.3748,1.7985c-.1606.2644-3.1056.2115-3.4805.5818-.3748.3702-.107,2.3274-.5354,2.5389-.4284.2116-2.1418-.2644-2.4631.2116s-.3748,3.015-.3213,3.6497c.0536.6348.6426.529.8568.8992.2141.3702.1071,3.1208.1606,3.8085s.589,1.7455.6961,2.3802-.4819,4.1257-.6426,4.3903c-.1606.2644-.0535,3.9142.2142,4.3902.2678.476,2.5702.8463,3.2663,1.1108.6961.2644.1606,1.481.8032,1.7984.6425.3174,2.7308.7934,3.3198.9521.589.1587,1.0173,1.2166,1.8741,1.4811.8567.2644,2.0882-1.2695,2.6772-1.0579s-.589,1.5339-.5354,1.9571c.0535.4231.8031,1.2165,1.0173,1.8512.2142.6348,1.6064.7406,2.2489,1.0579.6426.3174,1.8206-.476,2.1418-.3173.3213.1586,1.1245,1.4281,1.5529,1.957.4283.529,1.3386.2116,1.6599.8464.3212.6347-.3749.8991-.7497,1.3753-.3748.476-.5354,1.4281-1.7134,1.8512-1.178.4232-3.2127-.3173-3.9088,0-.6961.3174-.7497,1.2695-1.4458,1.5869-.696.3174-1.874.5818-2.3559,1.5869-.482,1.0049-.6961,2.2216-.482,2.3802.2142.1586,1.1245,1.4811,1.4458,1.6397.3212.1586.2142,1.2695-.1071,1.6926-.3213.4232-1.4457.1058-1.5528.8464-.1071.7405-.3748,2.5918.0535,2.6447.4284.0529,1.8206.0529,2.0883.2645.2677.2115.1606,1.1107-.5355,1.2694-.6961.1587-2.4631.529-2.7843.8464-.3213.3173-1.2851,1.9042-1.6599,2.3274-.3748.4231-2.0883,1.5868-2.5167,1.7454-.4283.1587-.3212,1.534-.5354,1.9571-.2142.4232-1.3922.3174-1.4993.6876s-.2677,1.6397-.3212,2.1158c-.0536.476.7496,1.0579.6425,1.4811s-1.0709,1.0579-1.6064,1.1107c-.5354.0529-1.0173-.2644-2.463.2116-1.4458.476-2.8915.8992-3.1057,1.2166-.2142.3173-.1606,3.2265-.4819,3.8084-.3213.5818-1.178.4232-1.4457,1.005-.2677.5818.1071,2.1158-.1606,2.4332-.2678.3173-1.1245,2.0628-1.4458,2.3274-.3212.2644.1607,1.5868-.1606,1.7984-.3213.2116-2.0883,1.1637-2.5702,1.4281s-.6425,1.005-1.767,1.4281c-1.1244.4232-3.052.529-3.3733.7934s-1.6064,2.486-1.9276,2.7506c-.3213.2644-.4819,2.01-.5355,2.486-.0535.476-1.0709.6876-1.4993.8463-.4283.1587-1.3386,1.1108-1.5528,1.6397-.2142.529-1.4992,1.0579-1.767,1.3753-.2677.3174-.0535,2.539-.589,2.8034-.5354.2644-1.8205-.2116-2.463-.2644-.6426-.0529-1.2316.5818-2.2489.6876-1.0174.1058-2.9986,0-3.6411,0s-2.4096,1.5868-3.2127,1.7455c-.8032.1586-2.1419.2115-2.6773,0-.5355-.2116-.1071-1.4282-.4284-2.0629-.3212-.6348-.6425-1.6397-1.178-1.7984-.5354-.1587-1.9811-1.1108-2.6237-1.005-.6425.1058-2.0347,2.7505-2.3024,3.1208-.2678.3702-1.0709.7405-1.7135,1.1637-.6425.4231-.8567,2.6447-1.6599,2.9091-.8032.2645-2.6772,2.0101-3.2127,2.1159-.5354.1057-1.3922,1.7984-1.3386,2.5918.0535.7934-1.4993,1.1107-1.3387,2.3802.1607,1.2695.8032,2.1687,1.1245,2.7506s1.3386.2644,1.8205.6876c.4819.4231,1.3922,1.0579,1.9277,1.0049.5354-.0528,1.4457-.6347,2.1418-.7405.6961-.1058,1.0173.9521,1.2315,1.3753.2142.4231.2677,2.0628-.2142,2.6976-.4819.6347-.2677,1.8513-.1606,2.486s-1.0709,1.4811-1.3386,1.9571c-.2678.476.1071,2.0628.8031,2.4332.6961.3702,1.3387.6875,1.6599,1.3752.3213.6876,1.2316,1.6397,2.0883,1.4811.8567-.1586,1.7135-.6876,2.4095-.476.6961.2116-.2677,3.7027-.0535,4.2315.2142.529,1.767,1.8513,2.1418,2.3802.3748.529-.3748,1.9043-.3213,2.4332.0536.529.9639,1.9571,1.3387,2.2745.3748.3173-.3213,1.2165-.4819,1.6926-.1607.476,1.0709,1.7985,1.0709,2.0629s-.7497.6347-.9638,1.0049c-.2142.3703,1.0709,1.8513,1.0173,2.2216-.0535.3703-2.1953.3174-2.4095.4761-.2142.1586-.6426,1.5339-1.3922,1.5339s-2.2489-.529-2.7844-.6348c-.5354-.1058.0536-2.1158-.5354-2.1158s-2.0347.7405-2.4095.7934c-.3749.0528-1.8741-.4232-2.4096-.2116-.5354.2116-.7496,1.6927-1.1244,1.8513-.3748.1586-2.7308.3174-3.0521.3174s-1.4993-2.1687-1.9276-2.3803c-.4284-.2115-2.9986,0-3.4805,0s-1.0709,1.005-1.6599,1.005-1.1244-.9521-1.6063-1.2165c-.4819-.2645-2.4096-.6348-2.9986-.5818-.589.0528-1.2851,3.3853-1.6063,3.491-.3213.1058.1606,1.4811.589,2.0101.4283.5289-.2093,1.0049-.6937,1.2694-.4843.2645-2.4655,1.1108-3.001,1.3224-.5354.2116-1.6063.7934-1.5528,1.5868.0536.7934.4819,2.9092.7497,3.1738s1.2315-.3174,1.4457,0c.2142.3173-.3213,2.2216-.1607,2.5918.1607.3702,2.1954,1.6397,2.945,1.8513.7497.2115,2.1418.6875,2.4096.9521s1.1244,2.3274,1.4992,2.486c.3749.1586,4.1766.4232,4.9798.4232s1.3386-1.4282,1.874-1.534c.5355-.1057,2.3025.2116,2.9986,0,.6961-.2115,2.1418-1.2694,2.5701-1.481.4284-.2116.1607-1.9571.9103-2.1687s2.0883-.3173,2.4095-.3702c.3213-.0528.5355,1.1637,1.178,1.2165.6426.0529,2.4096-.476,2.7844-.3173.3748.1586-2.4631,1.7455-2.7308,2.1158s.2142,1.9571-.1071,2.2744c-.3213.3174-2.3024.6876-2.6773.8992-.3748.2116-1.767,2.9621-2.3024,3.3853-.5355.4232-2.2489.1058-2.945.2644-.6961.1587-2.6773,2.01-3.3734,2.0629-.696.0528-2.8914.1058-3.4268,0-.5355-.1058-2.2489,1.0579-2.7309,1.1637-.4819.1058-1.0173-.2116-1.0709-.5818-.0535-.3702,1.0174-1.2166.4819-1.6397-.5354-.4232-1.7669-1.4281-2.0347-.9521-.2677.476.1607,3.015.2142,3.4381.0536.4232,2.0347,2.8564,2.7308,3.4382.6961.5818,1.2851.1057,1.6064.4231.3212.3174,3.1056,4.1787,3.5875,4.8663.4819.6876,1.3386,1.2165,1.767,1.7984s1.2851,3.2795,1.8741,3.7555,3.2662,3.068,3.8017,3.3324,1.4457,0,1.8205.2644c.3749.2644,3.2663,3.015,3.8018,3.1737.5354.1587.8567-.8991,1.3386-.9521.4819-.0528.5354,1.1432,1.178.9683.6425-.1748,2.2489-.3335,2.8914-.598.6426-.2644.589-1.4281,1.1245-1.4281s2.1953.3174,2.6237.1586c.4284-.1586.0535-2.1686.4819-2.2216.4284-.0528,1.8741.6348,2.4095.5818.5355-.0528,2.3025-1.2694,3.0521-1.5339.7496-.2644,1.6599-.3702,1.9812-.7405s.2142-1.6397.589-2.01,1.3386-1.5339,1.7134-2.1687c.3749-.6347.4284-1.4281.2678-1.9571-.1607-.5289-.6961-1.1107-1.4993-1.1637-.8032-.0528-1.8741-.6347-2.1418-.6875-.2677-.0529-.0536-1.0579,0-1.3224.0535-.2644.9103.476,1.2851.0529.3748-.4232,1.3386-1.4811,1.8741-2.1687.5354-.6876.107-2.0628.4283-2.4332.3213-.3702,1.9276-1.481,2.1954-1.6926.2677-.2116,0,1.4811.2142,1.7984.2141.3174,1.0173.3174,1.6599.476.6425.1587.696-.9521,1.1244-1.0049.4284-.0529,2.6237-.0529,3.1056.1058.4819.1586.2142,1.4281-.1606,1.957-.3748.529-1.2851-.2115-1.6064-.476-.3212-.2644-.9638.2645-1.5528.529s-.8567,1.3753-.7496,1.9042c.1071.529,1.8741-.1058,2.3024,0,.4284.1058-1.0709,2.1158-1.4457,2.3274s-.2142,1.4811-.1606,1.9571c.0535.476,2.2489.1058,2.7843.2644.5355.1586-1.3386,1.9571-1.7134,2.3274s.0535,2.01-.1606,2.4332c-.2142.4231-.9103.7934-.589,1.2695.3212.476,1.6063,1.1637,1.6599,1.5868.0535.4232-.5355,1.2166-.7497,1.5339-.2142.3174,1.4993,2.4332,1.8741,2.8564.3748.4231-.7496,2.6447-.7496,3.2265s-1.5528,3.1208-1.8206,3.3853c-.2677.2645-.1606,2.0101-.2141,2.6976-.0536.6876-1.0174,2.0629-1.1245,2.4861-.1071.4231,0,3.9142.4284,4.1786.4283.2645,1.2315.4761,1.4992.6876.2678.2116-1.2315.7406-1.2851,1.2695-.0535.529.2678,2.9092.3213,3.5969.0536.6876.3748,1.3753.9103,1.3753s1.178-.6876,1.6599-.476.6425,1.9042.1606,2.2216c-.4819.3173-1.2851.6347-1.178,1.0579.1071.4231.8032,1.8513.8568,2.1686.0535.3174-1.4458-.7405-1.6064-.2115-.1606.5289.589,3.5968.4284,4.3373-.1607.7405.2141,1.5339.696,1.9042.482.3702.0536,1.2695-.1606,1.6926-.2142.4232.1606,2.1687.5355,2.4861.3748.3173.8567.7933,1.178,1.481.3212.6876.107,3.015.0535,3.5969s.9638,1.4811,1.0709,2.2216-.1071,4.1257.0536,5.4482c.1606,1.3223.9638,3.2795.7496,4.6018s-.2677,4.3373.0535,4.9192c.3213.5818.8568,2.1687,1.2851,2.8564.4284.6876.5355,2.2744.589,2.8563.0536.5818,2.1954,2.8034,2.5166,3.3324.3213.5289.589,3.7026.8032,4.2844.2142.5818,1.0709,1.2166,1.3387,1.8513.2677.6348.107,2.8564.5354,3.4382s1.6599,1.6926,2.0347,1.6397c.3748-.0529,1.0709-.3137,1.2851.0018s-.3748,1.4792-.2677,2.061c.1071.5818,1.1244.7934,1.3922,1.4811.2677.6876.8031,2.1158.9638,2.7505.1606.6348.6425,4.4431.8032,5.025.1606.5818,1.7134,1.9571,2.0882,2.5919.3748.6347.1071,2.6447,0,3.1207s1.178.8992,1.3922,1.2166c.2142.3173-.7496.6876-.8567,1.0579-.1071.3702-.0536,1.481-.1071,2.0628-.0536.5818.589,1.6927.8567,2.2745s.1606,3.8085.2677,4.496c.1071.6876,1.3387,1.6397,1.767,1.9571.4284.3174,0,1.3753,0,1.7985s1.4993,1.7454,2.4631,3.967c.9638,2.2217.6426,3.8614,1.0174,4.1787.3748.3174,1.1244.7406,1.6063,1.1108.4819.3702,0,1.1637.6961,2.0628.6961.8992,1.9276,3.3853,2.1954,3.7556.2677.3702,1.2315.2115,1.6063.7933.3748.5818,1.4993,2.6976,1.8206,3.3324.3212.6347.589,3.0679.589,3.8613s1.0709.6876,1.3386.8463c.2677.1586-.6425,1.5869-.6425,1.8513s.9102,2.6976,1.2315,3.4381c.3213.7406,1.6105,1.534,1.6888,2.0101.0782.476.2924,2.0628.6136,2.6447.3213.5818,1.071,1.3224,1.3922,1.7455.3213.4232.5355,1.7985.6426,2.486.1071.6876,1.178.4761,1.4457.7934.2677.3174-.3748,1.3224-.2677,1.9571s1.2315,1.7455,1.285,2.2216c.0536.476-2.1953.529-2.6772.7934-.4819.2644.9103,4.1787,1.178,4.7605.2677.5817,1.0728,1.3223,1.5002,1.6397.4274.3173.4274,1.5868.8022,2.1686s1.5528.9521,2.1418,2.0629c.589,1.1107.3749,2.2216,1.3387,3.015.9638.7933,2.0882,1.2694,2.5166,2.01.4284.7405.9103.5289,1.3386.7405.4284.2116,1.4457,1.005,1.8206,1.4811.3748.476,2.0882,1.3223,2.6237,1.481.5354.1587,2.0347-.7933,3.4804-1.481s2.8379-1.4281,3.8553-1.6397c1.0173-.2116,1.4993-1.3224,1.6063-2.1687.1071-.8463-.696-3.1737,0-4.2844.6961-1.1108,1.4993-3.068,2.1954-3.7027.6961-.6348,2.1418-1.2695,3.2127-1.2695s2.1418.2644,2.6773-.2644c.5354-.529.2677-1.2166,1.1244-1.4811.8568-.2644,3.4269.2116,3.8017-.1586.3749-.3702-1.5528-1.5869-1.4992-2.1687.0535-.5818.4819-2.4332,1.0709-3.3323.589-.8992,1.2851-1.7455,1.9812-1.9571.696-.2116,1.6599-2.2216,1.5528-2.6448-.1071-.4231-.5355-2.1158-.3213-2.7505.2142-.6348,2.8914-1.9571,3.3198-2.3803.4284-.4231,1.0709,1.0579,1.5528,1.2695.4819.2116,1.3922-.3174,1.8741-.2644.4819.0528,1.2315,1.1107,1.6064,1.005.3748-.1058.589-6.7705.6425-7.4582s-.8567-1.9043-.8567-2.6448,1.1825-2.01.859-2.6448c-.3236-.6347-1.0197-2.486-1.448-3.0679-.4284-.5818-.8567-2.4332-.8567-2.9092s1.2315-2.1158,1.2315-2.5918-.1071-1.3223,0-1.8513c.1071-.5289,1.2315-2.7505,1.8741-3.3323.6425-.5818,2.3024-2.539,2.4631-3.1208.1606-.5818-1.4458-1.5869-1.4458-2.01s1.3922.1586,1.8741.1586,1.0709-1.5868,1.2851-2.486-.3748-2.2745,0-3.015.9638-2.2216,1.178-2.6976-.0535-2.6976,0-3.2795c.0536-.5818-1.3922-1.3223-2.1954-1.6927-.8031-.3702-1.6063-1.0049-1.5528-1.481.0536-.476.5355-1.3223.7497-1.5869.2142-.2644,1.6599,0,1.9276-.2644.2677-.2644-1.6064-4.6547-1.8741-5.3952-.2677-.7406-1.0709-.6876-1.3386-.8992-.2677-.2116,1.2315-1.5868,1.3922-1.9571.1606-.3702.5354-4.2315.1071-4.8134-.4284-.5818-1.3387-3.015-1.5529-3.4911-.2141-.476-.1071-3.0679.4284-3.8613s.9638-.5818,1.6599-1.8513c.6961-1.2694.9638-2.4331,1.3386-3.2795.3749-.8463-.5354-1.0579.3213-1.7984s2.9985-1.7455,3.8553-2.1687c.8567-.4231,2.3024-.5289,2.7843-.0528s1.3922,2.1158,1.8206,2.3802c.4283.2645,1.178-1.6926,1.8205-2.5389.6425-.8464,1.9812-1.8513,2.1418-2.8564.1606-1.0049,1.1245-2.8034,1.6064-3.3853s1.4457-.0528,2.6237.0529,2.4095.8991,3.2662.3173c.8568-.5818,2.6238-1.9042,3.4269-2.3274.8032-.4231,2.9986-.5818,3.3198-1.0049.3213-.4232.2678-3.1737.4284-3.5439.1606-.3703-1.6063-1.058-1.4457-1.6927s2.356-3.2266,2.6773-3.6497c.3212-.4232,1.7669,0,2.5701-.6348.8032-.6347,4.123-3.1207,5.0333-3.5968.9102-.476,2.7843-.9522,3.3733-1.3753.589-.4232.9638-2.7506,1.4993-3.4382.5355-.6875,2.945-2.8563,3.7482-3.6497.8031-.7934,2.463-1.7984,3.4269-1.7984s1.9811-.3174,2.2489-.8992c.2677-.5818.6961-2.2216,1.3921-2.9092.6961-.6876,5.301-5.1308,5.5687-5.5539.2678-.4232.5355-2.4332,1.2316-3.1737.6961-.7406.9103-1.058,1.8741-1.9571.9638-.8992,4.7655-2.8564,5.1939-3.1737.4283-.3174.4819-1.8513.9638-2.1687s2.2489-1.1637,2.9985-1.6397,1.767-.6876,2.5702-.6347c.8032.0528,2.7843-.2645,3.2127-1.005s2.3024-.1058,2.9985-.6347c.6961-.529,1.0174-2.3274,1.3387-2.8034.3212-.4761.3212-1.3753.9638-1.9571.6425-.5818,2.356-.6348,2.5702-1.005.2141-.3702-.9639-1.9571-.7497-2.3802.2142-.4232,2.5166-1.5869,2.7308-2.01.2142-.4232.9638-1.2166.8568-1.7455-.1071-.529-1.0174-.7934-1.178-1.0579-.1607-.2645.696-.9521.5354-1.3224-.1606-.3702-1.6599-1.9042-1.9812-2.6447-.3212-.7406.5355-2.2745.9639-2.8034.4283-.529,2.6772-2.4332,3.052-2.8564.3748-.4231,1.8741.529,2.4631.3702.589-.1586,1.1245-.5818,1.4993-1.0049.3748-.4232,2.1418-.476,2.945-.6348.8031-.1586,1.4992-.8463,2.3024-1.9042s1.4457-2.4332,2.0347-3.1208c.589-.6875,1.1245-1.4281,1.1245-1.7984s-1.767-1.416-1.4993-1.6336c.2677-.2177,1.1245-.7466,1.4993-.3764s.7496,2.1686,1.2315,2.5918-.8032,2.2744-.6425,3.0679c.1606.7934,1.0173,1.1637,1.9812,1.1637s2.1418-1.3753,2.7308-1.481c.589-.1058.3748-2.0629.4283-2.4861.0536-.4231,1.0174-.2644,1.2851-.3173.2677-.0529.589,1.2165,1.1245,1.5868.5354.3702,1.7134.1586,2.5166.3702s1.0174-2.1686.589-3.015c-.4284-.8463-1.0709-3.5439-1.5528-3.9142s-.1071-1.5869-.1071-2.4332-1.0174-2.8563-1.3386-3.5969c-.3213-.7405-.7497-1.9042-.1071-2.9091.6425-1.005.2141-2.3803-.0536-2.6977-.2677-.3173-1.9276-.1586-2.1953-.2644-.2678-.1058.9638-1.5339.8567-1.9571-.1071-.4231-3.3734-2.2744-3.4805-2.7505-.107-.476.1071-2.1687.1071-2.6976s2.0883-1.5339,2.2489-2.1158c.1607-.5818-.8567-1.7985-.8567-2.3274s.3748-1.6397,0-2.0629-3.2127.3174-3.9623.1058c-.7497-.2116-2.6773-1.9042-3.2127-2.3802-.5355-.476-1.8741-1.9571-1.767-2.2745.107-.3174.7496-.9521,1.2315-1.1107.4819-.1587-.0535-1.9571.2142-2.539s1.2315-.7934,1.5528-1.0579,1.3386.7934,1.7134.2644c.3749-.5289.4819-1.9571.4284-2.3274s1.3922-.3702,2.1954-.5289c.8031-.1587,2.1953.5818,2.7843.5289.589-.0528,1.1245-1.6926,1.2851-2.0628.1606-.3703-1.5528-1.2166-1.767-1.4282-.2142-.2115-.2142-1.4281-.589-1.6926s-2.0883,1.1107-2.6237,1.0579c-.5355-.0529-1.1245-1.1108-1.4993-1.3753s-.1071-1.4281-.4283-1.7455c-.3213-.3173-1.1245.2116-1.5529-.0528-.4283-.2644.0536-1.2695-.4283-1.3753-.4819-.1058-1.4993.6347-1.8741.3702s.1071-3.4911,0-3.9671c-.1071-.476,1.4993-1.481,2.1954-1.9571.696-.476,1.4457-1.4281,1.4457-1.9042s-1.178-1.2165-1.2851-1.5868c-.1071-.3703.6961-1.005.9103-1.3224.2141-.3173,1.285,1.2695,1.6063,1.6397.3213.3703,1.3922-.2115,1.7135.1058.3212.3174-.3213,2.3803.1071,2.539.4283.1586,1.6599-.2644,2.1953-.476.5355-.2116.1606-2.2745.5355-2.5918.3748-.3174,1.4992-.1058,1.9811.0528.4819.1587.2678,2.8034.8032,3.3324.5355.5289,2.5166,1.9042,3.1056,2.2216.589.3173,1.8741.2644,2.2489.1058.3749-.1587-.3748-3.068,0-3.3324.3749-.2644,1.9277-.5289,2.0883-.6347.1606-.1058.2142,2.0628.3748,2.3274.1607.2644,1.1245.8463,1.2851,1.4281.1607.5818-.1606,3.6497,0,4.1257.1607.476,1.0174,1.4281,1.0709,1.7984.0536.3703-1.0173,2.6977-.9102,3.1738.107.476,1.3386.7405,2.2489.7933.9102.0529,2.6772-.2115,3.052.0529s1.2316.8992,1.6064,1.0049c.3748.1058,3.7482-.6875,4.1765-1.0049.4284-.3174,1.8206.5818,2.356.476.5355-.1058,2.9985-1.2695,3.3734-1.3223.3748-.0529,3.1591.6876,4.1765.8463s2.6773-.6876,3.2127-.8463c.5355-.1587,1.1245-.8464,1.7135-.8464s1.9276.2645,2.463.3703c.5355.1057.0536.8463.8032,1.1637.7497.3173,1.7135.4231,2.4096.6347.696.2116.5354,1.1637.8567,1.4281.3213.2644.5354,1.0579.7496,1.3753s-1.2851.2644-1.4457.3174c-.1606.0528-.8032-.7934-1.2851-.7934s-.1606,1.8513,0,2.486c.1606.6348-.6425,1.7455-.8567,2.1687-.2142.4231.0535,1.5868,0,2.0628-.0536.476-2.0347.2645-2.4631.5818-.4284.3174.3748,2.3803,0,2.6976-.3748.3174-1.4457.1058-2.1418.0529-.6961-.0529-1.3386.8463-1.8741,1.0049-.5354.1587-.3748.8992-1.178,1.058-.8032.1586-1.6063.5289-1.9276,1.3223s-.6426,4.0199-1.2851,4.496c-.6426.476.1606,1.5339.7496,2.2745.589.7405,1.1245,2.4332,1.6599,2.5918.5355.1586,1.0709,0,1.5528.3174.4819.3173,1.3387,3.2795,1.8741,3.4381.5355.1586,1.6599-1.1107,2.2489-1.3223s1.178-.8992,1.2851-1.2166c.1071-.3173-1.8205-1.957-1.767-2.3802.0536-.4232,1.178-1.7455,1.4993-2.1687.3213-.4231-.6426-2.0628-.3748-2.5918.2677-.5289.1071-1.1107.9102-.8463.8032.2644,1.6599.8992,2.1419.7934.4819-.1058,1.0709-.4232,1.5528-.2116s.2677,2.1687.6961,2.539c.4283.3702.8567,1.0049,1.3386,1.5339.4819.5289-.589,2.3274-.5355,2.8034.0536.476,1.178,3.1737,1.3922,3.7555s1.0174,2.01,1.4993,2.6976c.4819.6876-.1607,2.9621,0,3.7555.1606.7934.9102,1.3753,1.3386,1.9571s.4819,1.7984,1.1245,1.8513c.6425.0528,2.9449,1.1107,3.641.8991.6961-.2115.4819-3.2795.8568-3.4381.3748-.1586,1.2315-.4232,1.3921-1.0579.1607-.6347-.6425-2.4332-.8567-3.1737-.2142-.7405-1.4457-.8992-1.2315-2.1158.2142-1.2166.5354-2.8034.6425-3.2795s-.6961-1.7985-.6961-2.0101,3.0521.1587,3.2127-.1057c.1607-.2645-.107-3.3324-.2677-3.8085-.1606-.476.6961-1.3223.6426-2.0629-.0536-.7405-.2678-2.3802-.3213-3.2795-.0536-.8991-.589-2.486-.9638-2.9621s-.9103-1.0579-.6961-1.5869c.2142-.5289,1.0709-.3173,1.4993.1587.4283.476.6425,2.01,1.3921,1.7455.7497-.2645,1.178-1.005,2.0347-1.1637.8568-.1587,1.9277,1.0579,2.5167,1.1107.589.0529,2.7843.3174,3.2662.3174s.8032-3.1737.9103-3.9142c.1071-.7405.9638-3.2265,1.2851-3.8084s2.3024-3.8085,2.6237-4.4961.1606-2.1686.3748-2.9621.9103-2.2744.6426-2.539c-.2678-.2644-2.0883-.476-2.2489-.9521-.1607-.476.3212-2.4332.1606-2.9092s2.0883-1.5339,2.4095-1.8513c.3213-.3173,2.3025-1.0579,2.5167-1.5339.2141-.476-.6961-3.0679-.6961-3.7026s1.2851-1.6397,1.4457-2.0101c.1606-.3702-.9638-1.5339-.9638-1.7455s.6961-1.2694.6425-1.5339c-.0535-.2644-1.178-1.9042-1.2315-2.3274-.0536-.4231.1606-1.3752.6425-1.9042.4819-.5289,2.356-.7934,2.7308-1.0579.3749-.2644,2.0883-2.3802,2.6238-2.9092s2.3024-2.9092,2.8914-2.9092,1.178-2.3802,1.9812-2.8563,4.0159-.9521,4.6049-1.1108c.589-.1586,1.4992-1.7455,2.1418-2.0628.6425-.3174,1.2851.6876,1.767.9521.4819.2644,1.2315,2.01,1.9811,2.3802.7497.3702,2.7844.4232,3.0521.1058.2678-.3174-2.8379-3.4381-3.2662-3.7555-.4284-.3174-1.0174-2.6448-1.1245-2.9621-.1071-.3174,2.5166-2.4332,2.945-2.8564.4284-.4231.5355-1.6397.9103-1.7455s1.4457-.3173,1.5528-.5818c.1071-.2644-.9103-1.5868-.9103-2.0628s.4819-1.6397-.1071-1.9571-1.9276.1058-2.5166-.1587c-.589-.2644-2.1418-.6347-2.5702-.5289-.4283.1058-1.2315.6876-1.5528.5289-.3213-.1586-2.0347-1.0049-2.5702-.9521-.5354.0529-1.874,2.3274-2.3024,2.2745-.4284-.0529-1.4457-.8463-1.7135-1.1108s1.071-2.9092,1.178-3.2795c.1071-.3702,1.5529-1.2695,1.767-1.5868.2142-.3174-1.0173-4.2845-1.4457-4.4431-.4283-.1587-2.6772,2.2744-3.0521,2.2216-.3748-.0529-1.1244-2.1158-1.3386-2.2216-.2142-.1058,2.5166-1.4282,2.2489-1.9043s-1.8205-1.5339-2.1953-1.957c-.3749-.4232-1.3387-1.0579-1.767-.9522-.4284.1058-1.6599,2.1159-2.3025,2.2745-.6425.1586-2.3024.8992-2.7308,1.0579s-.2142,3.1737-.5355,3.3853c-.3212.2116-2.6237.1058-3.1591.1058s-1.4993-1.3223-2.0347-1.3753c-.5355-.0528-2.8915-.1586-3.2663-.2116-.3748-.0528-1.5528-1.957-1.9812-1.9042-.4283.0528-1.0173,2.1158-1.3386,2.1687-.3213.0528-2.5166.9521-2.8915,1.1636-.3748.2116-.0535,2.3803-.4819,2.7506-.4283.3702-1.8205.7405-2.1953,1.1108-.3748.3702.2142,2.7505-.2142,2.8563s-3.2127-.0528-3.8017.1058-.9638.6876-1.6064.7934c-.6425.1058-1.6599-.1058-2.2489.1586s-.3212,3.9671-.9638,4.3373c-.6425.3702-2.4095.5818-2.7843.6876-.3749.1058-.9639,1.4811-1.3387,1.6397s-1.3386-.2644-1.7134.2644c-.3748.529-.1607,2.0629.1071,2.4332.2677.3702-.6961,1.3223-1.0174,1.4811-.3213.1586-.3213,1.2165-.8567,1.2695-.5355.0528-2.6773,0-3.2663-.1058s-2.0347,1.9042-2.7843,1.9571c-.7497.0528-2.1418.1586-2.4631.0528-.3213-.1058-1.0709-1.5339-1.767-1.4811-.6961.0529-.3213,2.1687-.589,2.539-.2677.3702-.8567,1.1637-.6425,1.5869.2141.4231,2.0347.3702,2.7843.4231.7496.0529,2.6237-.7934,3.1056-.6347.4819.1586.6961,2.539.9103,3.0679.2142.529-.3213,1.4281-.5354,2.01-.2142.5818,1.3386,2.6448,1.5528,2.9622.2141.3173-1.0709.8463-1.3387.8463s-1.3386-.7934-2.0882-.6348c-.7497.1587-2.1954,1.5869-2.945,1.7455-.7497.1587-2.356-.5289-2.9986-.476-.6425.0529-1.178,1.2695-1.7134,1.2695s-2.1418-.3702-2.6773-.3174c-.5354.0529-1.4457.5818-2.356.7406-.9102.1586-2.6772-.1058-3.1591-.1058s-1.2851-1.3223-1.9812-1.3753c-.6961-.0528-1.7135,2.3802-2.356,2.5918s-5.4616.6876-5.89.476c-.4283-.2115-.5354-1.0049-1.1244-1.3752-.589-.3703-2.7308-.7406-3.2127-.6348s-.4819,1.2695-.9639,1.3753c-.4819.1058-1.6599-.1586-1.874-.2644-.2142-.1058-4.0159-3.8613-4.123-4.0729-.1071-.2116,1.3386-2.01,1.2851-2.2745-.0536-.2644-1.767-1.9042-1.767-2.3274s.9102-2.3274.9102-2.5918.8032.1058.8032-.8463-.3213-3.6497-.589-3.9142c-.2677-.2644-2.6237-.5818-3.0521-.5818s-2.7843,2.4332-3.2662,2.4332-2.6237-.3173-2.8379-.1058c-.2142.2116,1.4457,2.5919,1.178,2.9622-.2678.3702-1.3922,2.3274-1.4993,2.5918-.1071.2644.7496,4.7605.589,5.0778-.1606.3174-1.1244.5818-1.1244.9522s2.6237,2.8034,2.7308,3.2795-.4819,2.2216-.6961,2.5918c-.2142.3702.2142,1.7984,0,1.9042-.2142.1058-.8032,1.4811-1.0174,1.5339-.2142.0529-.3748-.9521-1.0173-1.0049-.6426-.0529-2.2489,1.0579-2.5702,1.2165-.3213.1586-1.6064-.3702-2.0883-.4232-.4819-.0528-2.0882,0-2.5166.0529-.4284.0528-.9103,1.1107-1.3386,1.1107s-2.3025-2.1158-2.8379-2.1686c-.5355-.0529-2.9986,1.6926-3.4269,1.7984-.4284.1058-3.1057-2.0628-3.6947-2.1686s-2.5701,0-2.9985,0-.7496.6347-1.178.6347-.9103-1.0579-1.3386-1.1637c-.4284-.1058-1.3387,1.3753-1.6599,1.3753s-2.0347-1.6397-2.2489-1.7985c-.2142-.1586.1606-1.957-.2142-2.1686-.3748-.2116-3.0521,1.2695-3.6411,1.4811-.589.2115-1.9812.2644-2.2489.1586s-.2142-1.1108-.5354-1.2695c-.3213-.1586-1.5529-.1586-1.9812-.2644-.4284-.1058-.3748-1.2166-.7496-1.4281-.3749-.2116-3.2663-.4232-3.4805-.6348s.3213-3.6497-.2142-3.9671c-.5354-.3173-3.6946-.2644-4.1765-.5818-.4819-.3173-1.767-1.3223-2.1418-1.4281-.3748-.1058-2.4096.7934-2.4096.7934,0,0-.696,1.6397-.9102,1.6926-.2142.0529-1.2851-1.6397-1.767-1.6926-.4819-.0529-2.6773-.2644-3.2663-.2644s-.4819,2.1158-1.0173,2.1686c-.5355.0529-1.1245-1.4811-1.6064-1.6397s-4.123-.2644-4.7655-.5289c-.6426-.2645-1.3387-1.2166-1.6064-1.4811-.2677-.2644-.1547-1.4281-.4254-1.5869-.2707-.1586-2.5731.3174-3.2157.1587-.6425-.1587-4.0694-2.9622-4.6048-2.8564-.5355.1058-1.3387,1.0579-1.9812,1.005-.6426-.0529-1.6599-1.005-2.0883-1.2695s-1.3922-1.9571-2.3024-2.5918c-.9103-.6348-2.5702-.6876-2.945-1.0579s-.3748-1.7455-1.178-2.2745c-.8032-.5289-2.1418-.6876-2.8915-.7934-.7496-.1057-3.8017-2.4331-4.3371-2.5389-.5355-.1058-1.2316.7934-1.7135.7934s-3.8017-3.068-4.123-3.3853c-.3212-.3174.1607-3.2796.2142-3.5969.0536-.3174,1.9812-1.2166,2.0883-1.5869.1071-.3702-.3213-3.1208-.1607-3.4911.1607-.3702,1.2851-.7933,1.3922-1.1637.1071-.3702.1071-2.8034.2142-3.2265.1071-.4232,1.3922-1.9571,1.6064-2.4861.2141-.5289,1.6599-.0528,2.1418-.476.4819-.4231,1.8741-1.7984,2.0347-2.0628.1606-.2645,1.7134-.3702,1.9276-.6348.2142-.2644-1.767-.8463-2.356-1.1637-.589-.3173-2.0347-2.0628-2.356-2.1158-.3212-.0528-2.0347.0529-2.6237-.1058-.589-.1586-2.5702-1.2695-2.8379-1.6926-.2677-.4232,1.1245-2.1158.5355-2.4332s-2.0347-.3702-2.5702-.5289c-.5355-.1587-1.4457-1.9571-2.2489-2.2216-.8032-.2645-1.8205.1057-2.2489.2115-.4284.1058-.7496.6348-.9103.5818-.1606-.0528-1.4992-2.1686-1.8205-2.2744s-1.6599-1.1637-1.9276-1.5339c-.2678-.3702.3748-2.0629.1071-2.2216-.2678-.1587-1.2851-1.005-1.66-1.2166-.3748-.2116-1.5528,2.0629-2.0347,2.2216-.4819.1587-1.0709-.5289-1.2315-.7933-.1606-.2645-1.0709-1.534-1.2316-1.9043-.1606-.3702,1.1245-.7934,1.2316-1.0579s-.5355-1.5339-1.0709-2.3802c-.5355-.8463-.1607-1.8513-.1607-2.01,0-.1587.9639-.2645.9639-.476s-2.6773-4.0729-2.945-4.4431c-.2678-.3703-.8032-.0529-.9103-.4232s.589-2.5918.3213-2.8034c-.2678-.2116-1.178-.2644-1.6064,0-.4283.2644-1.4993.1586-1.6063,0-.1071-.1586,1.1244-1.1108,1.178-1.3753.0535-.2644,1.2315.5818,1.874.0529.6426-.529,2.5702-1.9043,3.0521-1.9043s.589,2.4332.589,2.8564,1.767,1.0579,2.0883,1.3223.8567.3702,1.2851.2116c.4283-.1587,3.1056-3.015,3.4269-3.0679.3212-.0529.6425.3173.9638.2644.3213-.0529,1.6599-1.005,1.767-1.2695s-2.0883-3.0679-2.2489-3.5439c-.1607-.476,0-2.2216.1071-2.6976s.0535-1.2166-.4284-1.5869c-.4819-.3702-2.1418.0528-2.7844-.0528-.6425-.1058-2.6237-1.2695-2.7843-1.4282-.1606-.1586-.0536-2.7505-.0536-3.1207s2.0883-.0529,2.1954-.3174-2.2489-3.4382-2.2489-3.7027.3213-1.7984.3213-1.9571c0-.1586,5.0868.4761,5.3545.3703s.7496-1.7455,1.0709-2.0629c.3213-.3174,1.3922-.8992,1.6064-1.1637.2141-.2644-.9103-2.6976-.8032-2.9092s2.7308,0,2.9985-.2644c.2677-.2644.3748-2.6448.6426-2.7506.2677-.1058,1.7134.1058,2.0347-.0528.3213-.1586,1.0173-2.9621,1.0173-3.3324s.8032-2.1158,1.0709-3.1207c.2678-1.005-.2677-1.4282-.1606-1.7985s1.2316-1.957,1.2316-2.2744-.1607-1.5869-.482-2.0629c-.3212-.476-1.7669-.3702-2.1418-.6347-.3748-.2645-.2677-1.9043-.6961-2.1158-.4283-.2116-1.9811.9521-2.463.8991-.4819-.0528-2.5702-1.5868-3.2128-1.6397-.6425-.0528-1.2315-1.3752-1.7134-1.5339-.4819-.1586-1.5528.2644-1.9276.7934-.3748.5289-.5355,1.6926-.9103,1.5339-.3748-.1586-1.1244-.5289-1.9276-.7934-.8032-.2644-3.3198-.2644-3.8017,0-.4819.2645-.8032,1.6927-1.3387,1.8513-.5354.1586-1.2851-.5289-1.8205-.0528-.5355.476-1.9812,2.9621-2.4631,3.1737s-.7496-1.1108-1.2851-1.0579c-.5354.0528-.9103,1.2695-1.3386,1.3753-.4284.1057-1.0174-.4761-1.5528-.5818-.5355-.1058-2.2489.3702-3.0521.5818-.8032.2115-1.8741-.1058-2.1418-.3174s.9638-.9521.9103-1.3223c-.0536-.3703,1.3921-1.005.7496-1.4811-.6426-.476-2.1954-.1587-2.7308-.3702-.5355-.2116-1.8741-1.3224-2.2489-1.5339-.3748-.2116-.9103.476-1.3387.3173-.4283-.1586-1.1779-1.1107-1.3921-1.3753-.2142-.2644.5354-2.8563-.0536-3.1207s-1.767-.7934-2.4095-1.005c-.6426-.2116-1.3922-1.9571-1.6064-2.1686-.2142-.2116-1.7134-.2116-2.1953-.3174s-.7497-1.8513-1.0709-1.9571c-.3213-.1058-1.9277-.2116-2.2489-.3174-.3213-.1057-1.9277-1.5339-2.0348-2.0628-.107-.529-.696-1.5869-1.3921-1.8513-.6961-.2644-1.6064-1.0579-1.8206-1.5339-.2141-.476-.6425-2.7506-1.178-2.8564-.5354-.1058-1.767,2.2216-2.356,2.2745-.589.0528-1.7669.0528-2.1418.1058-.3748.0528-1.4992-2.01-2.356-2.01s-1.178,1.5868-1.6063,1.6926c-.4284.1058-1.6599-.3174-2.0883-.2116-.4283.1058-1.7134,1.2166-2.5166,1.3753s-2.356-.5818-2.9985-.6876c-.6426-.1058,1.0173,1.8513.9102,2.2745Z"/>
      <path class="cls-5" d="m99.7366,376.4337c-.4161.2878-.0803,3.2531.4016,3.3324.4819.0793,1.6064.476,1.6867,0,.0803-.476-1.2851-3.8878-2.0883-3.3324Z"/>
    </g>
    <g>
      <path class="cls-1" d="m133.3339,67.6846s-.185-2.6677-.8276-2.7735c-.6425-.1058-.9638,1.7984-1.6063,1.9042-.6426.1058-1.2851-.616-1.8206-.5196-.5354.0965-1.1779,1.5176-1.4992,1.3889-.3213-.1287-.1071-2.0415-.3213-2.7777s-2.1418-3.1694-2.7843-3.0636c-.6426.1058-1.6064,1.9042-2.2489,1.9042s-1.9277.529-2.6773.3174-2.9985-1.2762-3.7482-2.2249c-.7496-.9487-.3212-3.1703-1.178-3.1703s-1.178.8463-1.9276.7405c-.7496-.1058-2.6773-.3174-3.3198-.2116-.6426.1058-.8567,1.6927-1.4993,2.01-.6425.3174-2.2489,1.8296-2.8914,1.9727-.6426.143-2.1418-.809-2.4631-.4917s1.4993,3.2795,1.3922,3.7027c-.1071.4231-1.0709.4854-.9638,1.3006.107.8152.6425,1.9789.4283,2.2962-.2142.3174-1.7134,1.2695-2.0347,1.4811s-.7496,2.2216-.8567,2.539c-.1071.3174,2.2489.9521,2.6772,1.1637.4284.2116.8568,2.3274.7497,2.9621-.1071.6348.7496,1.9042,1.2851,2.539.5354.6347,1.0709,3.8084,1.6063,4.0199.5355.2116,1.2851,0,1.6064,0s.3212-1.3753.7496-1.3753.6426,1.9043,1.0709,2.0101c.4284.1058,1.4993.1058,1.8206.4231.3212.3174-.7497,2.4332-.6426,2.8564.1071.4231,1.2851,1.3752,1.7135,1.481.4283.1058,1.285-.8463,1.9276,0,.6425.8464.8567,1.7985,1.178,2.2216.3213.4232,1.4993.3174,1.8205.8464.3213.5289-.3212,2.5389-.2142,2.8563.1071.3174,1.8206.8463,2.8915,1.0579s3.1056-.4231,3.7482-.5289c.6425-.1058,1.285-1.3753.9638-2.1158-.3213-.7406-.9638-2.3274-.7497-2.6448.2142-.3174,1.3922-.7405,1.4993-1.3753.1071-.6347-.1071-1.5868.1071-2.2216.2142-.6347,1.4993-.8463,2.2489-1.2695.7496-.4231.9638.6348,1.8205.2116.8568-.4232,2.0348-1.6926,2.356-1.7984.3213-.1058.5355.7405,1.3922,1.3752.8567.6348,2.356.1058,3.1056.4232.7497.3174,2.1418.3174,2.1418.3174l.6548-2.8215"/>
      <path class="cls-1" d="m98.4516,70.7295s1.7063.7405,2.0311,0c.3248-.7406,1.7415-2.7384,2.6395-2.2685"/>
      <path class="cls-1" d="m113.123,90.0888s1.285,1.0579,1.4992,1.5869c.2142.529-.3212,1.3753,0,2.01.3213.6348.9638,3.8085.6426,4.1257s-2.0348-.972-2.1418-.6976c-.1071.2745-1.6064,1.544-1.9277,1.8613-.3212.3174.2142,1.9043,0,2.1159-.2142.2115-1.0709.7405-1.3921.6347-.3213-.1058-.4284-1.4811-.8568-1.4811s-2.2489-.2116-2.7843,0c-.5355.2116.8567.6625.6425,1.4949s.5355,2.7367,0,3.054c-.5354.3174-1.0709-.8463-1.7134-.4231-.6426.4231-1.7961,1.7984-1.969,1.6926-.1728-.1058-1.0296-1.4811-1.565-1.5868-.5355-.1058-2.1418,1.8099-2.5702,1.5926-.4284-.2174-1.8205-1.1695-1.8205-1.1695,0,0-.9638,3.4911-1.7135,3.3853-.7496-.1058-1.3922-1.5868-1.7134-1.7984-.3213-.2116.8567-2.2216.5354-2.4332-.3212-.2116-1.4992-.1058-2.1418-.3174-.6425-.2116-1.0709-1.3753-1.6063-1.6926-.5355-.3174-.9639.9521-1.9277.8463-.9638-.1058-3.4269-.4232-4.3907-.6347-.9638-.2116-3.4269.7405-4.0694.2115-.6426-.5289-.3512-2.6898-.3512-2.6898"/>
      <path class="cls-1" d="m152.9606,118.3875s-.6425,1.6397-1.3921,1.5339c-.7497-.1058-1.8206-1.9043-2.356-2.0101-.5355-.1057-.9638,1.0628-1.4993,1.0075-.5355-.0553-2.5702-.3727-3.2127-.5843-.6426-.2116.1071-1.3753-.4284-1.6926-.5354-.3174-1.4992.4231-1.8205,0-.3213-.4232-1.178-2.1158-1.4993-2.3274s-1.3922.1058-1.7134,0c-.3213-.1058-1.4993-1.7985-1.7135-2.1158-.2142-.3174,1.6064-1.3753,1.4993-1.5869s-3.8553-1.4811-4.2836-1.7984c-.4284-.3174-.7497-2.0101-1.2851-2.1158-.5355-.1058-2.1418.8463-2.5702.8463s-.8567,2.01-1.4993,1.9042c-.6425-.1058-1.178-1.5869-1.6063-1.6926-.4284-.1058-1.8206-.3174-2.0347-.6348-.2142-.3174.2141-3.3853,0-3.9142-.2142-.529,1.4992-1.2695,1.7134-1.5869s.7496-.9521.5355-1.2695c-.2142-.3174-3.8508-3.6669-4.6105-3.5155-.7597.1514-.1015,1.5055-.5299,1.9287s-2.026,3.5968-2.4052,3.8084c-.3791.2116-1.6642,0-1.9855.1058s.8567,3.1737,0,3.5969-1.7134.8463-1.8205,1.5868c-.1071.7406.2141,3.068,0,3.4911-.2142.4232,1.6063.8464,1.3921,1.1637-.2141.3174-.8567,1.9043-.9638,2.4332-.1071.529,1.178,1.3753,1.2851,2.01.1071.6348-1.0709,1.5869-.5354,2.2216.5354.6348,2.2576,1.3753,2.628,1.7985.3705.4231-1.1288.8463-1.2359,1.2695-.1071.4231-1.0709,1.5868-1.0709,2.01s1.7222-.2116,2.3068,0c.5847.2116,1.013,1.3753,1.4414,1.7984.4284.4232.1071,2.3274-.3213,2.9622-.4283.6347,0,1.9042-.4283,2.5389-.4284.6348-1.7135.3174-1.9277.9521-.2141.6348,0,3.7027.1071,4.1258.1071.4231,1.4993.9521,2.0347,1.3752.5355.4232,2.0348,1.3753,2.0348,1.3753,0,0-.2142,1.9043-.5355,2.1158-.3213.2116-1.4993.1058-1.7134.4232-.2142.3174.3212.7405.5354,1.1637.2142.4232,1.3922-.1058,1.9276,0,.5355.1058-.6425,1.2695-1.0709,1.4811-.4283.2115-2.2401,1.1637-2.0839,1.7984.1563.6347.9059.8463,1.4414.529.5355-.3174,2.6773-2.3274,3.2127-2.3274s1.178,1.2694,1.8206,1.2694,1.3921-1.6926,2.2489-1.6926,2.0347.529,2.6772.4232c.6426-.1058.6426,1.2694,1.2851,1.481.6425.2116,2.8915-.2116,3.4269-.2116s1.3922.8206,1.9276,1.2038c.5355.3831,1.0955.7005,1.7257,1.441.6303.7405-.8444,2.01,0,2.7506.8445.7405.2265,2.2216,0,2.7505-.2264.529-.3335,2.9622-.6548,3.7027-.3212.7405-.8567,1.4811-1.3921,1.5868-.5355.1058.2141,2.3274-.5355,2.7506s-2.2714.4232-2.7421.529c-.4706.1057-1.7557-.8464-2.3982,0-.6426.8463-.9639,2.1158-1.4993,2.3273-.5355.2116-.2142,1.5869.2142,2.0101s2.2489.9521,1.8205,1.481c-.4283.529-1.2851,2.2216-1.8205,2.539-.5355.3174-1.2851.3174-1.6064.7405-.3213.4232.5355,1.7985.9638,2.539.4284.7405-.589,2.4596-.589,2.8564s1.1245.9521,1.2851,1.2694c.1607.3174.6426,1.6662,1.1245,1.6662s1.2851-1.1902,1.6063-1.1902,1.1245,2.3803,1.6064,2.301c.4819-.0794,1.6867-.3967,2.2489-.476.5622-.0794,1.767-.9522,2.0079-1.4282.241-.476-.6425-1.5868-.7228-2.0628s0-1.5076-.1607-1.9043c-.1606-.3966-1.1244-.238-1.4457-.5554s-.2409-1.6662-.4819-2.1422c-.2409-.476-1.0441-1.1107-1.4457-1.6661-.4016-.5555,0-1.4282-.241-1.9836-.2409-.5554-1.6866-2.3802-1.6063-2.7769.0803-.3967.6735-1.6662,1.1399-1.8249.4664-.1587.9483,1.2695,1.3499,1.1107.4016-.1586,2.0883-.7934,2.5702-.9521s-.3213,2.6976,0,3.0943c.3213.3967,1.1245.1586,1.767.476s1.526,1.5869,2.1686,1.1108c.6425-.476.8835-2.6183,1.3654-2.6183s1.2048.3967,1.6063.476c.4016.0793.0804,1.5868.7229,1.7455.6425.1586,2.0883-.3174,3.0521-.1587.9638.1587,1.6867-1.1107,1.9276-1.4281.241-.3174,1.0709-1.6662,1.7402-1.6662s1.8741-.5554,2.2757-.6347.6426,1.6662,1.1245,1.9835c.4819.3174,1.1244.3967,1.1244.8728s-2.0079,1.6662-1.8473,2.1422,1.0441.2381,1.8473.3967c.8032.1586,1.767-.1586,1.9276-.5554.1607-.3967-.1606-1.5076.4819-1.5076s2.9718-.7933,3.4537-.5554c.4819.2381-1.0441,2.6183-.7228,3.1737.3212.5555,1.3654.3967,1.9276.6348.5622.238.9638.9521,1.6867.8728.7228-.0793,1.1244-2.0629,1.1244-2.7769s.0803-1.1108.7229-1.4282c.6425-.3173,1.8473,1.0315,2.2489.6348s-.1607-1.4281.4016-1.5869c.5622-.1586,1.3654.0793,1.767.2381.4015.1586-.0804,2.0628.4015,2.1422.482.0793,1.9277.3173,2.3293.6347s.1606,2.3802.8835,2.539c.7228.1586,2.4095-.1587,3.052.238.6426.3967.6426,1.5869,1.0442,1.9836.4016.3967,1.1244-.2381,1.6063-.5555.4819-.3173,1.8265-.476,2.5196-.1586.6931.3174,1.8979.1586,2.2995.5554.4016.3967,0,1.2695-.4016,1.7455s-.4016,1.5869-.4016,2.0629,1.3768.7141.9695,1.2695c-.4072.5554-1.2104.6386-1.7727,1.2714-.5622.6328.0804,1.2676.6426,1.5849.5622.3174,1.4457.8728,1.6867,1.6662.2409.7934,1.1244,1.7455,2.3292,1.2695s2.6505-1.7455,3.1324-2.2216c.4819-.476,1.6867-1.5869,1.6063-2.2216-.0803-.6348-.4015-2.6183-.4015-3.2531s1.4457-.8727,1.8473-1.3488c.4016-.476,0-1.4281,0-2.0628s-.9639-1.6662-1.4458-2.0629-1.4457-1.7455-1.4457-2.3009.241-2.0629.6426-2.8563c.4016-.7934,0-1.4282.4016-1.825s2.3292.1587,2.9717-.3173c.6426-.476,1.5261-1.2695,2.2489-1.3488.7229-.0794,1.6064-1.1902,1.8473-1.9836.241-.7934,1.2048-2.1422,1.5261-2.3802.3212-.2381,2.4095.238,3.052.0793.6426-.1586,1.8474.8728,2.4096.6347.5622-.238.8835-1.3488.7228-1.9042-.1606-.5554-1.7669-1.3488-2.5701-1.4281-.8032-.0793-2.2489.0793-2.5702-.2381-.3213-.3173-1.6867-1.3488-2.2489-2.1421-.5622-.7934.0803-1.5076.4819-1.5869s1.8473-.8728,1.6867-1.5075c-.1607-.6348-1.6064-.8728-2.2489-1.0315-.6426-.1586-1.6064-.7934-1.5261-1.1107.0804-.3174,1.767-1.8249,2.008-2.2216.2409-.3967,1.2851.5554,1.767.7933.4819.2381,1.2851.4761,1.767,0,.4819-.476,1.1244-1.5868.8032-2.0628-.3213-.476-1.9277.3967-2.4096,0-.4819-.3967.241-1.5076-.3213-1.6662-.5622-.1586-1.6063-.238-2.0882-.5554s-.7229-1.4622-.9638-2.1989c-.241-.7367-1.5796-3.0641-1.5796-3.0641"/>
      <path class="cls-1" d="m117.942,124.2588c-.5354.3438-.9821-1.005-1.5218-1.243-.5397-.2381-2.7082-.1587-2.9492-.5555-.241-.3966,1.1245-1.5075,1.2048-1.9835s-.8835-2.1422-.6426-2.3802c.241-.2381,1.1496-1.2695,1.6591-1.5076.5095-.238,2.2497,1.0936,2.2497,1.0936"/>
      <path class="cls-1" d="m86.9002,102.679s-1.5405,1.7708-1.4601,2.1675c.0803.3967,1.0729.476,1.4601.6347.3872.1586.175,1.7455,0,2.2216-.1751.476.2895.9521.2179,1.5076-.0717.5554-.879.476-.8368.9521.0423.476.5242,1.9042,1.1667,1.9042s1.9276-1.6662,2.3292-1.6662,1.9277.7934,2.3292,1.2695c.4016.476.482,1.1902,1.2851,1.1902s2.4096-1.1108,2.8112-.9521c.4015.1586-.0804,1.8249,0,2.3802.0803.5554,1.6063,1.4281,2.0079,1.8249.4016.3967-1.0256,4.1266-.6734,4.3246.3521.1979,1.3963,2.7368,1.8782,2.9749.4819.238,1.3654,0,1.6866,0s2.008,1.3488,2.1686,1.8249c.1607.476.241,1.1901,0,1.6661-.2409.4761.2239,1.9836.1521,2.4596s-.7946,1.9042-.4733,2.1422c.3212.238,1.767,1.1901,2.1685,1.0314.4016-.1586.4819-2.1422.9639-2.4595.4819-.3174,1.4457-.2381,1.6866-.476s-.5622-1.7455,0-1.825c.5623-.0793,1.6064,2.3803,2.0883,2.2216.4819-.1586,1.6064-.9521,1.8473-1.1901s.3213-1.4281.7229-1.6662,1.526.2381,2.0882.5554c.5623.3174-.4819,2.3009-.4819,2.8564s.5735,1.781.6482,2.0013-.7285,1.6484-.3269,1.8864c.4016.2381,1.7219.2381,2.0657,0,.3438-.238.3438-1.9835.6651-1.9835s1.9276.0528,1.9276.0528"/>
      <path class="cls-1" d="m132.3324,145.2815s-1.834.188-2.3962.4261c-.5623.238-1.2048,2.6976-1.6064,2.8563-.4016.1587-1.9276-.476-2.3292-.3967-.4016.0794-2.3292,2.2216-2.7308,2.3803-.4016.1586-3.1324.8728-3.6946,1.1107-.5623.2381-1.8473,1.4281-2.4899,1.9043-.6425.476-3.5106.9521-3.6428,1.1901-.1321.2381-1.4172,2.8564-1.8188,3.015s-2.008.1586-2.5702.476-.8835,1.7455-.8835,2.4596,1.2048,1.1107,1.2048,1.5868-.6426,1.8249-.3213,2.2216c.3213.3967,1.1245,1.2695,1.767,1.4281.6426.1587,2.2489-.3173,3.0521,0,.8032.3174,1.9629-.0125,2.5476.0334.5848.046,1.2541-1.3028,1.5218-1.4615.2678-.1586.589.9521,1.0709,1.1902.4819.238.9639,2.6976.4819,3.0943-.4819.3967-2.1685.238-2.6504,0-.482-.2381.1053.3967-1.1521.5554-1.2575.1587-3.0245-.3967-3.2654,0-.241.3967.5622,1.5869.5622,2.0629s-.8835,1.1107-1.2048,1.1902c-.3212.0793.0803,1.5868.4016,1.6661.3213.0793,2.1686.1587,2.5702,0,.4016-.1586,1.7117,1.5076.9362,2.0629-.7756.5554-1.8766,1.7455-2.2498,1.4281-.3731-.3174-.855-1.8249-1.2566-1.5868-.4016.238-.2409,1.8249-.2409,2.3802s.4016,1.7455,1.0441,1.9835c.6425.2381,1.3888,1.3488.4534,1.5869-.9353.2381-2.381,0-2.622,0s-.4016-2.0629-.7228-2.2216c-.3213-.1586-1.2851.2381-1.9277.476-.6425.2381-2.0882-.5554-2.6505-.6347-.5622-.0794-.7228-.8728-1.2851-.8728s-.7228,1.9042-.9638,2.4595c-.2409.5554-1.6063,1.0315-1.8473,1.2695-.2409.2381-.1606,1.7455-.4819,2.0629-.3213.3173-2.0883.238-2.5702.476-.4819.238-.8835,1.5075-1.3654,1.6662-.4819.1586-1.0441-.8728-1.4457-1.5869s-.8032-1.3488-.7228-1.9042c.0803-.5555,1.2047-.7141,1.6063-.8728.4016-.1587.9638,1.3488,1.6064,1.1107.6425-.238,1.8473-1.3488,2.0882-1.6662.241-.3173-1.0441-1.1107-.9638-1.5868s.9638-.7934.9638-1.2695-1.1244-.9521-1.0441-1.3488,1.526-.7141,1.767-1.1902c.2409-.476-1.0441-1.7455-1.0441-2.1422s.4819-1.1901-.241-1.5868-1.8473.714-2.3292.8728c-.4819.1586-1.2851-.2381-1.8473-.3967s-1.6064.7141-2.3292.476c-.7229-.2381-.7229-1.0314-.8835-1.3488-.1607-.3174,1.6063-1.4281,2.0079-1.9836.4016-.5554.3213-1.9042-.4016-1.9835-.7228-.0793-2.0882.3174-2.3292.3967s-.1606,2.3802-.4016,2.4595c-.2409.0794-.7229.5555-1.2851.7934-.5622.2381-.4016,1.9043-.7228,2.2216s-1.9277.476-2.3293.6348c-.4015.1586.1607,1.5868,0,1.9835-.1606.3967.8835.5554.6426,1.1108-.241.5554-.4016,1.9042.0803,1.9835s1.2851,1.0314,1.3654,1.5869c.0803.5554.5622,1.2695.0803,1.8249s-1.2851,1.2695-1.2851,1.8249.4016,2.3802.0804,2.7769c-.3213.3967-2.008,1.2695-2.7308,1.4281-.7229.1587-1.1245,2.2216-1.6064,2.6183s1.9276,1.0315,2.0883,1.4282c.1606.3966-1.0442,1.1901-1.5261,1.3488-.4819.1586-2.9717,1.1107-3.534.6347-.5622-.476-.4016-2.0629-1.0441-2.2216s-1.526-.6347-1.8473-1.2695c-.3213-.6347-1.8473-1.9835-2.4096-2.1422-.5622-.1586-1.526.2381-2.1685-.238-.6426-.476-.1607-2.3803-.5623-2.6183-.4015-.2381-1.2047.3967-1.526.1586-.3213-.238-.4016-.8728-.7229-1.5075-.3212-.6348-1.285-.9521-1.526-1.3488s1.3654-1.3488,1.3654-1.7455.3213-1.5869-.4016-1.9042c-.7228-.3174-1.2048,1.1107-1.6063,1.1107s-.9639-1.5868-1.3654-1.8249c-.4016-.2381-1.3655-.7934-1.0442-1.2695.3213-.476,1.8473-1.4281,1.6867-1.8249s-1.0927-1.9042-1.7511-2.0629c-.6584-.1586-.8994,1.5869-1.4616,1.5869s-2.8915.0793-3.3734,0-.9638-1.6662-1.4457-1.8249c-.4819-.1587-1.526.6347-2.0079.476-.4819-.1586-2.008-1.6662-2.6505-2.0629-.6426-.3967.3212-1.3488,0-1.7455-.3213-.3967-1.0442-1.008-2.0883-.742-1.0441.2659-.8032,1.7735-1.2851,1.8528-.4819.0793-2.6505.476-3.3733.476s-1.0442-1.9042-1.3654-1.9042-.7229.7933-1.2048,1.0314c-.4819.238-3.9891.2909-3.9891.2909"/>
      <path class="cls-1" d="m90.6385,171.5218s-1.8251-.8775-2.066-1.0875c-.241-.2101-.6426-1.4796-1.1245-1.5589s-.7229,1.7455-1.2048,2.2216c-.4819.476.4151,1.8249.5288,2.1422.1138.3174-.6684,1.2981.7668,1.4822"/>
      <path class="cls-1" d="m80.38,195.4549c.0803.7141-.1606,1.7455,0,2.2216.1607.476,1.6064.9521,1.6064,1.5075s-1.3179,1.9836-1.6629,2.0629c-.3451.0793-1.4695.1586-1.6301.476-.1607.3174.6425,2.4596.4015,2.6976-.2409.2381-2.0079.2381-2.3292.476-.3212.2381.7229,2.0629.7229,2.539s-1.0063,1.7455-.7843,2.2216c.2221.476,1.3465,1.1902,1.8284,1.2695s1.767-1.6662,2.1686-1.7455.8032.5148,1.2851.9714,1.1244.7741.6425,1.5675-.9638,2.1422-.4016,2.5389c.5623.3967,2.4899,1.2695,2.9718,1.3488.4819.0794,1.0576-1.1107,1.5729-1.0314.5154.0793,1.2382.1663,2.1217,1.0353.8835.8689.7587,2.6144,1.7448,2.6144s1.9499-.1586,2.9137,0c.9638.1587.8835-.714,1.526-.7933.6425-.0794,1.1245.4351,1.8473.8126.7229.3775,2.4899-.4159,3.0521-.4953.5622-.0793,1.767.6348,2.2489.9521.4819.3174-.1606,2.777,0,3.1738s1.526.476,2.1686.7933c.6425.3174,1.767.2381,2.1686,0,.4016-.238,0-1.5075.4819-1.6661.4819-.1587,1.9276.1586,2.3292-.2381.4016-.3967-.8835-2.2216,0-2.539.8835-.3173,1.767-.9521,2.0883-1.3488.3212-.3967.1606-1.6661.6425-1.9042.4819-.238.8032,0,1.6867.0793s.9638-1.3488,1.6063-1.4281c.6426-.0793.0353,1.1108,1.0216,1.1902.9864.0793,1.5486-1.2695,2.1911-1.2695s1.2851.476,2.2489.9521c.9639.476,1.6867,1.9835,1.1245,2.1422-.5622.1586-2.7308-.2381-2.8111.1586s.4819,1.0315.7228,1.4281c.241.3967,2.1686.476,2.6505.8728s2.0883.5555,3.1324.3174c1.0442-.238,2.0883-1.5075,2.5702-1.9835s.9638-1.5076,1.8473-1.5076,1.7403-.0793,2.2356.0793c.4952.1587-.308,1.2695.4149,1.4282.7229.1586,2.1686.714,2.7308,1.0314s1.8473.476,2.5702,0c.7228-.476.4016-2.3009.8835-2.4596.4819-.1586,1.767.2381,2.4095-.0793.6426-.3174.5622-1.5868,1.1245-1.5868s.9638,1.0314,1.9276,1.1107c.9638.0793,2.1686.2381,2.3292.7141.1606.476-.1606,1.6662.4819,1.6662s1.1245-1.1902,1.9276-1.0315c.8032.1587,1.2851.7934,2.2489.6348.9639-.1587,2.1686-.7934,2.6505-.9522.4819-.1586.5623-.9521,1.1245-.714.5622.238.4016,1.5075,1.2048,1.9042.8031.3967.4819,2.3009.8835,2.3803.4015.0793,1.0441-.8728,1.4457-.7141s1.3654,1.0314,1.767.7141c.4016-.3174,1.0441-2.3803,1.3654-3.015.3212-.6348-1.0442-1.9043-.7229-2.3803.3213-.476,1.2236-.7933,1.5355-1.4281.3118-.6347.3921-3.3323.5528-3.729.1606-.3967,1.1244-.3987,1.8473-.9135.7229-.5148,1.0441-.9908,1.2048-1.9429.1606-.9521-.8032-2.0628,0-2.3802.8031-.3174,2.5701-1.1902,2.9717-1.1108.4016.0794.4819,1.6662,1.2048,1.4282.7229-.2381,2.0079-.7934,2.5702-1.3488.5622-.5555,1.0441-2.301,1.1244-2.8564s.5622-2.0629,1.2851-2.3009c.7229-.2381.8835-1.5869,1.1245-2.1422.2409-.5554,1.526.0793,2.1685-.476.6426-.5554,1.2851-2.2216,1.2048-2.7769-.0803-.5554-2.0883-.1587-2.5702-.5554-.4819-.3967-.7228-1.825-1.3654-2.0629-.6425-.2381-1.8473-.2381-2.4095,0-.5622.238-.8835.6347-1.5261.476-.6425-.1586-.4819-2.0629-.4819-2.539s1.2048-.9521,1.2048-1.3488-1.2851-1.9042-.9638-2.3009,1.526-.1586,1.9276,0,1.1245,2.2216,1.5261,1.9835c.4016-.238.7228-1.0314,1.4457-1.1107.7228-.0793,1.2851,1.4281,2.4898,1.0314,1.2048-.3967,3.3734-1.0935,3.9356-.5071.5622.5864,1.5261.207,1.9276,0,.4016-.207,2.3293-1.3971,2.3293-1.3971"/>
      <path class="cls-1" d="m78.6762,201.936s-2.0711-.1836-2.3924,0,.5361,1.4453.3885,1.5682c-.1475.1229,1.1227.3195,1.1301,1.1734"/>
      <path class="cls-1" d="m77.1371,210.1525s-1.4958-.8128-1.6565-.4954c-.1606.3174.1607,1.3488,0,1.6662-.1606.3174-1.6063-.0793-1.9276.3967s.3213,1.3488,0,1.8249-.9638.714-.8835,1.3488c.0803.6347.5622,1.7455,1.0441,1.7455s1.3654-1.5076,1.6867-1.6662,1.305.1586,1.7368.2381c.4318.0793,1.9578,0,2.1988-.0794.241-.0793.6425,1.4282,0,1.5076s-2.1144-.0793-2.6636,0c-.5491.0793-1.7539.3174-1.9948,1.0314-.241.7141.4819,1.6662,0,1.8249-.4819.1587-1.7005.7141-2.0149.8728-.3144.1587-1.2782-.7934-1.7601-.5554s.241,1.2695.8032,1.5075c.5622.2381,1.6064-.3173,1.8473.3967.241.7141,1.0441,2.6976.8835,3.4117s-1.0441,1.1902-1.526,1.5075c-.4819.3174-.7229,1.4282-1.2048,1.4282s-1.767-1.1902-2.4095-1.1108c-.6426.0793-.8835-1.3488-1.2048-1.3488s-1.1245,1.3488-1.2048,1.9042c-.0803.5555.8835.1587,1.1245.5555.2409.3966,0,1.6661-.4016,2.0628s.2409,2.2216-.1607,2.6183c-.4015.3967-.8031-.7934-1.6063,0s-1.3654,2.2216-2.1686,2.2216-2.1686-.6347-2.4898-1.0314c-.3213-.3967-.1607-1.8249-.5623-1.8249s-1.6557.3158-1.6557.3158"/>
      <path class="cls-1" d="m251.4753,146.3646s1.3473,1.3265,1.5079,1.7232c.1606.3967-.0621,1.4281-.7539,1.6662s-2.7801,1.1107-2.9407,1.6662c-.1607.5554-.8835,3.4116-1.1245,3.729-.2409.3174,1.3654,1.1108,1.6867,1.5869s.4268.8728.7354,1.5075c.3087.6348.3339,2.6183,0,2.7769-.3338.1587-1.8599-.3967-2.1008,0-.241.3967-.7229,1.5076-1.0441,1.9043-.3213.3967.5622,1.4281.7228,1.9835s0,1.4281.4016,1.9042c.4016.4761.8835,1.3488,1.0441,1.9836.1607.6347-.1606,3.5704-.1606,4.2845s-1.0441,1.1107-1.1245,1.7455c-.0803.6347.241,2.3802-.2409,3.1737-.4819.7933-1.9276,1.8249-2.5702,2.3802-.6425.5554-1.9276.476-2.5702.5554-.6425.0793.4016,1.1902.4016,1.6662s.064,1.1526-.6105,1.5284-2.4415.3758-2.9234.4552c-.482.0793-.8835-.9522-1.2048-1.1108s-1.5261.2005-1.6867.6556c-.1606.4552.3213,1.9627,0,2.042s-1.4457,0-2.0079,0-1.1245.9521-2.0883,1.1902c-.9638.238-.8835,1.7455-1.0441,2.0628-.1607.3174-2.1686-.0793-2.6505,0-.4819.0794-.6426-1.4281-1.0442-1.3488-.4016.0794-.5622,1.4402-1.0441,1.4739s-1.4457.0337-1.6064.5097c-.1606.476.8032,2.7769,0,3.253-.8031.476.5623,1.0315,1.3655,1.0315s1.6866.3173,2.2489.6347c.5622.3174.5622,1.2695,1.285,1.2695s2.7308-.5554,3.0521-.3967-.6425,2.3009-.3213,2.8563c.3213.5555,1.4458.5555,2.008.7141s.4016,1.5869.8032,1.9042c.4016.3174,1.526.0793,1.8473.3967s-.3213,1.341-.241,1.7813c.0804.4403,1.3654.9163,1.2048,1.3924-.1606.476-1.2048,1.0315-1.3654,1.5869-.1606.5554.1606,1.0314.8835,1.5075s1.9276-.476,2.2489,0,.1606,2.3435.7229,2.4809c.5622.1374,1.3654-.4973,1.8473-.418s1.1244.1609,1.767.4375c.6425.2766,2.4656,2.8225,2.4656,2.8225"/>
      <path class="cls-1" d="m250.5201,138.1171s.2945,1.5604,1.178,1.6397c.8835.0794,1.1245-.767,1.6867-.8198.5622-.0529,1.2047.6716,1.6867.8251.4819.1534,1.4457-1.5393,1.7669-1.6451.3213-.1058,2.3084,0,2.3084,0"/>
      <path class="cls-1" d="m272.6472,142.6105s.3073,2.383,0,2.9384c-.3074.5555,1.058.8728.8974,1.2695-.1607.3967-2.1954,1.6134-2.1954,1.6134"/>
      <path class="cls-1" d="m274.08,158.1113s.7497-.1851.7497-.6612-.6694-2.9356-.3749-3.1737c.2945-.238,2.8647-1.5075,3.6679-2.0628.8032-.5555,1.6867-1.0315,2.1686-.7141.4819.3174.4819,1.7455,1.1244,1.7455s2.2489-.3967,2.9718-.3967,1.4457-1.0314,1.9276-.8728c.4819.1586.8835,1.6662,1.2851,1.9042.4016.2381,1.1244-1.0314,1.4457-1.0314s.5622,1.1107,1.6064.7934c1.0441-.3174,2.0079-1.0315,2.5702-1.1902.5622-.1586-.4016-1.7455,0-2.0629.4015-.3173,1.8473-.0793,2.1685-.3966s.8835-1.3753,1.4458-1.5604c.5622-.1851,1.3654,1.0843,1.8473,1.0843s2.6505-.7933,3.052-.714c.4016.0793.6426,1.2695,1.1245,1.6662.4819.3966-.8835,1.8249-.8835,2.3009s.5273,1.3488.9865,1.1901c.4592-.1586,1.9049-.6795,2.3065-.6968.4016-.0172.8835,1.4903,1.6064,1.887s.1606,2.0629.5622,2.2216c.4016.1587,1.767.8728,1.9276,1.2695.1607.3967-.8834,1.5869-1.1244,2.2216s-3.4804,1.7455-3.4804,1.7455"/>
      <path class="cls-1" d="m299.5676,137.9056s1.6866.2233,2.4095.1645c.7229-.0588,1.9276-2.2009,2.4899-2.3597.5622-.1586,2.0882.3967,2.7308,0,.6425-.3967,2.7308,1.6662,3.293,1.5869s2.4899-1.847,2.8111-1.6376c.3213.2094,3.534-.3232,4.2569-.0173.7228.306,1.3654-1.2015,1.6866-1.6776.3213-.476-.4015-1.4281,0-1.9835.4016-.5554,3.0521-2.6183,3.6144-3.015.5622-.3967.9638-1.5075,1.2047-1.7455.241-.238-.3212-1.4281,0-1.7455.3213-.3174.9638-.5554,1.4457-.3967.482.1587.9639,1.3488,1.5261,1.2695s3.0521-1.9835,3.8552-2.3802c.8032-.3967,3.1324-1.2695,3.9356-1.5076.8032-.238,1.2048-1.5868,2.0883-1.7455.8835-.1586,2.1686-.0793,2.5702,0,.4015.0794,1.2047-1.7454,1.6063-1.7454s2.1686-.3174,2.8915,0c.7228.3173-.4819,1.7454,0,2.1421s-1.2048,1.1108-1.0442,1.6662c.1607.5554.7229,2.6183.8835,3.0943.1607.476,1.8473.7141,2.0883.9521.2409.2381-1.1245,2.4596-1.3654,2.777-.241.3173-2.4096-.0794-2.7308,0-.3213.0793-2.1686-.2381-2.4096.5554-.2409.7934-.4015,1.9835-.8031,2.4595s-1.2851.5555-2.0883.7141-1.3654,1.5075-1.767,1.7455c-.4016.238-1.6867-.3967-2.1686,0-.4819.3967-.4016,1.5868-.6425,2.3009-.241.7141-1.6867.4546-2.1686.7033-.4819.2487-1.767.9629-2.3292,1.5182-.5623.5554.2409,1.9836-.0803,2.3802-.3213.3967-1.4458.6293-2.008.632s-1.6063,2.6447-2.0883,2.9106c-.4819.2658-.2409,2.3448,0,2.8921.241.5474.1087,2.0549-.5078,2.2929-.6166.2381-2.4639,1.1902-2.5442.8728-.0804-.3174-.241-1.9042-.4819-1.7455-.241.1587-1.2851,3.015-1.767,3.3324-.4819.3173-2.008,1.5075-2.1686,1.9042-.1607.3967,1.1244,1.2695,1.526,1.6662.4016.3967.7229,1.7455.241,2.1422-.4819.3966-1.6867.3966-1.9277.714-.2409.3174-.6425,2.9357-.8031,3.015-.1607.0793.7228.7934.6425,1.2695-.0803.476-1.8473.6347-1.9276,1.2695-.0803.6347,0,2.7769-.0803,3.4911-.0804.714.7228.8728.7228,1.4281s-.8032,3.8084-.4016,4.5225c.4016.7141,4.1709,1.2121,4.1709,1.2121"/>
      <path class="cls-1" d="m332.2639,154.5228s-1.2118.405-1.5331,0c-.3213-.405-.4819-2.2299-.8032-2.2299s-1.4457.476-1.767.6347c-.3212.1586-.7228,1.9836-1.1244,2.1422s-2.2489-.6347-2.4899-.7934c-.2409-.1586-2.8914.5972-3.3733.8143-.4819.2171,0,1.804,0,2.0421s-.8835,1.7455-1.4457,1.9835c-.5623.2381-2.1686-.238-2.1686-.238"/>
      <path class="cls-1" d="m303.1606,168.9322s1.0654,1.7681,1.226,2.1648c.1607.3967-.9851,2.539-.613,2.9357s1.4162.238,1.7375.5554,1.2851.8373,1.767,1.2121c.4819.3748.9638-.4186,1.526-.8947s-.4016-1.7455,0-2.1422,1.3654-1.3488,1.6064-1.5076c.2409-.1586-.241-1.4281,0-1.5075.2409-.0793,1.2851,1.6662,1.6063,1.6662s2.0202-.343,2.0202-.343"/>
      <path class="cls-1" d="m305.2434,181.5436s-.5355-1.8778-.5355-2.4332.8835-.9521,1.0441-1.5868c.1607-.6348-.2409-2.9357-.2409-2.9357"/>
      <path class="cls-1" d="m337.288,133.1862s-.5333,2.2863-.3727,2.7623,1.1895,1.8509,1.1895,1.8509"/>
      <path class="cls-1" d="m196.055,176.0121s2.7136.6388,3.4365.4008c.7228-.238,1.2851-.9521,1.526-1.1902.241-.238.4016-1.5868.8835-1.5868s.8835.6347,1.2048.7934c.3212.1586-.1607,1.8517.3212,2.0366.482.1849,1.9277-.5292,2.4096-.4499s1.526,3.015,2.0882,3.0943c.5623.0793,1.2048-1.2695,1.6867-1.3488s.9638-1.9835,1.3654-2.0629c.4016-.0793,1.5261.0794,2.008.1587s.1606,1.8249.6425,1.9835c.4819.1587,2.1686-.1586,2.7308-.3173.5623-.1587,1.5261-1.9836,2.008-2.1422.4819-.1587,2.8111-.1587,3.293-.3967.4819-.2381,1.2048-.7141,1.3654-1.3488.1606-.6348.1606-2.3009.4819-2.3803.3213-.0793,3.3734.8728,3.8553.9522.4819.0793.4016,1.5075.7228,1.9835.3213.476,2.0883.2381,2.2489.476.1607.2381.7229,2.3803,1.1245,2.4596s1.9276-.7141,2.4898-.9521c.5623-.2381-.0803-2.301.482-2.3803.5622-.0793,2.3292.3174,3.052.2381.7229-.0793,2.4899-1.1902,2.5702-1.5869s-.4016-3.4117,0-4.0464,1.6064-1.5869,2.1686-1.9042c.5622-.3174.2409-1.9043.8032-2.2216.5622-.3174,1.767.6347,2.1686.476.4015-.1587,2.4011-.9479,2.4011-.9479"/>
      <path class="cls-1" d="m194.0855,182.0297s1.6654,2.4759,1.9695,2.7933,1.4285.7141,1.8301.7934.8835,1.4281,1.2851,1.7455c.4016.3174-.4819,1.4281,0,1.6662.4819.238,2.3292-.7141,2.8111-.5555.4819.1587-.3212,1.5076-.4819,1.9836-.1606.476.7861,1.9042.634,2.2216-.1521.3173,1.133.3967,1.2936.7934.1607.3966-.6425,1.2694-.4015,1.6661.2409.3967,2.2489,1.9836,2.4898,2.0629.241.0793,1.5261.2381,1.767.476s-.8835,1.7455-1.3654,2.1422-2.7308,1.3488-3.2127,1.6662c-.4819.3173.4016,1.8964.6425,2.0193.241.1229,1.6064-.0358,2.008.361s.8032,1.8249,1.2851,1.9835c.4819.1587,1.1268-1.0314,2.2099-1.1107s1.0831-1.1979,1.7256-1.2337c.6426-.0358,2.2489.599,3.2128.599s2.2489-.4838,2.4898-.599c.241-.1151.8835,2.4239.8835,2.8999s-1.8473.714-1.767,1.3488c.0803.6347,1.6064,1.1901,1.767,1.5868s1.6064-.238,2.008,0c.4015.2381,1.0441-1.9835,1.4457-1.9835s1.2851,1.2695,1.9276,1.5075c.6425.2381,2.2419-.6347,2.647-.6347s.646,1.6662.9673,1.5868c.3213-.0793,1.8473-.476,2.3292-1.0314.4819-.5554,0-2.3009,0-3.0943s.8835-1.6739.4819-2.1858c-.4016-.5118-1.767-.392-1.6063-.928.1606-.5359.8032-1.5673,1.2047-1.5673s1.1245,1.2306,1.5261,1.5673c.4016.3369,1.6063.1782,2.0079.4955.4016.3174.3213,1.6662,1.2048,1.7455s4.2118,1.3257,4.2118,1.3257"/>
      <path class="cls-1" d="m203.3467,203.5042s.6426,1.6304,0,2.0272c-.6425.3967-1.6866-.1587-2.1686,0-.4819.1586-1.6063,2.0628-2.0079,2.2216-.4016.1586-1.6064.0793-2.1686.9521s-.2409,1.4707,0,1.7668c.241.2962,1.2048,1.4767.8835,1.8385-.3213.3618-1.9276,1.79-2.4095,2.3453-.4819.5555-1.1737,1.1108-1.3901,1.7455-.2163.6348.8278,1.9836.5066,2.4596-.3213.476-1.2851.9521-1.767,1.2695-.4819.3173-.7229,1.8249-1.2851,2.1422-.5622.3173-2.6505-.5555-3.2127-.7141s-1.8473-.476-2.1686-.0793-.4819,1.6661-.7229,2.0628c-.2409.3967-1.2047.0794-1.526.6348s-.0803,2.0628-.4819,2.0628-1.2048-.3966-1.4457,0c-.241.3967.1606,2.4596,0,2.9357-.1607.476-.4016,1.7455-.4819,2.3802-.0804.6348,1.3654,1.0315,1.526,1.3489.1606.3173-.0803,1.3488-.4016,1.9835s.1606,1.8249.6426,1.9042c.4819.0793,1.6063-.0793,2.3292,0,.7228.0793,1.526.6348,1.767.9521.2409.3174-1.0442,2.6977-1.6064,2.9357-.5622.2381-1.4665-1.5075-1.416-1.7455.0506-.238-.4313-.3967-1.2345-.6347-.8032-.2381-1.5325,1.0314-1.6096.8728-.0771-.1587-.2377-1.8249-.559-2.0629-.3212-.2381-2.2489-.5554-2.7308-.7934-.4819-.238-1.4457-1.1901-1.9276-.9521-.4819.2381-1.0441,2.3802-1.2851,2.7769-.2409.3967,1.5261.9521,2.008,1.1108.4819.1586.7228,1.5075.7228,2.1422s-.3213,2.1421,0,2.4595,1.767,1.1108,2.1686,1.2695-.241,2.539-.241,3.1737,1.4458,2.0629,1.4458,2.539-1.0442,1.7455-1.4458,1.9835c-.4015.2381-.4015,1.5869-.8834,1.9043-.482.3173-1.5261.0793-2.0883.476-.5622.3967-.1606,1.8249-.4819,2.3009s-1.3654,1.9042-1.8473,2.1422c-.4819.238-1.6867.1586-2.2489.476-.5623.3174.4016,2.0629,0,2.3802-.4016.3174-1.2048,1.0315-1.6064,1.2695-.4016.2381-.4016,3.4911,0,3.5704s2.0883.2381,2.6505,0c.5622-.238.9638-1.7455,1.6867-2.0628.7228-.3174,3.3733-1.2695,4.0962-1.5869.7228-.3174,1.6867,1.1107,2.4095.6347.7229-.476,1.3654-1.9835,1.6867-2.3009s-.4016-1.1902-.4016-1.9042-1.3654-1.5076-.7229-1.9836c.6426-.476,2.0675-2.1421,2.4393-2.0628.3719.0793.4522,2.1422.6931,2.4595.241.3174.4016,2.777,1.1245,2.777s1.8473-.4761,2.4095-.6348c.5623-.1586-.1606-1.9835.0804-2.1422.2409-.1586,1.526,1.0315,2.1685.9521.6426-.0793,1.2851-1.9042,1.6867-2.3802.4016-.476-1.2851-1.3488-.9638-1.6662.3213-.3173,1.0441-1.9835,1.526-2.1422.4819-.1586,2.1686.2381,2.7308.0794.5623-.1587.5623-2.301.8835-2.4596.3213-.1586-1.3654-.8728-1.3654-.8728,0,0,.241-1.0314.9639-1.1107.7228-.0794,2.2489.1586,2.8914.1586s.3213,1.6662.8835,2.3009c.5622.6348,1.0441-.6347,1.8473-.0793.8032.5554,1.3743,2.1422,1.7313,2.3009.357.1587,2.9271-.3174,3.8106-.3174s1.3654-2.6182,1.6064-2.9356,1.4457-.9521,2.0883-1.0314c.6425-.0794,2.6701-1.1721,2.6701-1.1721"/>
      <path class="cls-1" d="m170.4967,267.3386c-.8032,0-2.0883-.714-2.5702-.9521s-1.6866.8862-2.2489,1.0778c-.5622.1916-1.2047-.8398-1.526-1.4746-.3213-.6347.6425-2.4595.5622-2.8563s-1.526-1.4282-2.0882-1.6662c-.5623-.2381-1.2048-.0793-1.6064,0-.4016.0793.4016-1.5869,0-2.1422-.4016-.5554-1.9276-2.9357-2.4095-3.0943s-1.6867.3967-2.3293.3967-1.1244-1.9042-1.4457-1.9835c-.3213-.0794-1.767.1586-2.4095,0-.6426-.1587-1.5261-.6348-1.5261-1.4282s.1607-2.0628,0-2.8563c-.1606-.7934-.8835-.8728-.7228-1.7455.1606-.8728,1.1244-1.7455,1.2047-2.539.0804-.7934-1.9276-2.7769-2.5701-3.015-.6426-.238-1.3654,1.0315-2.008,1.2695-.6425.2381-2.2489.0793-2.7308.1587-.4819.0793-1.4457-1.4873-1.9276-1.4578s-.5622,2.0925-1.1245,2.1718c-.5622.0793-2.1685-.476-3.052-.7934-.8835-.3173-1.1245-1.7454-1.3654-2.1421-.241-.3967-1.0442-1.9836-1.6867-2.0629-.6426-.0793-3.2127.3967-3.6143,0-.4016-.3967-1.2851-1.9042-1.5261-1.8249-.2409.0793-.6425.7934-.4016,1.3488.241.5554,1.0442,1.6662.7229,2.0629-.3213.3966-.0803,2.8563-.2409,3.253-.1607.3967-1.6064.3174-2.1686.6347-.5623.3174.2409,1.8249.4016,2.1422.1606.3174-1.0442.5554-1.6064.7934-.5622.238-.8032-1.9836-1.4457-2.2216-.6426-.2381-.8835,1.3488-1.4457,1.9835-.5623.6348-2.2489,1.5869-1.9277,2.2216.3213.6348,2.0883,1.6662,2.2489,1.9043.1607.238-.6425,1.5075-.8031,2.1422-.1607.6347-.241,1.6661-.241,2.3009s-1.6064-.0793-2.2489.0793-.7229,1.2695-1.0441,1.8249c-.3213.5554.5622,1.4281,0,1.5869-.5623.1586-2.8112-1.825-3.3734-1.6662-.5622.1586-1.2048,1.4281-1.6867,1.9042-.4819.476-.3212,2.1422-.8835,2.3009-.5622.1587-1.6866-.7933-2.0882-.476-.4016.3174-.6426,2.777-1.2048,3.1737-.5622.3967-.8032,1.5869-.9638,2.3803-.1606.7934-1.3654,1.1107-1.767.9521-.4016-.1586-1.2851-1.1902-1.6064-.9521-.3212.238-1.1244,1.7455-1.6866,1.9042-.5623.1586-1.4458.2381-1.6867.7141-.241.476,1.8473,2.1422,1.6867,2.3802-.1607.2381-1.767.0793-2.3293,0-.5622-.0793-3.5339.6347-3.9355.476s-1.6867-2.2216-2.5702-2.3802c-.8835-.1587-1.0441,2.1091-1.4457,2.4033s.5622,1.7224.5622,2.2778.241,1.6662-.1606,1.9836-2.4096-.8728-3.1324-.6348c-.7229.2381-1.2851.2671-1.6867.689-.4016.4218-.1606,1.5325-.6426,1.612-.4819.0793-1.526-.2381-1.7669-.3967-.241-.1587-.241-1.7455-.8835-1.7455s-2.0883,1.9293-2.4096,2.1547c-.3213.2255.5622,1.6537,0,1.733-.5622.0794-1.3654-.7933-1.9276-.5554-.5622.2381-1.2048,1.8249-1.6867,1.8249s-.8032-1.1901-1.2851-.8728c-.4819.3174-2.2489,1.7455-2.8111,1.7455s.241,1.9836,0,2.6183c-.241.6348.8835,1.0315,1.2851.9521.4016-.0793,1.0441.3174,1.2851.6348.2409.3174-1.2048,1.4281-1.4457,1.9042-.241.476.3212,2.3802,0,3.015-.3213.6347-1.4458,1.8249-1.9277,2.2216-.4819.3967-1.0441.8728-1.8473.7934-.8032-.0793-2.0079.4142-2.4898.0087-.482-.4054-.9639-2.7063-1.4458-2.7857-.4819-.0793-.9906,1.4282-.9906,1.4282"/>
      <path class="cls-1" d="m73.1588,295.5061s-.2336-1.1119,0-1.6673c.2336-.5554.6887-1.4281,1.4651-1.7455s1.3925,2.0341,1.3925,2.0341c0,0-.3751,2.9644-.4019,3.5992-.0268.6347,1.1512.9521.9906,1.5075s-1.5261.0793-1.367.5554c.159.476-.1591,1.8249-.0252,2.6183s.83,1.2695.589,1.6662c-.2409.3967-1.178,1.2977-1.178,1.2977"/>
      <path class="cls-1" d="m119.5752,260.4359s.9638.8728,1.285,1.5075c.3213.6347-1.3921,1.5075-1.2984,1.9835.0937.4761,1.1379,1.1108,1.3386,1.5076.2008.3967-.6366.8728-1.3423,1.2695-.7058.3967-1.1877,3.3323-1.268,3.8878-.0803.5554,1.9079.238,2.6406.5554.7327.3173-.7398,1.1107-1.3689,1.5075-.6292.3967-1.9946.7934-2.2355,1.5076-.241.714.2409,2.0628,0,3.0149-.241.9522.8835,1.0315,1.1244,1.9043.241.8728-.8032,2.6183-.8032,3.253s1.7267,1.5869,1.5461,2.1422c-.1807.5554-2.0868,2.3802-1.9369,2.6976s1.9485.9521,1.9327,1.1902c-.0158.238-.2568,3.7495-.6584,3.6996s-3.9355-.1089-4.5781,0c-.6425.1088-1.6867,1.8543-1.9276,2.4891-.241.6347,1.2047,1.4281,1.4457,1.9042s-.9375.1586-1.4727.476-1.0172,3.1737-.7762,3.5704,1.9276,1.1107,2.3292,1.5869c.4016.476.5622,3.2302.1607,3.2812-.4016.0511-1.493-.425-2.5537-.663-1.0606-.238-1.2213-1.1107-1.7835-.7933-.5622.3173-.1606,1.9042,0,2.6976.1606.7934-.4016,1.7455-.6426,2.0628-.2409.3174-.8834,2.1422-.8031,2.6183s1.9276,1.0315,2.5701,1.2695c.6426.2381-.0803,1.5869-.3212,2.3009-.241.7141.3212.7934.5622,1.4282.2409.6347.7229,1.6661,1.6867,1.9042.9638.238,1.9276.0793,2.8111.3967.8835.3173,1.767,1.1107,2.0079,1.3488.241.238-.9638,1.1901-.7228,1.6662.2409.476,1.3654,1.9042,1.767,1.9835s2.468-.5554,2.8404-.7141c.3723-.1586-.1096-1.7455.3723-1.9042s.6425-1.1107,1.2851-1.2695c.6425-.1586,1.4457-.476,2.0079-.3173.5623.1586-.1606,1.9835,0,2.1421.1607.1587,1.2048-.3173,1.6064,0,.4016.3174-.5622,1.2832-.4016,2.0697.1606.7866.7229.0725,1.4457.3899.7229.3174,1.5261,1.0314,2.3292,1.1902.8032.1586.8835,1.5868.8032,2.3009-.0803.714.6426,1.4281,1.3654,1.5868.7229.1587-.0803,1.2695,0,2.1422s-1.1244.3967-1.2851.8728c-.1606.476.1607,1.9836-.1606,2.3009-.3213.3174-1.8473-.3173-2.2489,0-.4016.3174-.1606,1.3488-.241,1.9043-.0803.5554,1.6064,1.9042,2.2489,1.7455.6426-.1587,1.5722-2.539,1.9909-3.0943.4187-.5555,1.0612-2.2216,1.6234-2.6183.5623-.3967.8032-1.0315,1.4458-1.1902.6425-.1586,1.0441,1.1902,2.1686,1.3488,1.1244.1586,2.3292,0,3.293,0s.3213-1.7455,1.0441-1.8249c.7229-.0793,1.5261.3174,2.1686.0793.6425-.238.0803-2.539.8032-2.7769.7228-.2381,2.0079-.3967,2.6505-.0793.6425.3173.5622,1.7455,1.0441,1.8249s1.767-.0793,2.008-.3174.4015-1.2695.6425-1.6662c.2409-.3967,1.8975-2.0893,1.8975-2.0893"/>
      <path class="cls-1" d="m112.9891,314.309c.7438-.3569,1.6064-.7141,2.1686,0s1.4457,2.0629,1.8473,2.1422-1.9141,1.3691-1.2776,2.3665c.6366.9973-.0196,2.156-.6963,2.2353-.6766.0793-.9703-1.0381-1.1309-.5621-.1606.476-.2686,1.5142-.9111,1.6729-.6425.1586-2.008.1586-2.5702,0-.5622-.1587.241-1.5869.4819-1.8249s-.2309-1.2695-.6777-1.5076c-.4467-.238-2.5488-2.3009-2.3009-2.6183.2478-.3173,1.7159-.0607,2.4677-.4667.7519-.4061,1.5158.308,2.0977.07.5818-.2381-.0238-1.2555.5015-1.5076Z"/>
      <path class="cls-1" d="m82.9234,335.4668s.9906-.6876,1.5528-.6083c.5623.0794,1.2851,1.9836,1.767,2.4596.4819.476,1.9277-.5554,2.3293,0,.4015.5554.8835,1.5869,1.3654,1.9835.4819.3967-.4016,1.825,0,2.301.4015.476,1.767,1.9042,2.4898,2.6976.7229.7934,1.767.6347,2.1686.9521s.8032,1.4281,1.2851,1.8249,1.9276.0793,2.4095,0,1.4457,1.4281,1.9277,1.6662c.4819.238,1.285.714,2.2489.7934.9638.0793,1.6063.3966,2.0882,1.0314.4819.6347.8835.9521,2.4899.7934,1.6063-.1587,2.2489-.5555,2.6505-.7141s.0803-1.7455.4016-1.9835c.3212-.2381.5622,1.1107,1.6866,1.1107s1.2048,0,2.1686-.0793.8835-1.3488,1.1245-1.4281c.2409-.0793.8835,1.5075,1.3654,1.3488.4819-.1587-.2271-1.7455.6093-2.1422s1.5592-.0793,2.2018-.3967c.6425-.3174,1.9276-2.1422,2.1686-2.2216.2409-.0793-.4819-1.3941-.8032-1.7285-.3213-.3344-2.008-.0622-2.7308,0-.7229.0623,1.2851-1.5244,1.6867-1.8418.4016-.3174,0-1.7455-.241-2.3009-.2409-.5554-1.3654-1.0315-1.0441-1.6662.3212-.6347,1.2851-1.3488,1.526-1.5869.241-.238.7229,1.1902,1.2851.8728.5622-.3173.241-2.2216.7229-2.5389.4819-.3174,1.3654-.1587,2.2489,0,.8835.1586.9638,1.8249,1.3654,1.9835s2.5725-.6392,2.5725-.6392"/>
      <path class="cls-1" d="m102.4675,349.5369s.0803,2.0628,0,2.3009c-.0804.238-2.1686.3967-2.3293.6347-.1606.2381.116,1.1108,1.1825,1.2695,1.0664.1586,2.0302,0,2.3515,0s.9638,1.3488,1.2048,1.6662c.2409.3174-.9638.9521-.9638,1.2695s2.0882-.1587,2.5701,0c.482.1586,1.7931,1.9835,1.4186,2.6183-.3744.6347-1.7398.6347-1.9005,1.1107-.1606.476.6426.7141,1.2048.8728.5622.1586,1.6064-.0793,1.8473.9521.241,1.0315.4819,3.015,0,3.4117s-.7771.3967-1.1516.714c-.3744.3174-.1335,3.3324.3484,3.8085.4819.476,1.6064,0,2.0883,0s.5622-1.6662,1.3654-1.9042c.8032-.2381,2.4095,1.1107,2.8915,1.3488.4819.238.1606,2.3009,0,2.6976-.1607.3967-1.1245.1586-1.3655.8728-.2409.714.241,2.2584.4016,3.192.1607.9337-.7832,1.2618-1.1546,1.8118s.5121,1.7248,1.235,1.8118c.7228.087,1.2047-1.0237,1.6063-.8651.4016.1587,1.5261,1.5076,1.2851,2.0629s-1.526,2.4596-2.1686,3.1737c-.6425.7141-1.747.3967-1.9578.8728-.2108.476-.8533,1.9836-.773,2.3009.0803.3174,1.9276,1.4281,2.0883,2.0629.1606.6347-.8032,2.1422-1.0442,2.539-.2409.3967-.8835,0-1.1244.476-.241.476.7229,2.2216.6425,2.8563-.0803.6348-1.2114,1.8446-1.2114,1.8446"/>
      <path class="cls-1" d="m160.457,220.0509s0,1.5075-.4819,1.7454c-.4819.2381-2.0883.2381-2.4096.5555s.3213,1.9835,0,2.6183c-.3212.6347,1.1121.8728,1.3994,1.1901.2873.3174-1.1584,2.9357-1.0781,3.3324s1.1244.5554,1.526.8728c.4016.3173-.5746,2.8563-.4479,3.3323.1267.476-1.8813-.5554-2.1222,0-.241.5555-.241,1.1929-.4016,1.7866-.1607.5937,1.1244.673,2.0079.9904.8835.3173.3879,1.6661-.0068,2.2216-.3948.5554-.957,1.8249-.4751,2.3009.4819.476,1.2851.714,1.9276,1.3488.6426.6347.4016,1.8249.9639,1.9835.5622.1587,1.767.2381,1.8473.7934.0803.5554-.7229,2.3802-1.1245,2.6976s-1.1325-1.8249-2.012-1.6662c-.8794.1587-1.6023.7141-2.3251,1.1902-.7229.476-2.1686,1.5075-2.4096,2.0629-.2409.5554.4016,1.5868.8835,2.1422.4819.5554-.8835,3.0943-.8835,3.0943"/>
    </g>
  </g>
  <g>
    <path class="cls-3" d="m67.9604,225.4858c0-4.3006-3.5292-7.7869-7.8828-7.7869s-7.8827,3.4863-7.8827,7.7869c0,1.6551.5266,3.1867,1.4178,4.4483h0l6.465,10.476,6.4649-10.4758c.8913-1.2617,1.4179-2.7933,1.4179-4.4485Z"/>
    <ellipse class="cls-2" cx="60.0776" cy="225.4859" rx="4.1916" ry="4.1407"/>
  </g>
  <g>
    <path class="cls-3" d="m87.5656,237.6547c0-4.3006-3.5292-7.7869-7.8828-7.7869s-7.8827,3.4863-7.8827,7.7869c0,1.6551.5266,3.1867,1.4178,4.4483h0l6.465,10.476,6.4649-10.4758c.8913-1.2617,1.4179-2.7933,1.4179-4.4485Z"/>
    <ellipse class="cls-2" cx="79.6828" cy="237.6548" rx="4.1916" ry="4.1407"/>
  </g>
  <g>
    <path class="cls-3" d="m126.2584,107.1001c0-4.3006-3.5292-7.7869-7.8828-7.7869s-7.8827,3.4863-7.8827,7.7869c0,1.6551.5266,3.1867,1.4178,4.4483h0l6.465,10.476,6.4649-10.4758c.8913-1.2617,1.4179-2.7933,1.4179-4.4485Z"/>
    <ellipse class="cls-2" cx="118.3756" cy="107.1002" rx="4.1916" ry="4.1407"/>
  </g>
  <g>
    <path class="cls-3" d="m160.9203,318.7142c0-4.3006-3.5292-7.7869-7.8828-7.7869s-7.8827,3.4863-7.8827,7.7869c0,1.6551.5266,3.1867,1.4178,4.4483h0l6.465,10.476,6.4649-10.4758c.8913-1.2617,1.4179-2.7933,1.4179-4.4485Z"/>
    <ellipse class="cls-2" cx="153.0375" cy="318.7143" rx="4.1916" ry="4.1407"/>
  </g>
  <g>
    <path class="cls-3" d="m143.757,251.8951c0-4.3006-3.5292-7.7869-7.8828-7.7869s-7.8827,3.4863-7.8827,7.7869c0,1.6551.5266,3.1867,1.4178,4.4483h0l6.465,10.476,6.4649-10.4758c.8913-1.2617,1.4179-2.7933,1.4179-4.4485Z"/>
    <ellipse class="cls-2" cx="135.8742" cy="251.8952" rx="4.1916" ry="4.1407"/>
  </g>
  <g>
    <path class="cls-3" d="m123.575,318.7142c0-4.3006-3.5292-7.7869-7.8828-7.7869s-7.8827,3.4863-7.8827,7.7869c0,1.6551.5266,3.1867,1.4178,4.4483h0l6.465,10.476,6.4649-10.4758c.8913-1.2617,1.4179-2.7933,1.4179-4.4485Z"/>
    <ellipse class="cls-2" cx="115.6922" cy="318.7143" rx="4.1916" ry="4.1407"/>
  </g>
  <g>
    <path class="cls-3" d="m88.8204,206.0148c0-4.3006-3.5292-7.7869-7.8828-7.7869s-7.8827,3.4863-7.8827,7.7869c0,1.6551.5266,3.1867,1.4178,4.4483h0l6.465,10.476,6.4649-10.4758c.8913-1.2617,1.4179-2.7933,1.4179-4.4485Z"/>
    <ellipse class="cls-2" cx="80.9376" cy="206.0149" rx="4.1916" ry="4.1407"/>
  </g>
</svg>