<?xml version="1.0" encoding="UTF-8"?>
<svg xmlns="http://www.w3.org/2000/svg" version="1.1" viewBox="0 0 113 113">
  <defs>
    <style>
      .cls-1 {
        fill: #faefe3;
      }

      .cls-1, .cls-2 {
        fill-rule: evenodd;
      }

      .cls-2 {
        fill: #623c17;
      }

      .cls-3 {
        fill: #774d2a;
      }
    </style>
  </defs>
  <!-- Generator: Adobe Illustrator 28.6.0, SVG Export Plug-In . SVG Version: 1.2.0 Build 709)  -->
  <g>
    <g id="Layer_1">
      <g>
        <path class="cls-2" d="M111.63,56.5c0,16.95-7.65,32.11-19.68,42.22-.04.04-.09.07-.13.11-4.31,3.6-9.18,6.56-14.47,8.72-.85.35-1.72.68-2.6.98-5.71,2.01-11.85,3.1-18.25,3.1-4.43,0-8.75-.52-12.88-1.52-.9-.21-1.78-.44-2.66-.7-.73-.22-1.46-.44-2.17-.69-.84-.28-1.67-.58-2.48-.9C15.85,99.76,1.37,79.82,1.37,56.5c0-9.42,2.36-18.29,6.53-26.05.05-.09.09-.17.14-.26C17.38,13.02,35.58,1.37,56.5,1.37c2.44,0,4.84.16,7.2.47.59.07,1.17.16,1.75.26,7.25,1.18,14.02,3.77,20.02,7.49.49.3.97.61,1.44.93,4.83,3.19,9.13,7.13,12.73,11.65.5.64,1,1.28,1.47,1.94,6.62,9.09,10.52,20.29,10.52,32.39Z"/>
        <g>
          <path class="cls-3" d="M66.23,6.12c0,.62-.25,1.09-.75,1.43s-1.12.51-1.84.51c-.25,0-.47-.03-.63-.05-.24.5-.56.92-.94,1.29l-.2-.16c.14-.12.3-.28.48-.52.17-.23.3-.45.41-.64-.41-.11-.74-.27-.94-.49-.22-.22-.33-.47-.33-.75s.08-.49.25-.63c.16-.15.38-.24.65-.24s.49.1.65.28c.17.18.26.43.26.72s-.06.61-.19.91c.19.02.35.03.49.03.37,0,.67-.1.92-.28.24-.19.37-.42.37-.72,0-.28-.11-.51-.35-.69-.24-.18-.52-.32-.85-.43-.34-.11-.68-.22-1.01-.33-.33-.12-.61-.3-.85-.53-.22-.23-.34-.53-.34-.93s.19-.71.58-.97c.39-.27.94-.42,1.63-.43v-.66c.59.07,1.17.16,1.75.26v1c-.54-.23-1.06-.35-1.54-.35s-.81.06-.99.16c-.18.12-.28.25-.28.4,0,.16.09.29.28.41.18.12.4.21.66.28.27.09.55.18.86.3.31.11.6.23.86.36.27.14.49.33.67.59.17.25.26.55.26.87Z"/>
          <path class="cls-3" d="M71.37,73.25v1.15c-.38-.16-.72-.24-1.05-.24s-.55.04-.67.11c-.13.08-.19.17-.19.27,0,.11.06.2.18.28.13.08.28.14.46.19.18.05.37.12.58.2.21.08.4.16.59.25.18.09.33.22.45.4.12.17.18.37.18.59,0,.42-.17.74-.51.97-.34.23-.76.35-1.25.35-.18,0-.32-.02-.43-.04-.17.34-.38.63-.64.88l-.13-.11c.09-.08.2-.2.32-.35.12-.16.21-.31.28-.44-.28-.07-.5-.18-.65-.33-.14-.15-.22-.32-.22-.51s.06-.33.17-.43c.12-.11.26-.16.44-.16s.33.07.45.19c.12.12.18.29.18.49s-.04.4-.13.62c.13.01.24.02.33.02.25,0,.46-.07.63-.19.16-.13.25-.29.25-.49s-.08-.35-.24-.47c-.16-.12-.35-.22-.58-.29-.23-.08-.46-.15-.68-.23-.23-.08-.42-.2-.58-.36-.16-.16-.24-.37-.24-.63s.14-.48.4-.66c.27-.18.64-.28,1.11-.29v-.74h-2.06v-.17h2.37v-.03c-.24-.07-.45-.2-.61-.39-.17-.19-.25-.41-.25-.67s.1-.49.3-.67c.2-.19.46-.28.77-.28s.57.09.78.27c.21.18.31.41.31.71l-.02.15h-.17s0-.06,0-.09c0-.2-.05-.35-.15-.46-.11-.1-.24-.15-.41-.15s-.31.05-.42.17-.16.27-.16.48c0,.29.11.52.32.7.22.17.5.26.86.26h.73v.17h-1.01Z"/>
          <path class="cls-3" d="M13.58,30.45h-2.25c.69.21,1.05.65,1.05,1.3,0,.8-.56,1.27-1.69,1.43v.06c.61.06,1.11.26,1.5.59.39.33.6.77.6,1.3,0,.77-.3,1.36-.88,1.77-.58.4-1.3.61-2.16.61s-1.48-.16-1.89-.49c-.42-.33-.62-.8-.62-1.39,0-.34.09-.63.29-.84.19-.22.44-.33.74-.33s.53.08.7.25c.17.17.27.37.27.61s-.06.42-.21.56c-.12.14-.26.23-.42.27-.42.11-.62.26-.62.45s.11.33.34.44c.25.11.52.15.85.15.54,0,.96-.17,1.26-.53.3-.36.44-.84.44-1.45.02-.63-.16-1.08-.5-1.38-.34-.29-.81-.45-1.41-.45h-.2v-.27h.2c.5,0,.88-.12,1.17-.37.29-.27.43-.6.43-1s-.14-.72-.41-.94c-.27-.24-.66-.35-1.19-.35h-1.07c.05-.09.09-.17.14-.26h5.54v.26Z"/>
          <path class="cls-3" d="M30.26,20.05v.17h-3.11c.43.13.65.4.65.81,0,.5-.35.8-1.06.9v.03c.46.05.8.21,1.06.49.21-.36.52-.55.96-.55.36,0,.65.13.89.36.23.24.35.58.35.98s-.12.73-.35.97c-.22.22-.53.34-.89.34s-.63-.08-.75-.24l.07-.1s.12.05.22.05c.39,0,.59-.34.59-1.03,0-.27-.05-.5-.15-.67-.09-.18-.23-.26-.42-.26s-.32.1-.41.29c.11.17.16.35.16.56,0,.48-.18.85-.54,1.1s-.81.39-1.35.39-.94-.11-1.19-.31c-.26-.21-.39-.49-.39-.87,0-.22.06-.39.19-.53.12-.14.27-.21.46-.21s.34.05.45.16c.11.11.16.23.16.38s-.04.26-.13.35c-.08.09-.17.15-.26.17-.26.08-.39.17-.39.28s.07.21.23.27c.15.07.32.1.52.1.34,0,.61-.11.79-.33.19-.22.27-.53.28-.91,0-.38-.11-.67-.32-.86-.22-.19-.51-.28-.88-.28h-.13v-.17h.13c.31,0,.56-.08.73-.23.18-.16.26-.37.26-.63s-.09-.45-.25-.59c-.17-.15-.41-.22-.74-.22h-1.31v-.17h5.89Z"/>
          <path class="cls-3" d="M61.97,28.36v-.19h-8.81v.19h3.64v2.44l-.21.16c-.25-.51-.5-.92-.72-1.22-.28-.36-.63-.53-1.06-.53-.63,0-1.1.28-1.38.82l.15.11c.12-.19.3-.28.52-.28s.44.15.63.42c.12.17.21.29.28.41.06.1.17.28.3.53.14.25.23.42.28.5l-1.51,1.18.12.15,2.6-2v2.49h1.35v-2.72h.83c.09.14.25.32.49.54.23.21.41.41.53.57.14.17.21.34.21.51,0,.18-.06.31-.16.4-.1.09-.24.13-.42.13-.19,0-.36-.06-.54-.2-.18-.13-.31-.3-.39-.51l-.17.09c.24.57.68.85,1.34.85.44,0,.8-.11,1.08-.34.27-.22.4-.52.4-.88,0-.24-.05-.44-.17-.63-.12-.2-.31-.41-.59-.65.3-.19.45-.47.45-.84,0-.25-.09-.44-.29-.58-.19-.15-.45-.21-.78-.21s-.6.1-.83.3c-.22.22-.35.48-.35.81,0,.17.04.32.09.45h-.73v-2.27h3.82ZM59.97,29.45c.09-.07.2-.11.35-.11.16,0,.27.06.38.15.09.1.13.22.13.37,0,.32-.13.56-.39.69-.23-.19-.38-.35-.47-.46-.09-.13-.14-.24-.14-.35,0-.13.05-.22.14-.29Z"/>
          <path class="cls-3" d="M84.77,23.44h-1.78v.91c.34.09.64.29.85.56.22.28.33.59.33.93s-.06.63-.19.85c-.14.24-.28.44-.47.59-.18.16-.37.3-.55.45-.44.33-.66.68-.66,1.04,0,.18.07.33.22.47.15.12.3.19.48.19.19,0,.27-.04.27-.14,0-.04-.04-.14-.13-.27-.09-.14-.14-.28-.14-.44s.06-.29.18-.41c.13-.11.27-.17.45-.17.17,0,.31.06.44.19.13.13.18.27.18.44,0,.29-.1.52-.32.7-.23.17-.5.25-.82.25s-.59-.1-.81-.3c-.22-.2-.32-.48-.32-.82s.15-.72.43-1.12c.18-.24.3-.49.37-.74.08-.25.12-.56.12-.95s-.05-.68-.15-.89c-.09-.22-.22-.32-.38-.32-.34,0-.51.55-.51,1.67v.56h-1.15v-.56c0-1.12-.17-1.67-.51-1.67-.38,0-.56.58-.56,1.75,0,.54.06.92.17,1.13.12.21.28.31.51.31.11,0,.22-.03.3-.09l.09.13c-.19.18-.45.26-.78.26-.54,0-.94-.17-1.19-.52-.25-.34-.37-.79-.37-1.33s.16-.98.47-1.31c.32-.32.75-.49,1.29-.49s.93.21,1.15.61c.11-.19.27-.34.46-.45v-1h-3.94v-.18h6.96v.18Z"/>
          <path class="cls-3" d="M101.12,27.83c0,.61-.28,1.1-.82,1.44-.55.35-1.19.52-1.94.52-2.01,0-3.17-.73-3.48-2.2-.07-.4-.12-1.04-.12-1.92v-3.21h-1.37v-.29h6.25c.5.64,1,1.28,1.47,1.94,0,.15-.03.28-.05.4-.03.29-.12.57-.24.83-.26.48-.81.71-1.66.71-.68,0-1.2-.12-1.58-.38l.14-.21c.12.05.26.09.43.09.37,0,.61-.16.71-.45.09-.3.14-.82.14-1.56v-1.08h-2.11v4.26c0,.98.14,1.67.4,2.07.12.17.29.33.55.47.24.13.54.2.87.2s.59-.05.74-.15c.16-.09.25-.19.25-.3,0-.12-.04-.21-.13-.29-.06-.09-.15-.16-.24-.21-.08-.05-.17-.14-.24-.28-.09-.12-.12-.31-.12-.53s.1-.44.31-.63c.19-.19.45-.29.76-.29s.57.1.78.31c.19.21.3.45.3.74Z"/>
          <path class="cls-3" d="M18.32,50.05c-.33-.42-.65-.64-1.04-.64-.23,0-.43.08-.6.24-.15.17-.23.36-.23.58s.13.48.4.75.85.71,1.74,1.35c.49.33.95.66,1.36.99l.27-.25c-.95-1.59-1.57-2.61-1.9-3.02ZM17.38,52.12c-.2-.12-.41-.27-.64-.43-.25-.15-.43-.27-.56-.34-.12-.08-.27-.16-.43-.26-.15-.09-.27-.15-.36-.19-.08-.04-.18-.08-.29-.13-.1-.04-.2-.06-.27-.08-.08,0-.2-.02-.37-.02-.16,0-.33.08-.5.23-.18.16-.26.35-.26.6,0,.37.26.66.74.85.27.1.87.25,1.83.5.97.24,1.84.47,2.63.7l.16-.33c-.41-.25-.97-.62-1.68-1.1ZM12.24,53.8v.33h.92v4.95h-1.23c-.08-.57-.35-1.03-.78-1.34-.44-.33-1-.5-1.68-.56v-.06c1.28-.27,1.94-.89,1.94-1.87,0-.46-.22-.85-.6-1.18-.41-.31-1.03-.46-1.88-.46s-1.56.21-2.14.67l.13.22c.31-.26.66-.37,1.07-.37.79,0,1.17.42,1.17,1.25,0,1.13-.56,1.69-1.72,1.69h-.23v.32h.23c.8,0,1.36.2,1.67.54.3.37.48.87.48,1.55,0,1.55-.68,2.32-2.03,2.32-.33,0-.64-.06-.91-.19-.29-.14-.42-.31-.42-.55s.25-.42.77-.56c.19-.03.37-.15.54-.32.15-.18.23-.41.23-.7s-.09-.54-.31-.75c-.21-.22-.5-.31-.87-.31s-.67.13-.92.4c-.24.27-.35.62-.35,1.05,0,1.54.96,2.32,2.88,2.32,1.14,0,2.03-.24,2.72-.68.7-.46,1.03-1.14,1.03-2.03v-.08h1.21v3.56h2.28v-8.83h2.63v8.83h2.28v-8.83h1.64v-.33h-9.75Z"/>
          <path class="cls-3" d="M37.45,29.79v.15h.74c.24,0,.42.09.56.25.14.17.22.37.22.61,0,.73-.42,1.09-1.25,1.09v.16c.11.04.2.12.29.27s.19.31.28.49c.09.18.21.36.34.54.13.17.33.32.59.44.25.12.54.19.88.19.84,0,1.46-.25,1.85-.74v.93h1.07v-4.23h.78v-.15h-6.35ZM41.81,33.15c-.27.32-.62.48-1.03.48-.23,0-.44-.06-.61-.15-.17-.1-.31-.22-.41-.36-.1-.15-.19-.29-.29-.45-.23-.38-.49-.61-.79-.68v-.04c.37-.03.68-.14.94-.33.26-.2.38-.46.38-.77,0-.45-.19-.76-.58-.91h2.53v.96c-.17-.12-.42-.18-.73-.18s-.57.1-.78.31c-.21.2-.32.46-.32.78s.1.57.3.75c.19.19.43.28.72.28.14,0,.28-.03.42-.08.13-.04.24-.1.3-.17l-.04-.08s-.1.01-.15.01c-.17,0-.3-.07-.4-.22-.1-.15-.15-.33-.15-.54,0-.23.05-.4.14-.54.1-.15.23-.21.41-.21.36,0,.53.3.53.91,0,.51-.13.92-.39,1.23Z"/>
          <path class="cls-3" d="M78.19,39.42v.14h-.71v3.87h-1.01v-3.87h-1.38c.3.08.53.25.69.51.17.26.25.54.25.85,0,.44-.14.81-.42,1.11-.29.3-.65.45-1.1.45-.29,0-.52-.08-.72-.25-.19-.17-.28-.4-.28-.69,0-.19.05-.34.16-.46.1-.12.24-.19.4-.19.17,0,.29.04.37.13.09.08.14.19.14.31,0,.14-.03.25-.09.3-.07.07-.14.11-.21.12-.2.03-.3.12-.3.28,0,.08.03.14.09.19.05.05.14.08.23.08.24,0,.41-.14.52-.4.11-.26.17-.59.17-.98s-.08-.72-.25-.97c-.15-.25-.39-.38-.7-.38h-.9v-.14h5.05Z"/>
          <path class="cls-3" d="M52.88,79.09v.25h1.9c-.28.09-.51.28-.66.52-.15.24-.23.53-.23.87s.12.62.36.87c.26.24.59.37,1.03.43v.06c-.51.09-.9.29-1.16.62-.27.32-.39.7-.39,1.14,0,.6.22,1.07.68,1.4.46.34.98.5,1.57.5s1.06-.09,1.45-.27c.39-.18.68-.42.86-.74v1.51h1.78v-6.91h1.29v-.25h-8.48ZM58.29,84.09c-.04.33-.2.59-.45.77-.25.18-.55.27-.92.27s-.68-.12-.94-.38c-.27-.25-.41-.6-.41-1.04s.12-.78.33-1.07c.23-.29.56-.42,1-.42h.33v-.26h-.35c-.37,0-.68-.12-.89-.35-.21-.24-.31-.56-.31-.95s.12-.71.37-.95c.25-.25.61-.37,1.11-.37h1.13v4.75Z"/>
          <path class="cls-3" d="M31.7,36.88v.29h-1.45v7.82h-2.01v-2.12c-.34.73-1.01,1.11-2,1.11-.8,0-1.45-.24-1.95-.72-.48-.48-.73-1.13-.73-1.95,0-.61.17-1.16.48-1.6.32-.44.77-.73,1.33-.89v-.05h-2v-.29h4.16v.29h-.29c-.53,0-.92.22-1.18.68-.27.46-.41,1.02-.41,1.71s.14,1.18.38,1.52c.26.36.56.53.96.53s.67-.1.87-.34c.2-.22.32-.49.38-.82v-4.88h-5.62v-.29h9.08Z"/>
          <path class="cls-3" d="M68.82,14.44v-.23h-8.3v.23h1.85c-.31.1-.54.25-.71.47-.16.22-.24.48-.24.8s.09.58.3.79c.19.22.48.34.84.41v.04c-.83.14-1.24.64-1.24,1.48,0,.42.16.79.48,1.09.32.31.73.51,1.22.62.48.12,1.05.17,1.7.17,1.07,0,1.9-.25,2.5-.73.58-.5.87-1.22.87-2.16s-.39-1.57-1.18-1.92v-1.06h1.91ZM66.14,19.25c-.13.26-.31.45-.54.59-.24.15-.57.22-.98.22-.43,0-.8-.15-1.12-.44-.33-.29-.48-.72-.48-1.27,0-.35.07-.64.23-.87.15-.24.39-.37.71-.4v-.24c-.57-.09-.86-.48-.86-1.13,0-.39.12-.7.36-.92.23-.24.58-.35,1.02-.35h.79v.87c-.48.11-.82.44-.98.97l.22.09c.16-.45.44-.67.81-.67.39,0,.67.16.86.5.18.33.28.8.28,1.43s-.11,1.16-.32,1.62Z"/>
          <path class="cls-3" d="M73.73,56.45v.12h-.59v3.16h-.81v-2.51h-1.26v.03c.27.03.48.15.64.34.16.19.24.43.24.71,0,.35-.12.64-.34.87-.23.22-.55.33-.99.33-.3,0-.54-.07-.72-.21-.18-.14-.27-.34-.27-.61,0-.15.05-.27.14-.38.1-.1.2-.16.33-.16s.23.04.31.12c.08.08.11.17.11.28,0,.11-.02.19-.05.24-.04.06-.09.1-.15.12-.06.02-.11.03-.17.05-.13.03-.2.08-.2.14,0,.08.05.14.14.19.1.06.21.08.34.08.44,0,.66-.36.66-1.07,0-.37-.06-.64-.18-.81-.12-.18-.32-.27-.61-.28v-.12h2.02v-.52h-2.89v-.12h4.3Z"/>
          <path class="cls-3" d="M98.38,56.11v.17h2.06v.74c-.48.02-.85.11-1.12.29-.26.18-.39.4-.39.67s.07.47.23.63c.16.16.35.27.58.35.22.08.46.16.69.23.23.08.42.17.58.29.16.13.24.28.24.49,0,.19-.09.35-.25.48-.17.13-.38.19-.63.19-.09,0-.2,0-.33-.02.09-.21.13-.42.13-.62,0-.21-.07-.37-.19-.5-.11-.12-.26-.18-.45-.18-.18,0-.32.05-.44.15-.11.1-.16.25-.16.45s.07.36.22.51c.14.14.36.25.64.32-.07.14-.16.28-.28.44-.12.16-.23.28-.32.36l.13.11c.26-.25.47-.54.64-.88.12.02.27.03.44.03.49,0,.91-.12,1.25-.35.34-.23.51-.55.51-.97,0-.11-.01-.21-.04-.32h.8v1.7h1.2v-4.59h.85v-.17h-6.59ZM102.92,59.01h-.87c-.11-.21-.29-.39-.56-.53-.27-.15-.53-.25-.79-.31-.66-.16-.99-.36-.99-.6s.31-.35.9-.35c.33,0,.67.04,1.02.13v-1.07h1.29v2.73Z"/>
          <path class="cls-3" d="M28.75,68.59v1.67c-.23-.07-.46-.11-.72-.11-.58,0-1,.2-1.27.59-.27.39-.39.93-.39,1.6s.14,1.18.45,1.51c.3.34.65.49,1.07.49.27,0,.52-.07.76-.21s.44-.31.56-.52l.17.13c-.39.66-1.03,1-1.91,1s-1.56-.21-2.07-.62c-.51-.42-.76-1.04-.76-1.86,0-.68.23-1.22.69-1.63.45-.42,1.04-.63,1.76-.63v-1.41h-3.21v-.24h6.06v.24h-1.2Z"/>
          <path class="cls-3" d="M86.68,49.02v-.12h-3.51v.12h1.39v.65c-.28.06-.52.2-.71.4-.19.21-.28.49-.28.83s.14.64.41.86c.28.22.59.33.94.33s.67-.11.95-.33c.27-.22.42-.52.42-.9,0-.31-.09-.56-.26-.76-.17-.2-.4-.35-.67-.42v-.67h1.32ZM85.37,50.86c0,.4-.04.69-.09.85-.06.18-.18.25-.36.25s-.3-.08-.36-.25c-.07-.16-.1-.45-.1-.85s.03-.69.1-.86c.06-.17.18-.25.36-.25s.31.09.36.25c.06.17.09.46.09.86Z"/>
          <path class="cls-3" d="M97.88,63.22v1.38c-.16-.08-.37-.11-.64-.11-.43,0-.77.16-.97.48-.22.32-.32.74-.32,1.26s.07.95.22,1.29c.14.33.35.5.65.5.49,0,.73-.4.73-1.2,0-.22-.03-.4-.11-.56-.08-.15-.19-.23-.37-.23-.16,0-.29.1-.37.3l-.14-.07c.14-.42.49-.64,1.05-.64.37,0,.66.11.87.34.22.22.32.5.32.85,0,.48-.18.85-.56,1.06-.38.23-.89.34-1.52.34s-1.15-.18-1.57-.54c-.41-.35-.62-.83-.62-1.42s.18-1.05.56-1.39c.37-.33.85-.5,1.42-.5v-1.14h-2.6v-.19h5.43v.19h-1.47Z"/>
          <path class="cls-3" d="M14.85,77.83v.22h-1.08v5.95h-1.55v-4.35c-.05-.01-.17-.01-.35-.01s-.36.04-.55.13c-.2.09-.34.2-.44.31-.09.12-.17.29-.23.51-.08.3-.1.76-.1,1.38s.05,1.07.17,1.34c.13.27.34.42.64.42.11,0,.2-.01.26-.03l.05.2c-.14.07-.34.09-.57.09-.65,0-1.17-.17-1.56-.51-.39-.34-.59-.9-.59-1.67,0-.92.3-1.58.89-1.93.52-.31,1.2-.46,2.03-.46.12,0,.23,0,.37.01v-1.39h-4v-.22h6.63Z"/>
          <path class="cls-3" d="M86.91,10.52v5.82h-1.68v-2c-.2.29-.47.54-.84.69-.37.16-.75.24-1.15.24-.79,0-1.46-.21-1.97-.62-.51-.41-.78-.98-.78-1.69,0-.16.01-.29.03-.4.08.01.19.01.35.01,1.31,0,1.96-.46,1.96-1.41,0-.32-.07-.54-.23-.72-.14-.15-.34-.22-.59-.22s-.43.05-.57.18c-.13.13-.2.3-.2.51,0,.4.21.64.65.7v.24c-.32-.01-.56-.11-.73-.28-.18-.17-.26-.4-.26-.66,0-.41.14-.72.41-.98.29-.24.68-.37,1.19-.37s.94.15,1.28.42c.33.28.5.66.5,1.16s-.19.9-.57,1.18c-.37.3-.85.45-1.43.5-.02.07-.03.17-.03.28,0,.47.11.88.35,1.22.25.34.59.53,1.06.53s.83-.13,1.13-.37c.28-.26.44-.57.44-.97v-3.68h-.51v-.24h.75c.49.3.97.61,1.44.93Z"/>
          <path class="cls-3" d="M86.78,63.07v1.43c-.17-.08-.38-.12-.66-.12-.45,0-.79.17-1.02.5-.21.33-.33.77-.33,1.32s.12.97.33,1.32c.21.34.51.51.88.51.07,0,.13,0,.17-.01-.19-.28-.3-.57-.3-.85s.07-.5.2-.65c.14-.15.32-.23.56-.23s.4.07.55.21c.13.14.2.32.2.53,0,.51-.28.87-.85,1.08.26.28.63.55,1.14.79l-.11.18c-.56-.28-.97-.58-1.26-.9-.2.05-.4.07-.6.07-.71,0-1.28-.18-1.71-.55-.43-.35-.64-.84-.64-1.47s.19-1.1.57-1.46c.39-.34.88-.52,1.48-.52v-1.19h-2.69v-.2h5.3v.2h-1.2Z"/>
          <path class="cls-3" d="M102.93,74.7h1.58v.11h-.55v2.98h-.78v-.64c-.07.13-.2.24-.37.32-.17.07-.38.11-.63.11s-.48-.07-.67-.22c-.2-.14-.3-.34-.3-.6,0-.2.06-.36.17-.49.11-.14.27-.23.5-.27v-.02c-.18-.03-.32-.08-.43-.19-.11-.1-.16-.23-.16-.38,0-.31.13-.51.39-.6h-.83v-.11h1.74v.11c-.2,0-.33.05-.41.16-.08.1-.11.25-.11.42s.05.31.14.41c.09.1.21.15.38.15h.15v.11h-.14c-.19,0-.33.06-.42.18-.1.12-.14.27-.14.46s.06.33.17.44c.12.11.25.17.41.17s.29-.04.4-.12c.1-.08.17-.2.19-.34v-2.05h-.25v-.11Z"/>
          <path class="cls-3" d="M76.19,84.11v.09h-.46v2.5h-.65v-1.71c-.22,0-.37,0-.45,0-.08,0-.15,0-.2,0-.05,0-.12.01-.18.03-.07.01-.13.03-.18.07-.04.03-.07.07-.07.11,0,.04.03.07.08.09.06.02.11.04.18.05.07.01.13.05.17.11.06.06.08.14.08.25s-.03.19-.11.26c-.08.07-.18.1-.3.1s-.23-.04-.32-.13c-.08-.09-.13-.21-.13-.36,0-.24.08-.41.26-.51.17-.1.38-.15.64-.15h.51v-.69h-1.66v-.09h2.77Z"/>
          <path class="cls-3" d="M25.06,86.93v.21h.75v2.06c0,.63.1,1.14.32,1.54.11.23.28.4.52.53.23.12.51.18.83.18s.61-.07.86-.22c.26-.15.45-.31.55-.5v2.12h1.49v-5.71h1.06v-.21h-6.38ZM28.89,90.34c-.04.15-.12.28-.27.39-.14.12-.32.17-.54.17s-.38-.08-.49-.27c-.05-.09-.1-.2-.15-.33-.05-.13-.08-.47-.08-1.02v-2.14h1.53v3.2Z"/>
          <path class="cls-3" d="M104.38,36.8v-.31h-12.86v.31h1.06v2.92c0,.89.14,1.61.43,2.18.16.32.41.57.74.74.34.18.73.29,1.19.29s.85-.13,1.22-.34c.37-.21.64-.44.78-.71v3.01h2.11v-5.06c.05-.32.18-.57.37-.77.18-.19.41-.3.68-.32.4,0,.7.2.93.61.23.39.34.9.34,1.52s-.11,1.13-.32,1.56c-.21.44-.56.66-1.04.67-.16,0-.29-.01-.36-.07l-.09.23c.32.29.85.45,1.58.45s1.31-.27,1.75-.78c.43-.54.66-1.21.66-2.06s-.23-1.54-.69-2.11c-.46-.55-1.08-.83-1.88-.83-.96,0-1.59.35-1.93,1.06v-2.19h5.33ZM96.94,41.33c-.05.21-.18.39-.39.57-.19.16-.44.25-.76.25-.3,0-.53-.15-.69-.39-.07-.14-.16-.3-.23-.48-.07-.2-.11-.67-.11-1.45v-3.03h2.18v4.53Z"/>
          <path class="cls-3" d="M82.24,91.05v.21h3.74v3.09l-1.46-1.38c.13-.32.32-.48.56-.48.1,0,.21.03.31.09l.12-.13c-.24-.22-.55-.33-.92-.33-.5,0-.93.17-1.27.51-.36.34-.53.83-.53,1.48s.19,1.14.53,1.46c.35.33.77.49,1.28.49.3,0,.58-.06.84-.21.25-.13.43-.29.54-.48v1.43h1.42v-5.54h1.03v-.21h-6.19ZM85.98,94.82c-.01.16-.1.33-.24.47-.15.16-.32.23-.5.23-.6,0-.91-.5-.91-1.52,0-.33.04-.6.11-.81l1.54,1.45v.18Z"/>
          <path class="cls-3" d="M32.56,104.81v.38h1.51c.76,0,1.33.16,1.71.45.38.29.59.83.59,1.62,0,.2-.02.39-.06.56.81.32,1.64.62,2.48.9.23-.33.35-.71.35-1.14,0-.63-.18-1.15-.5-1.56-.34-.4-.81-.67-1.39-.83h3.71v4.22c.88.26,1.76.49,2.66.7v-4.92h1.92v-.38h-12.98Z"/>
          <path class="cls-3" d="M62.69,95.13v.3h-2.73c.51.12.9.35,1.19.71.27.35.41.78.41,1.29,0,.66-.28,1.17-.83,1.54-.57.35-1.31.57-2.25.62v.07c.5.07.92.23,1.24.5.32.28.55.58.67.9.12.32.23.64.32.96.09.34.21.6.37.81.14.21.35.32.58.32.25,0,.44-.05.6-.14l.09.21c-.32.25-.8.37-1.42.37s-1.13-.12-1.54-.37c-.41-.25-.69-.55-.87-.9-.18-.37-.34-.73-.44-1.1-.28-.94-.66-1.47-1.13-1.59v-.3h.46c1.38,0,2.07-.64,2.07-1.9,0-1.35-.6-2-1.84-2h-1.15v-.3h6.2Z"/>
          <path class="cls-3" d="M75.95,101.12v1.5c.57.18,1.04.52,1.38,1.04.37.51.54,1.17.54,1.98,0,.73-.17,1.37-.52,1.91-.85.35-1.72.68-2.6.98-.32-.05-.58-.18-.78-.38l.16-.21c.14.11.31.16.5.16.38,0,.68-.17.85-.52.17-.36.28-.99.28-1.87,0-1.94-.31-2.91-.94-2.91-.55,0-.85.92-.85,2.77v.94h-1.9v-.94c0-1.85-.28-2.77-.85-2.77-.63,0-.92.97-.92,2.91,0,.88.09,1.51.26,1.87.19.35.47.52.85.52.19,0,.36-.05.52-.16l.14.21c-.32.3-.75.44-1.3.44-.9,0-1.56-.3-1.98-.87-.4-.57-.61-1.32-.61-2.22s.27-1.63.78-2.18c.54-.56,1.25-.82,2.14-.82s1.52.33,1.92.99c.23-.36.54-.64.92-.8v-1.57h-6.55v-.3h11.26v.3h-2.7Z"/>
          <path class="cls-3" d="M44.44,8.49v.23h-1.13v6.19h-1.61v-6.19h-1.92c.6.27.89.79.89,1.54,0,.65-.26,1.14-.79,1.46-.52.33-1.14.49-1.86.49h-.22v.05c.3.03.56.14.74.31.2.18.35.38.45.6.11.23.2.45.3.66.23.5.6.76,1.1.76.16,0,.28-.01.37-.05l.05.16c-.31.16-.72.26-1.22.26-1.13,0-1.88-.46-2.28-1.36-.27-.65-.5-1.06-.7-1.21-.07-.05-.16-.11-.28-.16v-.23h.5c.73,0,1.3-.16,1.69-.49.39-.33.58-.8.58-1.44,0-.46-.09-.8-.27-1.03-.19-.23-.39-.34-.62-.34-.49,0-.73.11-.73.33,0,.08.16.16.47.23.12.01.24.08.34.19.09.12.15.27.15.47s-.07.38-.2.5c-.14.14-.31.2-.54.2-.24,0-.43-.08-.6-.24-.16-.16-.24-.39-.24-.66,0-.46.22-.8.64-1.02h-1.63v-.23h8.56Z"/>
          <path class="cls-3" d="M85.24,76.4v.16h.56v1.55c0,.46.07.84.23,1.15.09.17.22.3.39.4.18.09.39.14.63.14s.45-.06.64-.17c.2-.11.34-.24.42-.38v1.6h1.11v-4.29h.78v-.16h-4.76ZM88.11,78.95c-.02.13-.1.23-.2.31-.11.09-.24.13-.41.13-.16,0-.29-.07-.37-.21-.04-.07-.08-.15-.11-.25-.04-.1-.06-.35-.06-.76v-.82l1.15,1.08v.52ZM88.11,78.22l-1.15-1.09v-.57h1.15v1.66Z"/>
          <path class="cls-3" d="M33.15,54.68v.13h.46c.52,0,.78.28.78.85,0,.54-.29.81-.88.81h-.2v.13c.2.05.36.28.49.68.05.15.11.31.18.46.07.16.2.29.37.4.17.09.39.15.66.15s.47-.05.61-.15l-.04-.1c-.07.04-.15.07-.26.07-.1,0-.19-.05-.25-.14-.07-.1-.12-.21-.16-.35-.03-.13-.09-.27-.14-.41-.05-.14-.14-.26-.28-.38-.14-.12-.32-.19-.54-.22v-.02h2.25v1.67h.89v-3.45h.64v-.13h-4.58ZM36.2,56.46h-1.57c.44-.15.65-.42.65-.8,0-.21-.06-.4-.18-.55-.12-.15-.28-.25-.51-.3h1.61v1.65Z"/>
          <path class="cls-3" d="M42.96,43.69v.81c-.25-.09-.5-.13-.75-.13-.39,0-.57.11-.57.31,0,.22.17.33.51.33h0c.69,0,1.03.19,1.03.57,0,.16-.05.29-.15.39-.11.09-.26.15-.47.15s-.4-.07-.57-.19l.03-.07s.11.03.18.03.14-.03.2-.1c.06-.07.09-.15.09-.27,0-.11-.03-.2-.11-.27-.07-.06-.17-.09-.31-.09s-.25.06-.35.19c-.1.12-.15.3-.15.53s.07.41.21.53c.14.13.35.19.61.19.14,0,.27-.02.38-.05.12-.04.2-.07.25-.1l.05.1c-.19.14-.49.21-.93.21s-.77-.08-1-.23c-.23-.16-.35-.38-.35-.67,0-.35.2-.59.6-.73-.15-.02-.27-.07-.38-.15-.1-.08-.15-.17-.15-.29,0-.31.27-.45.81-.45l.49.02v-.56h-1.68v-.11h3.07v.11h-.6Z"/>
        </g>
      </g>
      <g>
        <path class="cls-1" d="M48.51,88.42l2.03,1.17c.42.24.67.66.67,1.15v6.51c0,.73-.6,1.33-1.33,1.33h-12.26c-.73,0-1.33-.6-1.33-1.33v-1.1h4.55c.29,0,.53-.24.53-.53v-3.73c0-.29-.24-.53-.53-.53h-4.55v-.62c0-.49.24-.91.67-1.15l2.03-1.17c.42-.24.67-.67.67-1.15v-.23h3.22c.22,0,.4-.18.4-.4h0c0-.22-.17-.39-.39-.4h-3.5c-.22,0-.4-.18-.4-.4h0c0-.22.18-.4.4-.4h8.75c.22,0,.4.18.4.4h0c0,.22-.18.4-.4.4h-.27v1.03c0,.49.24.91.67,1.15"/>
        <path class="cls-1" d="M65.67,38.65l10.26-9.23s.02-.1.03-.15c2.05-10.2.45-21.84-11.45-9.64-3.05,3.13-5.45,7.2-6.73,10.62-1.29,3.45-1.84,7.09-1.66,10.93-.66-1.62-1.25-3.26-1.79-4.91-2.13,3.52-3.63,7.39-4.42,11.43l.64,9.14-2.05-5.23c-2.21,4.64-2.74,11.27-2.71,19.19-.77,4.39-1.82,9.51-2.32,13.17.94-2.06,1.4-2.48,2.02-3.05.88-.82.57-1.9-.24-2.12.05-.18.11-.36.17-.53.16-.49.32-.97.48-1.46,5.2-15.88,10.38-31.39,18.88-45.9-5.62,13.07-10.83,26.87-15.61,41.4,5.68-2.61,9.75-6.04,12.2-10.29l-6.19,1.76,9.92-5.87c2.81-3.41,4.45-6.71,4.91-9.92l-9.66,4.1,11.16-7.52c2.36-3.07,4.34-9.75,4.13-12.72l-9.97,6.79Z"/>
      </g>
    </g>
  </g>
</svg>