<?xml version="1.0" encoding="UTF-8"?>
<svg id="Layer_1" data-name="Layer 1" xmlns="http://www.w3.org/2000/svg" xmlns:xlink="http://www.w3.org/1999/xlink" viewBox="0 0 64 64">
  <defs>
    <style>
      .cls-1 {
        fill: #0c5891;
      }

      .cls-2 {
        fill: #d2ea7b;
      }

      .cls-3 {
        fill: #004d7d;
      }

      .cls-4 {
        fill: #c4e456;
      }

      .cls-5 {
        clip-path: url(#clippath);
      }

      .cls-6 {
        fill: #ebebeb;
      }

      .cls-7 {
        fill: none;
      }

      .cls-8 {
        fill: #f8f7f7;
      }
    </style>
    <clipPath id="clippath">
      <rect class="cls-7" x="4.7418" y=".8478" width="54.5163" height="62.3044"/>
    </clipPath>
  </defs>
  <g class="cls-5">
    <path class="cls-2" d="m11.0018,33.7435l.4671-.5533h42.1384c1.2638,0,2.3298.9406,2.4876,2.1948l1.7302,13.7895-.9792,3.3216,1.7346,2.6956.5273,4.1994h-.5469c.1876,1.4971-.9792,2.8198-2.4876,2.8198l-47.76.4704c-1.5085,0-2.6758-1.3228-2.4876-2.8191l2.6885-23.9233c.1572-1.2542,1.2239-2.1954,2.4876-2.1954h0Zm0,0"/>
    <path class="cls-4" d="m56.7382,63.1522H7.2618c-1.5091,0-2.6765-1.3227-2.4883-2.8198l.6453-5.1406,1.4311-2.5131-.6756-3.5041,1.7309-13.7895c.1579-1.2536,1.2232-2.1948,2.4883-2.1948h1.0756l-2.9345,23.3818c-.1882,1.4964.9792,2.8191,2.4883,2.8191h48.0858l.1179.9419c.1882,1.4964-.9792,2.8191-2.4883,2.8191h0Zm0,0"/>
  </g>
  <path class="cls-8" d="m58.5806,55.1918h-8.1525c-.3454,0-.6268.2807-.6268.6268v3.5726l-.2529,1.3056.2529,2.4553h-6.2682l.3341-1.8805-.3341-1.8805v-3.5726c0-.3461-.2807-.6268-.6268-.6268H5.4187l1.4629-2.8649-.7081-3.153h6.4552c.3424,0,1.1294-.1326,1.1346-.4747l-.277-15.5089h6.2707l-.232,15.3467c-.005.3498.277.637.6269.637h37.6745l.4399,3.5105-.7587,1.2214,1.073,1.286Zm0,0"/>
  <path class="cls-6" d="m13.4864,33.1903h2.5073l-.2307,15.367c-.005.3422-.2846.6167-.6269.6167h-2.5073c.3424,0,.6217-.2745.6269-.6167l.2307-15.367Zm0,0"/>
  <path class="cls-6" d="m58.5806,55.1918h-8.1525c-.3454,0-.6268.2807-.6268.6268v-2.5073c0-.3461.2813-.6269.6268-.6269h7.8382l.3143,2.5074Zm0,0"/>
  <path class="cls-6" d="m42.9063,52.6844H9.591c-.3024,0-.5356-.2648-.4976-.564l.3696-2.9465h-3.2895l-.7548,6.0179h37.4876c.3461,0,.6268.2807.6268.6268v-2.5073c0-.3467-.2802-.6269-.6268-.6269h0Zm0,0"/>
  <rect class="cls-6" x="43.5331" y="59.3912" width="6.2682" height="3.761"/>
  <path class="cls-3" d="m14.3109,20.4922c0-7.179,2.4648-13.4579,7.9135-16.8855,2.7855-1.7525,6.1047-2.7589,9.7756-2.7589,10.8499,0,18.6303,8.7958,18.6303,19.6457,0,12.2918-10.6464,23.7432-15.8505,28.5416-1.1979,1.1048-2.283,1.5547-2.7083,1.8837-.1457.1128-.3333-.0311-.4798-.1446-2.2715-1.7569-17.2809-15.1615-17.2809-30.282h0Zm0,0"/>
  <path class="cls-1" d="m34.7805,49.0363c-1.1985,1.1028-2.1075,1.8552-2.5321,2.1834-.147.1141-.3498.1141-.4968,0-2.2702-1.7562-18.3819-15.6064-18.3819-30.7263,0-7.1796,3.406-13.4592,8.854-16.8868-3.7394,3.5981-5.971,8.8192-5.971,14.6298,0,15.1203,16.1117,28.9707,18.3826,30.7269.0438.0349.0938.0589.1452.0729h0Zm0,0"/>
  <path class="cls-8" d="m45.79,20.4922c0,3.1689-1.0692,6.089-2.866,8.4174-2.5219,3.2679-6.4774,4.8099-10.924,4.8099-7.6162,0-13.0302-5.8925-13.0302-13.5087,0-4.4473,1.3455-8.1215,4.6141-10.6433,2.3285-1.7968,5.2478-2.8654,8.4161-2.8654,7.6162,0,13.79,6.1745,13.79,13.79h0Zm0,0"/>
  <path class="cls-6" d="m42.9227,28.909c-2.5212,3.2685-6.4761,5.3733-10.9227,5.3733-7.6157,0-13.79-6.1743-13.79-13.79,0-4.4479,2.106-8.4035,5.3746-10.9247-1.7981,2.3286-2.8673,5.2478-2.8673,8.4174,0,7.6157,6.1745,13.79,13.79,13.79,3.1689,0,6.0877-1.0686,8.4155-2.866h0Zm0,0"/>
</svg>