<?xml version="1.0" encoding="UTF-8"?>
<svg id="OBJECTS" xmlns="http://www.w3.org/2000/svg" viewBox="0 0 100 100">
  <defs>
    <style>
      .cls-1 {
        fill: #623c17;
      }
    </style>
  </defs>
  <path class="cls-1" d="M32.99,19.6c.35-.48.79-.56,1.35-.23,1.71,1.01,3.29,2.21,4.68,3.63,1.83,1.86,3.67,3.71,5.68,5.38.67.56,1.33,1.14,1.88,1.83.8,1,1.32,2.15,1.69,3.36.77,2.52,1.87,4.88,3.04,7.22.6,1.21,1.22,2.4,2.16,3.4.59.63.9,1.42,1.09,2.26.07.32.12.64.19.96.29,1.43.35,2.9.74,4.32.02.06,0,.15-.03.21-.11.18-.03.35.01.52.09.35.19.7.25,1.05.06.32-.06.52-.32.6-.33.11-.69-.03-.84-.37-.09-.21-.16-.44-.23-.66-.12-.38-.19-.77-.36-1.13-.54-1.12-1.14-2.21-1.96-3.15-.72-.84-1.46-1.67-2.2-2.5-.58-.64-1.19-1.24-1.96-1.64-.76-.39-1.52-.77-2.3-1.12-1.24-.55-2.3-1.35-3.25-2.31-1.33-1.35-2.33-2.95-3.18-4.64-.69-1.36-1.1-2.82-1.55-4.27-.36-1.15-.67-2.32-1.1-3.46-.7-1.86-1.51-3.66-2.35-5.46-.43-.91-.85-1.83-1.17-2.79-.06-.17-.1-.35-.13-.47,0-.23.05-.4.17-.56ZM51.73,45.51c-.6-.72-1.3-1.32-1.93-2.01-1.63-1.79-2.92-3.81-4.08-5.93-1.11-2.02-2.11-4.09-3.36-6.03-.84-1.3-1.77-2.53-2.7-3.76-.89-1.17-1.86-2.27-2.81-3.39-.6-.69-1.15-1.42-1.7-2.15-.06-.08-.09-.2-.27-.2.17.39.32.77.5,1.13,1.58,3.17,2.82,6.47,3.83,9.87.65,2.21,1.7,4.19,3.01,6.06,1.27,1.83,2.9,3.18,4.91,3.99,1.95.79,3.43,2.12,4.73,3.74.39.49.82.94,1.23,1.41.03-.02.06-.04.09-.06-.31-.98-.76-1.89-1.43-2.68ZM52.75,44.83c-1.28-1.29-2.19-2.83-2.96-4.47-.68-1.45-1.43-2.87-1.96-4.39-.36-1.04-.68-2.09-1.08-3.12-.55-1.4-1.43-2.51-2.56-3.46-1.98-1.67-3.92-3.39-5.69-5.29-.71-.76-1.52-1.4-2.33-2.06-.04-.03-.08-.07-.15-.03-.03.16.11.25.19.35.73.93,1.54,1.8,2.31,2.69,1.78,2.04,3.53,4.1,5.02,6.38.95,1.46,1.77,3.01,2.6,4.54,1.06,1.94,2.15,3.87,3.49,5.63.7.92,1.47,1.76,2.25,2.6.6.64,1.16,1.32,1.54,2.13.03.06.05.14.18.14-.17-.62-.41-1.2-.86-1.65Z"/>
  <path class="cls-1" d="M53.59,63.06c.46-.94.92-1.88,1.31-2.84.28-.71.6-1.39.97-2.05,1.3-2.28,2.63-4.55,3.94-6.82.63-1.09,1.37-2.11,2.07-3.15,1.08-1.63,2.42-3.02,4.01-4.14.51-.36,1.02-.72,1.52-1.1,1.23-.94,2.15-2.19,3.13-3.38,1.16-1.4,2.44-2.67,3.83-3.82.15-.12.31-.25.48-.34.27-.13.44,0,.4.31-.03.25-.11.49-.21.72-.18.41-.35.83-.54,1.24-.66,1.47-1.15,2.99-1.33,4.61-.11,1.01-.39,1.99-.74,2.94-.55,1.46-1.32,2.79-2.32,3.99-1.19,1.42-2.16,3-3.05,4.63-.76,1.38-1.8,2.51-3.16,3.3-.61.36-1.26.66-1.91.96-1.21.56-2.42,1.13-3.47,1.99-1.12.92-2.12,1.97-3.07,3.07-.24.27-.45.57-.74.77-.25.18-.47.37-.56.69-.07.23-.29.28-.46.12-.2-.18-.35-.41-.36-.71.08-.32.11-.65.27-.97ZM70.98,42.56c-.59,1.32-1.18,2.63-1.84,3.91-.57,1.09-1.26,2.1-2.09,3-1.49,1.62-2.91,3.31-4.5,4.84-.97.93-1.87,1.92-2.75,2.95-.12.14-.27.27-.33.56.36-.15.67-.28.97-.41.79-.36,1.6-.67,2.37-1.1,1.25-.69,2.21-1.68,2.96-2.89.8-1.3,1.63-2.58,2.5-3.82.22-.31.47-.59.72-.87,1.71-1.91,2.76-4.14,3.17-6.69.14-.88.37-1.73.6-2.59-.72.97-1.3,2.02-1.79,3.12ZM60.34,54.56c.29-.33.62-.6.92-.9,1.67-1.7,3.34-3.39,5.01-5.08,1.05-1.06,1.78-2.33,2.48-3.64.66-1.24,1.3-2.49,1.94-3.73.04-.08.1-.15.07-.27-.15.05-.21.19-.29.29-.79,1.03-1.64,2.01-2.7,2.75-2.36,1.64-4.17,3.77-5.68,6.22-.94,1.53-1.83,3.1-2.74,4.65-.36.62-.73,1.23-1.09,1.84.03.02.07.04.1.07.61-.78,1.33-1.45,1.98-2.19Z"/>
  <path class="cls-1" d="M52.43,72.13c-.23-.08-.38-.22-.49-.45-.62-1.24-1.27-2.47-1.99-3.64-.69-1.12-1.5-2.15-2.5-3.01-.46-.39-.98-.62-1.59-.68-.51-.04-1.02-.12-1.52-.25-1.12-.29-2.26-.44-3.41-.41-.37.01-.74.02-1.12,0-.66-.03-1.28-.2-1.83-.62-1.07-.82-1.87-1.87-2.51-3.05-1.05-1.93-1.97-3.93-3.1-5.81-.09-.15-.16-.33-.21-.5-.13-.43.09-.71.38-.99.28-.27.54-.18.82-.02.64.38,1.3.73,1.91,1.17,1.51,1.08,2.91,2.3,4.45,3.35,1.13.77,2.32,1.4,3.68,1.61.54.08,1.09.12,1.63.19,1.47.21,2.46,1.12,3.19,2.37.65,1.11,1.13,2.29,1.48,3.53.15.52.31,1.04.56,1.52.75,1.46,1.53,2.9,2.45,4.25.39.57.36,1.09.12,1.69-.22-.04-.26-.22-.4-.26ZM38.95,62.06c.46.39,1.01.5,1.58.52.67.02,1.34,0,2.01.05.99.07,1.95.35,2.92.54.37.07.73.08,1.14.12-.05-.25-.23-.34-.38-.44-.7-.46-1.45-.83-2.23-1.12-.48-.18-.98-.31-1.38-.65-.31-.26-.6-.45-1.07-.42-.42.03-.86-.19-1.26-.39-1.12-.54-2.2-1.15-3.24-1.84-.25-.17-.5-.34-.72-.55-.12-.12-.25-.26-.54-.27.84,1.7,1.75,3.25,3.16,4.44ZM41.72,59.9c.97.34,1.94.68,2.91,1.01.86.29,1.65.72,2.43,1.19.06.04.12.08.23.04-.31-.69-.81-1.2-1.43-1.59-.53-.34-1.1-.54-1.74-.56-.92-.02-1.83-.15-2.71-.44-.08-.03-.16-.04-.35-.08.25.25.45.35.67.43ZM35.18,55.55c1.28,1.39,2.73,2.54,4.47,3.26-1.56-1-3-2.16-4.47-3.26Z"/>
  <path class="cls-1" d="M53.95,5.12c.07-.36.16-.71.33-1.03.24-.46.63-.67,1.13-.68.46,0,.63.36.79.7.26.55.5,1.12.76,1.67,1.2,2.53,2.22,5.13,2.83,7.88.25,1.15.54,2.29.55,3.47.02,1.74-.15,3.47-.57,5.16-.36,1.44-.66,2.89-.91,4.35-.22,1.27-.49,2.52-1,3.7-.42.96-.73,1.96-.98,2.98-.06.25.04.52-.06.74-.33.72-.43,1.49-.52,2.26-.15,1.27-.27,2.55-.38,3.83-.05.55-.1,1.12.21,1.64.13.21.08.46.05.69-.04.36-.28.51-.6.38-.3-.12-.55-.31-.69-.63-.33-.7-.66-1.4-1.02-2.09-.21-.42-.4-.85-.55-1.29-.76-2.16-.74-4.4-.61-6.65.06-1.08.2-2.16.15-3.25-.02-.43-.1-.86-.09-1.3.03-1.25.18-2.49.38-3.72.32-1.91.5-3.83.46-5.77-.02-.89,0-1.77.03-2.66.06-1.32.16-2.63.18-3.95.02-1.34-.02-2.68-.11-4.01-.02-.82.06-1.63.22-2.43ZM56.7,29.99c.41-.95.65-1.96.82-2.97.3-1.78.69-3.55,1.12-5.3.32-1.32.47-2.67.47-4.03,0-1.19-.18-2.37-.45-3.54-.59-2.55-1.48-4.98-2.56-7.35-.04-.08-.08-.15-.21-.22.04.34.07.68.12,1.02.28,1.95.58,3.9.78,5.86.11,1.02.14,2.06.23,3.08.14,1.68.17,3.36.12,5.04-.06,1.99-.32,3.96-.66,5.92-.3,1.73-.6,3.45-.89,5.18-.03.19-.04.39-.05.59.34-1.13.69-2.22,1.15-3.28ZM54.95,6.88c.09.99.04,1.99.09,2.98.12,2.19-.1,4.37-.17,6.55-.03,1.1-.04,2.2,0,3.3.03.88-.08,1.77-.2,2.64-.16,1.18-.43,2.34-.54,3.53-.09,1.04-.21,2.08-.1,3.13.1,1.01-.06,2.02-.12,3.03-.11,2.11-.23,4.23.4,6.29.03.09.05.17.14.25-.03-.23-.06-.46-.08-.69-.02-.23-.02-.47-.04-.7-.09-.94-.06-1.87,0-2.81.09-1.74.4-3.45.76-5.14.39-1.78.62-3.59.83-5.39.25-2.17.37-4.36.18-6.54-.03-.31-.02-.61-.02-.92-.04-2.08-.22-4.15-.48-6.21-.17-1.4-.34-2.8-.53-4.29-.13.38-.14.68-.12.99Z"/>
  <g>
    <path class="cls-1" d="M40.33,47.22c-.11.67-.43,1.23-.93,1.66-.35.31-.7.33-1.07.04-.25-.2-.47-.27-.77-.16-.45.17-.82-.02-1.1-.34-.28-.31-.22-.71-.07-1.08.1-.25.25-.48.41-.7.13-.18.16-.31.01-.52-.44-.66-.18-1.36.59-1.52.73-.15,1.46-.17,1.93.61.07.12.16.21.3.14.45-.21.92-.25,1.4-.26.17,0,.2-.13.09-.26-.05-.05-.1-.1-.15-.15-1.39-1.2-2.85-2.26-4.6-2.86-.97-.33-1.95-.53-2.97-.44-1.01.1-1.82.68-2.63,1.23-.19.13-.19.25.03.35.59.27.77.74.76,1.36-.03.92-.42,1.67-.98,2.35-.15.18-.34.31-.55.41-.66.31-1.31.08-1.56-.62-.11-.3-.24-.31-.47-.22-.1.04-.2.06-.31.08-.52.1-.95-.1-1.27-.5-.3-.39-.21-.82-.02-1.23.08-.18.17-.37.32-.5.29-.26.28-.41-.07-.66-.56-.42-.61-1-.19-1.56.25-.34.57-.58.98-.71.84-.27,1.63-.15,2.33.35.34.24.55.2.84-.01.49-.36,1.02-.65,1.57-.9.9-.42,1.85-.65,2.84-.56,1.01.09,1.99.35,2.92.77,1.86.83,3.43,2.09,4.91,3.48,1.61,1.52,2.94,3.28,4.16,5.13,3.02,4.6,5.08,9.63,6.49,14.96.13.5.04.92-.1,1.36-.04.14-.12.22-.27.21-.15-.02-.3-.09-.29-.26.04-.48-.21-.87-.36-1.29-1-2.69-2.08-5.34-3.26-7.95-.29-.64-.62-1.26-.93-1.89-.11-.22-.23-.4-.48-.48-.39-.12-.79-.22-1.2-.24-.47-.02-.52.04-.46.52.11.88-.1,1.69-.56,2.43-.13.2-.28.38-.48.5-.6.36-1.2.05-1.28-.65-.02-.18-.02-.36-.03-.54,0-.18-.1-.26-.28-.21-.28.07-.56.07-.84.03-.56-.08-.83-.47-.72-1.04.05-.23.15-.45.29-.64.16-.21.12-.35-.12-.46-.59-.27-.46-.83-.1-1.19.85-.84,2.07-.73,2.75.25.03.04.06.09.08.14.07.11.16.14.28.1.6-.22,1.2-.27,1.83-.15.29.05.36-.07.2-.34-.25-.44-.51-.87-.78-1.3-1.06-1.67-2.2-3.28-3.56-4.72-.43-.46-.94-.67-1.57-.59-.49.06-.98.14-1.51.34.48.14.63.48.56.93ZM30.66,43.87c.02-.44-.16-.56-.6-.47-.05,0-.1.03-.16.03-.46.04-.76-.25-.68-.71.06-.35.04-.65-.26-.87-.33-.25-.67-.15-1,.03-.28.15-.47.38-.58.68-.13.34-.04.51.31.58.16.03.32.04.47.09.4.15.45.35.17.68-.22.26-.45.51-.65.78-.13.18-.37.43-.22.62.18.22.4-.06.59-.16.24-.12.45-.29.67-.43.21-.13.43-.15.66-.05.32.15.39.27.3.64-.07.29-.21.56-.21.98.74-.7,1.15-1.47,1.18-2.41ZM45.14,54.13c-.03-.14-.11-.19-.27-.17-.59.1-.59.1-.77-.5-.07-.23-.18-.43-.33-.61-.29-.35-.63-.37-.98-.09-.12.09-.21.2-.16.37.04.14.15.2.28.22.16.02.32.02.47.04.13,0,.25.03.29.18.03.12-.04.21-.12.28-.13.12-.28.23-.4.36-.21.23-.36.5-.33.83.04.34.3.45.57.25.13-.09.24-.22.35-.33.16-.15.34-.26.56-.28.3-.03.43.07.44.39,0,.34,0,.69,0,1.03,0,.07,0,.15.13.2.36-.69.46-1.4.28-2.16ZM37.9,47.66c.11-.11.21-.24.36-.31.39-.16.69.07.65.5,0,.07-.01.14-.02.21,0,.02.02.03.05.09.33-.27.5-.62.61-1.01.07-.24-.02-.31-.28-.26-.03,0-.07.03-.1.03-.4.05-.65-.19-.59-.59.06-.35.02-.68-.15-.99-.09-.16-.21-.3-.42-.24-.24.06-.43.17-.49.44-.04.21.07.33.24.44.41.27.42.29.11.68-.22.28-.43.57-.57.91-.07.16-.18.32-.04.53.27-.04.45-.24.64-.43Z"/>
    <path class="cls-1" d="M63.39,70.68c.17.66-.21,1.15-.88,1.17-.36.01-.71-.07-1-.29-.22-.17-.41-.19-.67-.04-.81.46-1.63.15-2-.72-.08-.18-.16-.36-.21-.56-.2-.86-.13-1.66.6-2.26.19-.16.17-.28.02-.45-.46-.5-1.49-.68-2.04-.07-1.09,1.22-2.17,2.43-3.1,3.78-.35.5-.69,1.01-1.03,1.52-.11.17-.27.25-.46.15-.18-.09-.24-.26-.19-.46.08-.28.18-.55.3-.81.92-1.9,2.2-3.53,3.58-5.09,1.83-2.07,3.97-3.77,6.28-5.23,2.59-1.63,5.31-2.89,8.4-3.13,1.61-.13,3.15.1,4.58.87,1.62.86,2.39,2.32,2.57,4.11.04.4.12.61.47.79.53.27.81.75.87,1.35.08.82-.18,1.54-.67,2.17-.3.38-.63.42-1.03.17q-.37-.22-.66.04c-.05.05-.1.1-.16.14-.59.48-1.17.39-1.58-.25-.15-.24-.2-.51-.15-.78.06-.31-.02-.43-.34-.51-.65-.17-.98-.79-.79-1.37.32-.98,1.39-1.81,2.41-1.84.21,0,.3-.06.27-.28-.11-.76-.31-1.49-.7-2.15-.61-1.03-1.62-1.37-2.71-1.48-1.89-.18-3.7.16-5.46.86-.12.05-.28.06-.33.27.13.1.26.22.4.33.42.34.81.71,1.09,1.18.23.39.44.81.39,1.27-.04.32.06.47.32.59,1.05.47,1.15,1.73.58,2.64-.24.39-.46.48-.89.36-.24-.07-.36,0-.48.19-.14.21-.29.41-.48.58-.3.26-.65.41-1.03.25-.38-.16-.61-.49-.66-.92-.04-.34-.05-.69.05-1.02.09-.3.09-.5-.21-.73-.49-.38-.49-.67-.25-1.24.26-.61.68-.95,1.34-.97.25,0,.36-.11.31-.38-.1-.51-.29-.97-.66-1.34-.52-.52-.71-.55-1.35-.22-2.65,1.38-5.06,3.11-7.3,5.11-.09.08-.21.15-.21.37.74.21,1.33.72,1.95,1.19.18.14.39.16.61.11.16-.03.31-.06.47-.1.75-.17,1.36.11,1.85.67.65.74.58,1.17-.31,1.66.11.29.23.53.3.79ZM61.23,68.25c-.35.15-.68.28-1.07.17-.15-.04-.26.05-.36.17-.36.49-.27,1.86.16,2.31.13.14.25.12.35-.03.1-.16.12-.34.13-.52.02-.27.17-.43.43-.48.26-.05.49,0,.62.28.12.26.29.49.5.69.08.07.16.17.27.1.1-.07.07-.19.06-.3-.01-.13-.08-.23-.16-.34-.19-.28-.35-.58-.62-.81-.21-.18-.16-.38.1-.49.22-.1.44-.13.67-.02.11.05.21.14.39.11-.21-.78-.82-1.13-1.49-.85ZM75.76,65.05c.25-.17.49-.16.74,0,.29.2.32.29.16.62-.32.67-.35.77-.33,1.26.34-.16.49-.48.68-.74.51-.66.66-.68,1.28-.07.2-.37.24-.76.18-1.15-.07-.49-.34-.76-.84-.81-.2-.02-.38-.08-.55-.18-.14-.09-.28-.17-.45-.11-.7.25-1.15.76-1.53,1.48.32-.03.48-.19.65-.3ZM68.57,65.5c.18-.47.37-.53.78-.23.1.07.19.16.3.26.18-.26.24-.53.23-.82-.02-.39-.19-.59-.57-.66-.23-.04-.44-.12-.64-.23-.56-.33-.93-.21-1.33.38.11.14.26.02.39.05.45.1.62.45.39.86-.17.3-.28.62-.37.95-.05.21-.1.41,0,.71.41-.4.65-.81.83-1.26Z"/>
  </g>
  <path class="cls-1" d="M66.17,28.34c1.12-.95,2.17-1.97,3.1-3.11.99-1.21,1.88-2.49,2.72-3.81.11-.17.21-.34.39-.44.22-.12.35-.05.43.19.11.36.07.71-.03,1.06-.4,1.42-.57,2.87-.52,4.34.03,1.08.04,2.17-.01,3.26-.1,1.88-.59,3.63-1.64,5.2-.57.85-1.33,1.5-2.06,2.18-.87.8-1.72,1.62-2.34,2.65-.45.74-.76,1.55-1.05,2.37-.59,1.62-1.48,3.04-2.72,4.22-.38.36-.73.74-1.09,1.11-1.89,1.99-3.37,4.22-4.14,6.92-.4,1.39-.71,2.8-1.19,4.16-.3.85-.67,1.67-.88,2.55-.27,1.12-.65,2.22-.83,3.36-.23,1.49-.19,2.99-.3,4.49-.09,1.16-.23,2.31-.62,3.4-.7,1.96-11.12,18.4-12.57,19.89-1.34,1.37-2.68,2.74-3.85,4.27-.15.2-.31.4-.48.58-.21.22-.31.19-.43-.08-.19-.47-.37-.94-.56-1.4-.13-.3-.07-.55.13-.8.48-.58.95-1.17,1.44-1.74.85-.97,1.8-1.85,2.67-2.8,1.32-1.44,11.69-17.76,12.22-19.65.38-1.35.46-2.74.51-4.13.07-1.87.32-3.7.9-5.49.69-2.14,1.04-4.35,1.15-6.6.04-.9.01-1.81.19-2.7.17-.85.12-1.68-.12-2.51-.25-.89-.3-1.82-.53-2.71-.19-.72-.45-1.41-.93-1.99-.35-.43-.68-.88-1.04-1.31-.98-1.14-1.73-2.42-2.32-3.81-.49-1.16-1.04-2.3-1.51-3.47-.56-1.41-1.18-2.79-1.77-4.18-.11-.27-.24-.52-.43-.74-.44-.53-.78-1.1-.86-1.82-.03-.3-.07-.6-.12-.9-.16-1.11-.24-2.2-.01-3.32.18-.88.32-1.77.41-2.67.07-.7.09-1.4.1-2.1,0-.49-.11-.96-.13-1.45-.05-1.27-.24-2.52-.54-3.75-.19-.75-.37-1.51-.41-2.29-.03-.53.27-.87.76-.93.35-.05.57.19.76.42.52.6.96,1.24,1.28,1.98.38.87.73,1.76,1.19,2.6.98,1.8,2.04,3.56,2.87,5.44.78,1.76,1.32,3.58,1.76,5.45.33,1.39.4,2.82.43,4.25.03,1.55-.04,3.11.08,4.66.14,1.74.7,3.31,1.48,4.83.03.06.06.13.19.12.03-.27,0-.55-.03-.84-.09-.83-.11-1.66-.01-2.49.25-2.13.72-4.21,1.44-6.22.63-1.79,1.16-3.61,1.62-5.45.41-1.62,1-3.17,1.98-4.53.44-.61.89-1.21,1.37-1.8.86-1.06,1.63-2.19,2.3-3.38,1.05-1.86,2.01-3.78,3.12-5.62.39-.65.8-1.28,1.25-1.88.37-.48.81-.86,1.42-.98.58-.12.91.03,1.19.55.36.67.5,1.4.4,2.15-.19,1.4-.37,2.8-.45,4.2-.09,1.67-.36,3.3-.85,4.9-.49,1.59-1.2,3.05-2.22,4.35-.49.62-.96,1.25-1.34,1.95-.32.59-.48,1.22-.61,2,.19-.1.26-.12.31-.17ZM57.96,49.01c.94-1.3,2.09-2.41,3.24-3.51,1.11-1.06,1.9-2.32,2.44-3.76.42-1.1.86-2.18,1.63-3.09.69-.83,1.48-1.55,2.31-2.23.89-.73,1.69-1.53,2.27-2.55.68-1.2,1.03-2.49,1.19-3.85.19-1.51.11-3.03.23-4.55,0-.06.02-.14-.09-.23-.17.5-.34.99-.5,1.48-.28.86-.53,1.72-.86,2.57-.51,1.32-1.32,2.43-2.36,3.36-1.61,1.45-3.14,2.97-4.33,4.82-.85,1.31-1.45,2.73-1.92,4.22-.54,1.72-1.31,3.31-2.26,4.83-.65,1.03-1.2,2.13-1.72,3.24-.06.12-.16.24-.12.46.3-.43.57-.82.85-1.2ZM60.59,40.39c.49-1.59,1.42-2.94,2.4-4.25,1.08-1.45,2.4-2.64,3.74-3.83,1.02-.9,1.8-1.99,2.31-3.27.41-1.02.77-2.06,1.14-3.09.03-.09.1-.19.04-.31-.15,0-.2.13-.27.22-1.22,1.59-2.68,2.93-4.21,4.2-1.98,1.64-3.89,3.37-5.42,5.47-1.76,2.41-2.76,5.1-2.97,8.11-.09,1.26-.08,2.53-.31,3.89,1.57-2.28,2.77-4.6,3.55-7.14ZM69.7,10.96c-.31.98-.55,1.98-.81,2.98-.18.69-.33,1.41-.51,2.1-.4,1.55-1.18,2.9-2.14,4.15-1.22,1.58-2.37,3.2-3.32,4.97-.73,1.37-1.4,2.77-1.85,4.26-.56,1.86-1.36,3.61-2.2,5.34-.07.14-.17.27-.17.51.33-.4.61-.75.9-1.1.94-1.14,2.01-2.14,3.16-3.05.42-.33.83-.67,1.25-1,.28-.22.44-.51.55-.85.2-.6.31-1.23.42-1.85.14-.8.43-1.53.88-2.19.25-.37.49-.75.77-1.1,1.38-1.75,2.12-3.78,2.61-5.94.25-1.12.32-2.25.41-3.39.08-1.14.21-2.27.39-3.39.07-.45.06-.89-.05-1.36-.1.3-.2.6-.3.9ZM53.67,43.6c-.68-1.08-1.26-2.21-1.84-3.35-.24-.47-.37-.98-.53-1.47-.4-1.27-.97-2.49-1.27-3.79-.36-1.53-.51-3.09-.56-4.67-.02-.69-.05-1.37-.07-2.06-.02-.52,0-1.04.04-1.57.08-1.08-.09-2.13-.43-3.15-.67-1.98-1.34-3.96-2.11-5.91-.11-.27-.23-.53-.22-.83,0-.15-.08-.27-.24-.37.04.45.08.87.11,1.3.05.61.08,1.23.14,1.84.13,1.31-.03,2.6-.26,3.88-.23,1.25-.39,2.49-.32,3.77.06,1.02.17,2.01.64,2.94.11.23.21.48.18.73-.04.35.08.64.22.93.79,1.62,1.48,3.28,2.19,4.94.65,1.5,1.34,2.99,2.1,4.44.32.61.77,1.13,1.19,1.66.4.5.8,1,1.2,1.5.06-.3-.02-.54-.16-.75ZM68.07,11.79c-.87,1.53-1.73,3.08-2.56,4.63-.95,1.79-2.09,3.44-3.38,4.99-1.27,1.52-2.14,3.26-2.59,5.17-.58,2.45-1.39,4.82-2.12,7.22-.26.85-.46,1.71-.65,2.57-.02.1-.02.21,0,.33.23-.24.3-.56.43-.84.62-1.32,1.23-2.65,1.83-3.98.39-.86.64-1.76.92-2.66.92-2.87,2.37-5.44,4.19-7.81.55-.71,1.11-1.41,1.66-2.11.69-.89,1.19-1.88,1.54-2.95.33-.99.68-1.98.96-2.99.19-.7.36-1.4.59-2.08.08-.24.16-.48.25-.71.07-.18.14-.36.14-.66-.5.65-.88,1.26-1.23,1.88ZM49.07,21.34c.27.73.54,1.46.79,2.19.27.77.4,1.57.4,2.39,0,2.08.11,4.16.22,6.23.1,1.74.46,3.43,1.02,5.08.61,1.82,1.35,3.57,2.33,5.22.62,1.05,1.06,2.16,1.23,3.38.03.19.22.43-.13.53-.01.26,0,.51.16.72.04.06.1.09.11.17.02.09-.26.12-.05.21.1.04.17-.12.17-.23,0-.42.02-.83-.02-1.25-.05-.54-.13-1.08-.21-1.61-.14-.89-.47-1.7-.95-2.45-.78-1.24-1.48-2.52-1.73-3.99-.17-1.02-.29-2.04-.27-3.07.03-1.43.02-2.86,0-4.28,0-1.15-.21-2.27-.46-3.38-.64-2.77-1.83-5.31-3.31-7.74.23.62.46,1.24.69,1.86Z"/>
  <path class="cls-1" d="M22.88,28.83c.11-.03.15-.05.18-.04,1.62.67,3.32,1.03,5.04,1.29,2.14.33,4.09,1.15,5.9,2.34,1.46.96,3.01,1.77,4.53,2.62.06.03.12.08.19.11.24.1.47.02.58-.2.1-.22-.02-.34-.18-.44-.45-.28-.89-.6-1.37-.84-1.43-.69-2.73-1.61-4.09-2.42-1.71-1.01-3.53-1.65-5.5-1.89-1.46-.18-2.89-.52-4.3-.97-.18-.06-.36-.14-.52-.24.6,0,1.18.15,1.77.23,2.35.34,4.68.78,7.04,1.04,1.43.16,2.76.63,4,1.35.42.24.82.5,1.23.76.08.05.15.1.23.14.19.1.35.05.47-.12.11-.15.1-.31-.02-.45-.19-.22-.41-.4-.63-.58-1.56-1.23-3.32-1.97-5.29-2.23-1.4-.19-2.79-.48-4.19-.73-1.48-.26-2.97-.52-4.45-.76-.54-.09-1.09-.13-1.64-.15-1.07-.03-1.67,1-1.16,1.97.19.36.45.64.77.89.98.79,2.07,1.39,3.14,2.03,1.33.79,2.69,1.53,3.93,2.49.51.39,1.01.8,1.5,1.21,1.54,1.29,3.33,1.96,5.26,2.3.73.13,1.47.19,2.21.28.55.07,1.07.25,1.56.5.22.11.45.21.68.3.28.1.58,0,.75-.24.16-.23.08-.44-.06-.65-.17-.26-.4-.44-.67-.6-.9-.52-1.89-.71-2.89-.84-2.3-.3-4.41-1.06-6.21-2.58-1.73-1.46-3.7-2.54-5.67-3.61-.7-.38-1.41-.75-2.11-1.28Z"/>
</svg>