<?xml version="1.0" encoding="UTF-8"?>
<svg id="OBJECTS" xmlns="http://www.w3.org/2000/svg" viewBox="0 0 100 100">
  <defs>
    <style>
      .cls-1 {
        fill: #623c17;
      }
    </style>
  </defs>
  <g>
    <g>
      <path class="cls-1" d="M51.95,78.03c-.49-.03-.65-.26-.47-.71,1.29-3.25,2.58-6.5,3.71-9.81.58-1.71,1.24-3.38,1.9-5.06.49-1.24,1.24-2.35,1.91-3.49.67-1.14,1.47-2.17,2.38-3.12,2.65-2.79,5.56-5.29,8.58-7.67,1.04-.82,2.14-1.57,3.11-2.48.18-.17.36-.31.62-.14.3.19.48.53.4.83-.03.12-.09.24-.16.35-1.14,1.83-1.95,3.82-2.76,5.82-.85,2.09-1.73,4.17-2.78,6.17-.62,1.18-1.35,2.29-2.25,3.28-.53.58-1.15,1.06-1.8,1.5-1.58,1.05-3.16,2.08-4.74,3.13-1.56,1.04-2.82,2.4-4.02,3.83-.37.44-.52,1-.74,1.52-.75,1.78-1.49,3.56-2.23,5.34-.08.18-.17.36-.27.54-.09.16-.23.23-.41.2ZM60.48,59.04c.1.04.14-.03.19-.08.4-.38.79-.75,1.19-1.13.87-.82,1.92-1.45,2.7-2.39.03-.04.08-.07.12-.11.16-.11.31-.07.45.03.14.1.15.24.09.39-.07.19-.18.36-.31.51-.44.51-.89,1.01-1.34,1.51-.6.66-1.15,1.36-1.62,2.12-.23.37-.4.78-.5,1.32.45-.43.81-.79,1.13-1.18.18-.21.38-.18.59-.05.19.13.15.3.07.48-.12.26-.24.53-.4.77-.62.95-1.32,1.83-2.12,2.63-.1.09-.24.17-.21.35.18.05.27-.09.39-.16.68-.42,1.35-.87,2.04-1.27,1.53-.9,2.69-2.16,3.61-3.66.91-1.48,1.66-3.03,2.38-4.61.88-1.92,1.73-3.85,2.6-5.78.03-.07.12-.15.01-.25-1.09.79-2.12,1.66-3.13,2.54-1,.87-2.01,1.74-2.99,2.63-1.69,1.53-3.34,3.1-4.68,4.95-.09.13-.21.24-.23.41Z"/>
      <path class="cls-1" d="M68.95,5.14c-.08.43-.19.97-.28,1.51-.19,1.13-.34,2.26-.42,3.41-.12,1.72-.2,3.45-.22,5.18-.02,1.16-.08,2.33-.2,3.48-.23,2.31-1.02,4.4-2.66,6.09-1.04,1.07-2.25,1.96-3.54,2.72-.66.39-1.31.79-1.97,1.17-1.05.59-2.01,1.32-2.87,2.16-.38.37-.71.78-.99,1.23-.11.17-.22.34-.35.49-.16.19-.36.21-.59.08-.24-.13-.22-.32-.13-.51.39-.85.6-1.75.86-2.64.56-1.88.79-3.81.87-5.76.04-1.07.06-2.13.33-3.19.35-1.35,1.02-2.48,2.01-3.44,1.01-.98,1.95-2.01,2.76-3.17.77-1.09,1.41-2.25,2-3.44.69-1.39,1.41-2.76,2.38-3.97.56-.7,1.13-1.38,1.7-2.07.29-.34.4-.38.69-.27.43.17.66.47.63.96ZM63.28,16.34c.07.24-.06.39-.13.55-.67,1.4-1.45,2.74-2.2,4.09-.62,1.11-1.32,2.18-1.74,3.39-.3.88-.63,1.75-1.01,2.59-.05.12-.15.24-.1.48.57-.75,1.02-1.46,1.39-2.23.09-.18.16-.39.31-.51.31-.25.5-.58.73-.87.23-.28.46-.56.7-.84.07-.08.14-.23.32-.14-.27,1.72-1.15,3.19-1.99,4.75.26-.05.39-.18.54-.27.95-.62,1.77-1.4,2.66-2.09,2.01-1.58,3.1-3.67,3.52-6.15.25-1.51.29-3.04.32-4.57.03-1.9.22-3.78.42-5.66.06-.58.14-1.17.21-1.78-.09.04-.13.04-.15.06-.09.11-.17.23-.26.35-.8,1.11-1.42,2.33-2.01,3.56-.35.72-.68,1.45-1.09,2.14-1.05,1.74-2.31,3.31-3.81,4.68-.63.58-1.19,1.23-1.5,2.06-.15.39-.29.78-.39,1.19-.19.74-.29,1.5-.39,2.26-.02.14-.06.31.09.4.19.1.31-.06.41-.18.14-.17.27-.34.38-.53.87-1.41,1.81-2.78,2.78-4.11.54-.74,1.06-1.48,1.59-2.22.1-.14.17-.33.41-.38Z"/>
      <path class="cls-1" d="M51.15,53.25c.02-.41.03-.81.08-1.21.09-.87.19-1.74.3-2.6.02-.14.03-.3.1-.42.49-.9.73-1.9,1.03-2.88.48-1.54,1.12-3,2.01-4.35.78-1.19,1.49-2.42,2.14-3.68.84-1.63,2.08-2.93,3.5-4.07,1.25-1,2.52-1.98,3.75-3.01.91-.76,1.78-1.56,2.66-2.35,1.42-1.28,2.75-2.65,4.11-3.99.03-.03.05-.05.08-.08.16-.14.32-.35.56-.22.25.13.43.34.44.65,0,.23-.08.42-.2.61-.48.77-.98,1.53-1.4,2.34-.56,1.09-1.04,2.2-1.42,3.37-.51,1.56-.95,3.14-1.53,4.67-.53,1.4-1.27,2.66-2.26,3.77-.94,1.05-2.1,1.78-3.37,2.38-1.46.7-2.94,1.36-4.29,2.28-1.7,1.16-3.09,2.58-4.02,4.44-.42.85-.9,1.66-1.26,2.54-.1.24-.21.47-.24.72-.07.48-.49.72-.64,1.13-.04-.01-.08-.02-.11-.04ZM55.63,44.22c1.66-1.29,3.54-2.18,5.43-3.04,1.96-.89,3.39-2.34,4.47-4.18.68-1.16,1.08-2.42,1.51-3.68.56-1.67,1.03-3.38,1.83-4.97.04-.07.1-.16,0-.26-1.01,1.19-2.2,2.21-3.35,3.26-1.35,1.25-2.87,2.3-4.27,3.49-1.05.88-2.06,1.8-2.78,2.98-.66,1.07-1.28,2.16-1.91,3.25-.02.03.01.06.09.07.64-.66,1.33-1.31,2.06-1.9,2.07-1.68,4.03-3.47,5.57-5.67.08-.11.14-.23.3-.16.16.07.29.18.27.37-.01.12-.06.25-.12.36-.21.43-.47.82-.76,1.2-1.02,1.38-2.27,2.56-3.52,3.73-1.08,1.01-2.18,1.98-3.2,3.05-.62.64-1.21,1.3-1.62,2.12Z"/>
      <path class="cls-1" d="M44.96,19.53c-.06-2.24.13-4.48.25-6.71.03-.53.1-1.05.1-1.58,0-.14-.05-.32.14-.37.19-.05.37.02.47.2.17.3.35.6.48.92,1.11,2.75,2.45,5.4,3.72,8.09.94,2.01,1.69,4.07,2.03,6.26.09.61.18,1.22.16,1.85-.06,1.85.12,3.67.67,5.45.31,1.02.39,2.07.46,3.12.07.89.05,1.78.16,2.67.07.54-.03.68-.47.84-.37.14-.55.07-.67-.31-.11-.33-.17-.67-.26-1-.33-1.35-.81-2.66-1.55-3.83-.92-1.47-1.78-2.97-2.66-4.45-.41-.69-.87-1.34-1.26-2.05-.92-1.65-1.45-3.41-1.67-5.28-.15-1.27-.07-2.55-.1-3.82ZM49.28,30.05c-.02-.07-.03-.14-.05-.2-.34-1.04-.56-2.11-.69-3.2-.14-1.19-.26-2.39-.61-3.55-.04-.14-.07-.29-.07-.43-.01-.22.17-.33.36-.22.17.09.25.26.33.42.48,1.03.76,2.12.93,3.24.15.97.31,1.94.57,2.89.28,1,.72,1.92,1.33,2.77-.23-1.52-.16-3.05-.18-4.58,0-.16-.02-.33-.04-.49-.27-2.34-.99-4.55-1.97-6.67-.95-2.03-1.91-4.05-2.8-6.11-.05-.13-.08-.28-.25-.36-.07.14-.04.29-.04.42-.06,2.4.05,4.8.11,7.21.04,1.74.32,3.44.91,5.08.49,1.38,1.26,2.61,2.17,3.76Z"/>
      <path class="cls-1" d="M27.56,40.48c.12.01.19.1.28.17,1.56,1.26,3.26,2.32,4.8,3.61.29.24.6.47,1,.54.1.02.2.09.29.15,1.8,1.24,3.51,2.59,5,4.21.82.89,1.42,1.92,1.89,3.04.88,2.14,1.97,4.17,3.23,6.12.1.15.2.3.29.46.04.08.06.17-.03.25-.08.06-.17.08-.26.05-.16-.06-.28-.17-.38-.3-.17-.21-.38-.32-.62-.43-1.17-.56-2.24-1.29-3.33-1.98-.83-.53-1.64-1.09-2.45-1.64-1.17-.79-2.16-1.78-2.97-2.94-2.39-3.42-4.61-6.94-6.64-10.59-.09-.16-.16-.32-.22-.5-.03-.09,0-.18.12-.21ZM40.15,53.83c-.46-1.18-.88-2.32-1.62-3.3-1.12-1.48-2.48-2.71-3.92-3.85-1.27-1-2.58-1.96-3.87-2.93-.09-.07-.17-.21-.35-.11,1.96,3.47,4.26,6.66,7.23,9.48-.07-.14-.08-.19-.11-.23-.76-.89-1.41-1.86-2.09-2.8-.13-.18-.23-.37-.34-.56-.1-.16-.08-.29.08-.42.18-.15.3-.05.42.07.34.38.69.75,1,1.16.88,1.16,1.9,2.2,3,3.16.16.14.3.3.6.34Z"/>
      <path class="cls-1" d="M48.09,63.84c-.21.36.08.58.34.82.19.17.37.35.54.54.07.08.16.16.19.26.08.2.07.41-.12.54-.18.13-.3-.02-.42-.14-.83-.79-1.74-1.49-2.63-2.21-.72-.59-1.52-.99-2.39-1.28-1.8-.6-3.64-1.06-5.52-1.31-2.14-.28-3.88-1.29-5.33-2.85-.68-.74-1.44-1.39-2.2-2.05-.12-.11-.27-.18-.41-.27-.32-.21-.64-.42-.95-.64-.12-.08-.26-.19-.18-.35.08-.18.25-.28.45-.23.12.03.25.07.35.14,1.31.74,2.73,1.18,4.18,1.56,1.21.32,2.44.59,3.64.97,1.5.48,2.89,1.17,4.16,2.12,1.32,1,2.73,1.89,4.19,2.67.66.35,1.23.84,1.89,1.2.17.1.28.23.21.51ZM40.74,60.35c-.81-.81-1.77-1.36-2.8-1.8-1.34-.58-2.76-.94-4.16-1.32-.25-.07-.51-.13-.77-.2,0,.15.07.19.12.23.65.62,1.45,1.04,2.17,1.56.92.66,1.94,1.07,3.06,1.23.79.12,1.58.2,2.38.29Z"/>
      <path class="cls-1" d="M64.75,44.73c-.04.13-.07.29-.13.44-.34.9-.68,1.81-1.03,2.71-.33.84-.93,1.42-1.78,1.74-.7.26-1.42.46-2.15.61-.93.19-1.83.49-2.72.81-1.15.42-2.03,1.18-2.83,2.08-.85.97-1.42,2.11-2.1,3.18-.19.31-.37.62-.57.93-.1.15-.22.31-.43.3-.17,0-.38.07-.5-.12-.11-.18.02-.31.1-.45.36-.67.73-1.35,1.08-2.03.97-1.88,2.25-3.52,3.76-4.99.97-.95,2.04-1.77,3.26-2.37,1.78-.88,3.41-1.96,4.82-3.36.18-.18.38-.36.67-.21.28.15.52.34.55.73ZM62.97,46.23c-.17-.06-.25.03-.33.09-.9.69-1.88,1.24-2.9,1.73-.66.32-1.29.68-1.9,1.07-.34.22-.65.48-.89.83.93-.29,1.86-.5,2.8-.72.39-.09.77-.22,1.15-.33,1.36-.38,1.75-1.49,2.07-2.67Z"/>
    </g>
    <path class="cls-1" d="M52.81,75.43c.27-.85.51-1.67.81-2.47,1.19-3.12,2.59-6.14,4.25-9.04.89-1.55,1.85-3.06,2.93-4.48.21-.27.45-.52.68-.78.17-.2.4-.25.64-.24.24.01.48.05.62.28.13.24-.04.42-.16.59-.7,1.02-1.42,2.03-2.11,3.06-1.42,2.14-2.66,4.38-3.78,6.7-1.16,2.4-2.17,4.85-2.98,7.39q-.61,1.9-.25,3.84c.59,3.15,1.29,6.28,2.29,9.33.49,1.49.99,2.97,1.67,4.39.05.11.1.23.14.36.16.49.14.51-.28.9-.28.26-.52.56-.95.59-.21.02-.35-.02-.48-.17-.21-.23-.34-.52-.47-.8-1-2.21-1.8-4.5-2.46-6.83-.93-3.3-1.57-6.66-2.02-10.06-.21-1.57-.38-3.14-.49-4.72-.07-.98-.18-1.96-.21-2.94,0-.24-.11-.46-.2-.68-1.12-2.63-2.57-5.06-4.28-7.35-1.41-1.88-2.81-3.77-4.42-5.48-.73-.78-1.5-1.54-2.25-2.31-.16-.17-.32-.35-.46-.54-.1-.13-.21-.28-.06-.44.14-.14.32-.18.51-.09.11.05.22.13.32.21,2.08,1.72,4.08,3.52,5.82,5.6,1.52,1.82,2.93,3.72,4.1,5.79.22.39.43.78.66,1.22.13-.24.08-.42.08-.6,0-1.71-.03-3.43.02-5.14.06-2.16.18-4.33.37-6.49.21-2.38.44-4.75.8-7.11.11-.76.22-1.51.35-2.27.06-.3-.02-.51-.21-.74-1.47-1.79-3.25-3.23-5.22-4.44-.93-.57-1.89-1.1-2.84-1.64-.22-.13-.45-.24-.48-.54-.04-.39.17-.59.55-.51.19.04.39.11.57.18,2.42.97,4.63,2.29,6.63,3.97.46.38.89.79,1.33,1.17.19-.11.17-.27.19-.41.49-2.6,1.14-5.16,1.85-7.7.97-3.46,2.25-6.81,3.91-10.01.18-.34.38-.67.57-.99.11-.18.26-.25.46-.15.19.09.19.25.15.42-.04.14-.09.28-.15.41-.48,1.06-.96,2.12-1.36,3.22-.24.67-.51,1.32-.76,1.98-.48,1.24-.77,2.54-1.15,3.8-.06.19-.11.39-.18.57-.22.52-.35,1.06-.45,1.62-.14.77-.31,1.53-.56,2.28-.31.92-.35,1.89-.54,2.84-.52,2.57-.89,5.17-1.19,7.77-.2,1.79-.4,3.58-.49,5.38-.09,1.73-.15,3.46-.23,5.18-.08,1.73-.08,3.46-.05,5.19.04,2.09.12,4.18.27,6.27.13,1.69.3,3.37.48,5.05.02.18.02.36.15.57Z"/>
  </g>
  <g>
    <path class="cls-1" d="M39.98,38.44c-.01,1.37-.81,2.19-1.79,2.87-.69.48-1.14,1.17-1.61,1.84-.28.39-.58.74-.92,1.08-.89.87-1.96,1.06-3.13.81-.48-.1-.94-.29-1.37-.53-.94-.52-1.96-.65-3-.69-.51-.02-1.02,0-1.53,0-.16,0-.33,0-.48-.08-.23-.12-.31-.29-.21-.54.11-.27.3-.5.53-.68.53-.42,1.07-.83,1.67-1.13,1.46-.71,2.69-1.73,3.86-2.83.6-.56,1.23-1.08,1.99-1.42.68-.31,1.39-.43,2.13-.32.33.05.65.08.98.06.98-.04,1.87.19,2.62.85.17-.09.1-.23.1-.34,0-.77.26-1.42.86-1.93.29-.25.6-.47.91-.69.82-.56,1.68-.63,2.6-.28.83.31,1.59.73,2.22,1.36.86.85,1.77,1.61,2.81,2.24.99.59,1.66,1.47,2,2.57.39,1.27-.49,2.32-1.82,2.21-.96-.08-1.92-.18-2.89-.15-.88.03-1.68-.18-2.43-.67-.64-.42-1.32-.76-2-1.12-.83-.43-1.42-1.06-1.75-1.94-.07-.18-.12-.37-.34-.55ZM36.7,37.95c-.45-.07-.84-.12-1.23-.15-.74-.05-1.4.16-2.02.55-.39.25-.74.55-1.05.87-1.25,1.29-2.66,2.37-4.28,3.16-.1.05-.26.07-.23.29.29,0,.58.01.86,0,1.11-.05,2.17.15,3.16.67.26.14.53.24.81.33.36.12.73.19,1.13.16.89-.07,1.52-.54,2.03-1.23.34-.47.68-.95,1.02-1.42.26-.37.6-.68.92-1.01-.22.03-.41.1-.6.15-.28.07-.56.14-.85.2-.12.02-.27.04-.32-.12-.04-.13,0-.26.09-.35.06-.06.14-.12.22-.17.23-.15.48-.27.74-.35.21-.07.4-.15.56-.36-.27-.09-.5-.04-.72.01-.69.15-1.29.48-1.87.86-.41.27-.82.54-1.27.74-.13.06-.27.11-.41.15-.09.03-.19.04-.26-.04-.09-.09-.06-.2-.03-.31.05-.17.19-.27.33-.35,1.08-.67,2-1.58,3.18-2.11.03-.01.04-.06.11-.16ZM40.97,37.62c.1.74.32,1.43.95,1.92.26.2.54.37.84.51.81.38,1.63.72,2.4,1.19.45.27.94.37,1.46.37,1.05,0,2.11-.08,3.16.06.38.05.46-.08.33-.45-.03-.1-.08-.2-.13-.3-.39-.88-1.09-1.44-1.89-1.91-.66-.39-1.27-.85-1.81-1.4-.53-.53-1.08-1.03-1.68-1.48-.5-.37-1.05-.66-1.66-.81-.67-.17-1.28.12-1.63.73.08.06.18.05.26.03,1.02-.24,1.81.15,2.51.85.82.82,1.53,1.76,2.45,2.49.08.06.12.14.06.24-.05.08-.13.14-.23.12-.12-.02-.24-.07-.36-.12-.7-.32-1.34-.74-1.89-1.28-.37-.36-.78-.66-1.21-.93-.24-.15-.49-.3-.84-.32.07.13.16.15.23.19.17.1.4.18.29.44-.11.24-.33.26-.56.18-.22-.08-.44-.17-.66-.25-.11-.04-.2-.16-.4-.07Z"/>
    <path class="cls-1" d="M37.74,28.07c.04-1.24-.09-2.48-.24-3.7-.16-1.34,0-2.65.18-3.97.11-.79.26-1.58.39-2.37.08-.49.15-.59.46-.63.39-.06.67.07.85.43.56,1.14,1.37,2.1,2.26,2.99.98.98,1.95,1.96,2.76,3.1.43.61.82,1.24,1.05,1.97.27.88.25,1.73-.15,2.55-.6,1.25-1.17,2.51-1.59,3.83-.26.83-.85,1.37-1.65,1.72-1.01.45-1.01.47-1.83-.24-.6-.51-1.13-1.08-1.59-1.72-.62-.86-.91-1.81-.91-2.86,0-.36,0-.73,0-1.09ZM41.22,31.39c.06-.31,0-.52-.04-.73-.03-.16-.06-.32-.07-.49-.01-.2.06-.36.27-.42.2-.06.32.06.4.21.12.23.22.46.31.7.11.3.21.6.31.9.34-1.07.88-2.03,1.38-2.99.57-1.08.5-2.13-.02-3.19-.45-.92-1.05-1.75-1.73-2.51-.64-.72-1.3-1.43-1.93-2.15-.35-.41-.68-.84-1.02-1.27-.04.06-.08.08-.08.11-.33,1.86-.46,3.72-.21,5.6.17,1.29.08,2.58.03,3.87-.03.87.09,1.69.73,2.37-.04-.47-.04-.93-.06-1.39-.04-1.17.57-2.22.62-3.37,0-.17.16-.23.32-.24.15-.01.24.09.28.21.05.14.1.28.11.42.02.55.04,1.09-.04,1.64-.14.93-.1,1.85.45,2.76Z"/>
    <path class="cls-1" d="M42.25,42.21c0,1.03-.31,1.85-.85,2.56-1.09,1.42-1.83,3.02-2.4,4.7-.11.33-.26.64-.49.91-.41.48-.9.42-1.14-.17-.42-1.05-.85-2.09-1.19-3.17-.26-.79-.17-1.55.22-2.27.12-.22.24-.45.38-.66.93-1.38,1.42-2.95,1.84-4.53.15-.54.28-1.09.41-1.64.08-.33.28-.55.56-.7.42-.24.82-.17,1.12.2.27.33.48.7.55,1.12.12.69.36,1.33.61,1.98.22.58.35,1.19.38,1.69ZM39.83,38.28c-.15.41-.25.75-.32,1.11-.2.95-.5,1.86-.79,2.78-.26.82-.71,1.56-1.17,2.28-.5.78-.56,1.59-.2,2.45.23.55.44,1.12.66,1.68.05.12.06.29.25.31.03-.03.07-.05.08-.08.05-.1.1-.19.14-.3.44-1.31,1.09-2.5,1.91-3.61.86-1.16.95-2.41.45-3.73-.27-.72-.52-1.44-.66-2.19-.04-.23-.1-.46-.36-.7Z"/>
    <path class="cls-1" d="M41.95,35.61c-.32,0-.63-.04-.92-.13-.68-.2-.89-.82-.52-1.42.31-.49.78-.81,1.22-1.16.74-.59,1.35-1.26,1.8-2.1.51-.96,1.28-1.66,2.16-2.26.75-.51,1.47-1.07,2.01-1.82.14-.2.27-.39.57-.27.32.13.52.4.49.71-.01.12-.05.25-.1.37-.43,1.2-.74,2.43-1.06,3.67-.2.76-.46,1.51-1,2.1-1.25,1.38-2.79,2.17-4.66,2.31ZM47.02,28.99c-.15-.08-.22,0-.29.04-.98.62-1.82,1.38-2.41,2.4-.57.99-1.31,1.83-2.25,2.49-.18.12-.33.29-.48.44-.09.09-.21.18-.13.33.08.14.22.11.34.08,1.62-.33,3.03-1.02,3.98-2.44.68-1.02.85-2.22,1.23-3.34Z"/>
    <path class="cls-1" d="M34.09,25.93c.53.03,1.17.18,1.69.69.47.46.68,1,.48,1.64-.12.37-.03.65.19.96.37.49.85.85,1.32,1.22.63.49,1.28.96,1.91,1.46.51.41.98.87,1.33,1.43.66,1.07.69,2.16.13,3.27-.44.86-1.62,1.67-2.89,1.44-.88-.17-1.65-.56-2.42-.98-.77-.41-1.58-.74-2.43-.95-.32-.08-.54-.02-.79.21-.8.74-1.74.93-2.79.61-.83-.26-1.26-.84-1.26-1.7,0-.63.16-1.23.48-1.77.16-.26.17-.48,0-.75-.61-1-.46-1.98.16-2.92.42-.63,1.05-.87,1.75-1,.45-.08.47-.1.53-.54.01-.09.01-.18.03-.27.21-1.34,1.04-2.05,2.56-2.04ZM29.7,34.68c.01.83.38,1.36,1.01,1.5.43.1.65.01.89-.35.19-.28.3-.59.34-.91.05-.38.1-.76.13-1.14.04-.54.31-.87.83-1.01.16-.04.32-.08.48-.12.49-.14.72-.42.77-.94.03-.31,0-.62-.12-.91-.08-.22-.17-.44-.25-.67-.15-.45-.07-.7.31-1,.09-.07.18-.12.27-.19.37-.29.6-.64.49-1.13-.12-.53-.45-.85-.98-.99-.25-.06-.44,0-.57.21-.09.14-.15.29-.21.44-.14.36-.14.75-.13,1.13.02.44-.18.72-.57.9-.32.15-.66.22-1.01.18-.46-.05-.76.17-.96.56-.12.23-.19.47-.21.73-.03.47.1.89.36,1.29.31.47.28.57-.2.85-.19.11-.36.23-.44.46-.14.38-.21.77-.24,1.12ZM40.19,34.15c-.07-.34-.25-.48-.4-.63-.78-.82-1.71-1.47-2.57-2.2-.59-.49-1.19-.96-1.64-1.59-.07-.09-.12-.24-.31-.17-.05.11,0,.21.04.3.14.3.26.6.33.92.23.97-.14,1.83-1.01,2.31-.24.13-.49.24-.75.33-.24.08-.36.22-.38.47-.02.29-.08.58-.12.87-.05.42-.05.42.37.47.91.11,1.78.35,2.61.77.42.21.86.4,1.29.58.32.13.65.28,1.01.24-.29-.23-.6-.42-.89-.63-.94-.69-1.9-1.36-3.11-1.5-.13-.01-.25-.08-.24-.24,0-.14.09-.25.22-.28.14-.03.29-.05.43-.04.7.03,1.37.21,1.98.56.52.3,1.01.65,1.52.96.47.28.98.4,1.52.32.32-.05.37-.16.21-.45-.13-.25-.33-.43-.56-.59-.55-.4-1.1-.79-1.69-1.11-.22-.12-.44-.26-.61-.46-.1-.12-.14-.26-.05-.4.09-.14.22-.11.34-.06.14.05.27.11.4.18.67.32,1.36.58,2.05,1.07Z"/>
  </g>
</svg>