<?xml version="1.0" encoding="UTF-8"?>
<svg id="OBJECTS" xmlns="http://www.w3.org/2000/svg" viewBox="0 0 100 100">
  <defs>
    <style>
      .cls-1 {
        fill: #623c17;
      }
    </style>
  </defs>
  <path class="cls-1" d="M46.27,79.35c0-.52.09-1.05.22-1.56.38-1.46.5-2.96.56-4.46.08-1.79.35-3.53,1.08-5.18.37-.84.69-1.69,1.01-2.55.3-.78.58-1.57.7-2.41.07-.48.13-.97.17-1.45.08-1.06.26-2.1.67-3.08.91-2.19,1.81-4.39,3.04-6.42.38-.63.83-1.21,1.29-1.78.39-.49.57-1.05.61-1.67.08-1.2-.1-2.33-.65-3.4-.21-.42-.41-.84-.64-1.25-1.01-1.83-1.54-3.81-1.81-5.88-.09-.68-.17-1.35-.24-2.03-.12-1.14-.65-2.06-1.4-2.88-1.34-1.48-2.91-2.62-4.64-3.58-.7-.39-1.4-.8-2.08-1.22-.19-.12-.54-.25-.38-.53.12-.21.37.06.55.15,1.37.72,2.8,1.32,4.14,2.12,1.36.81,2.57,1.82,3.68,2.94.98.99,1.61,2.16,1.77,3.58.08.72.23,1.42.34,2.14.28,1.8.93,3.46,1.83,5.02.39.67.77,1.35,1.04,2.08.39,1.05.46,2.12.3,3.22-.11.71-.42,1.34-.89,1.87-1.27,1.44-2.11,3.14-2.88,4.89-.34.78-.7,1.56-1.04,2.34-.44.99-.67,2.04-.73,3.11-.11,1.9-.68,3.67-1.42,5.4-.35.82-.7,1.65-.98,2.5-.29.91-.44,1.85-.5,2.81-.11,1.87-.22,3.74-.72,5.56-.06.21-.08.42-.13.63-.13.54,0,1.02.25,1.51,1.3,2.5,3.04,4.68,4.71,6.91,1.82,2.44,3.89,4.65,6.05,6.78.63.62,1.27,1.23,1.91,1.85.15.15.29.31.42.48.11.14.21.32.16.49-.2.6-.3,1.26-.9,1.63-.51.32-.74.31-1.17-.09-.27-.25-.55-.49-.8-.75-1.48-1.49-3-2.94-4.37-4.55-1-1.18-1.95-2.4-2.76-3.72-.43-.7-.91-1.34-1.42-1.98-1.36-1.72-2.48-3.6-3.48-5.56-.32-.63-.49-1.31-.5-2.03Z"/>
  <path class="cls-1" d="M66.98,19.12c-.04,2.37-.58,4.6-1.72,6.66-.88,1.6-1.97,3.06-3.12,4.47-.96,1.19-1.41,2.53-1.13,4.08.11.61.23,1.23.29,1.85.08.81.21,1.62.07,2.45-.14.79-.46,1.48-.97,2.08-.49.57-.98,1.15-1.43,1.75-.95,1.26-1.58,2.67-1.69,4.28-.02.33-.16.65-.09.99.04.18.05.36-.14.45-.21.1-.46.18-.65.01-.3-.26-.61-.53-.82-.87-.18-.28-.05-.65.02-.97.23-1.09.47-2.17.64-3.27.32-2.13.14-4.21-.65-6.21-.52-1.31-.79-2.65-.73-4.05.07-1.67-.37-3.2-1.24-4.61-1.28-2.06-.95-4.75.35-6.37.37-.47.73-.95,1.09-1.43.66-.88,1-1.86,1.08-2.97.09-1.21-.06-2.42-.08-3.62,0-.51.02-1.01.1-1.51.14-.85.6-1.5,1.27-2.02.46-.35.93-.69,1.35-1.08,1.77-1.61,2.75-3.65,3.05-6.05.04-.37.07-.74.11-1.11.02-.13.03-.29.21-.3.13,0,.21.08.26.19.06.12.12.25.13.38.22,2.44,1.25,4.61,2.1,6.84.85,2.22,1.63,4.46,2.06,6.81.19,1.04.32,2.08.31,3.14ZM65.6,17.89c-.24.09-.41.27-.61.42-1.55,1.14-3.23,1.89-5.19,1.76-.31-.02-.4.15-.46.39-.21.81-.19,1.62-.08,2.44.11.81.26,1.61.38,2.42,0,.06.01.12.02.17.02.22.14.26.32.19.11-.04.21-.08.32-.12,1.19-.47,2.39-.9,3.63-1.21.31-.08.48-.25.6-.54.73-1.7,1.07-3.49,1.15-5.33,0-.19.05-.38-.08-.59ZM58.34,27.41c.26-.61.37-1.16.39-1.73.04-.96-.14-1.9-.3-2.84-.18-1.02-.15-2.02.17-3,.36-1.09.71-2.18,1.1-3.26.13-.37.19-.66-.19-.91-.14-.09-.24-.25-.33-.39-.63-.96-1.14-1.98-1.35-3.13-.02-.12,0-.28-.19-.35-.2.18-.28.44-.34.7-.12.52-.16,1.04-.12,1.57.09.95.19,1.9.28,2.85.08.85-.06,1.67-.24,2.49-.14.65-.53,1.18-.88,1.71-.35.53-.76,1.02-1.14,1.54-.37.5-.37.51.07.97.7.74,1.38,1.5,2,2.32.35.46.66.95,1.09,1.47ZM63.56,25.69c-.12-.03-.18-.06-.23-.05-1.17.28-2.32.61-3.44,1.06-.23.09-.37.25-.44.5-.12.43-.3.84-.46,1.26-.22.56-.4,1.14-.49,1.74-.22,1.43-.09,2.84.08,4.26.22,1.81.28,3.62.03,5.43-.04.29-.09.58-.16.97,1.43-1.55,1.64-2.19,1.44-4.2-.07-.76-.2-1.51-.33-2.26-.31-1.75.07-3.33,1.15-4.73.39-.5.79-1,1.18-1.51.59-.77,1.16-1.54,1.67-2.46ZM62.62,6.15c.1,1.08-.06,2.14-.09,3.2-.03,1-.16,1.98-.4,2.95-.3,1.23-.76,2.41-1.22,3.58-.1.26-.23.52-.24.86.12-.04.2-.05.26-.09,1.47-.74,2.76-1.71,3.69-3.13.21-.32.28-.6.18-.98-.26-.92-.56-1.82-.87-2.72-.43-1.22-.88-2.44-1.32-3.66ZM61.88,6.37c-.16.13-.19.31-.25.46-.2.49-.42.96-.7,1.4-.61.96-1.34,1.8-2.25,2.46-.26.2-.33.39-.28.73.14.85.5,1.59.89,2.33.19.36.44.69.68,1.01.2.27.28.24.43-.07.04-.09.07-.18.11-.27,1.13-2.5,1.35-5.18,1.39-7.88,0-.05-.02-.11-.03-.18ZM59.73,19.39c.11.02.15.04.18.03,1.84-.15,3.43-.93,4.74-2.21,1.12-1.08.94-.6.7-2.21-.04-.25-.04-.52-.22-.76-.07.08-.12.12-.15.17-1.11,1.73-2.67,2.86-4.58,3.49-.14.05-.25.11-.3.24-.16.39-.33.78-.38,1.24ZM54.55,24.06c-.19.24-.21.46-.23.66-.16,1.32.05,2.56.8,3.68.17.25.35.44.62.58.48.23.95.48,1.4.78.29.2.36.15.46-.2.05-.2.07-.38-.05-.56-.52-.77-.85-1.65-1.34-2.44-.52-.84-1.01-1.69-1.66-2.49ZM56.03,30.29c.41,1.18.46,2.34.44,3.52,0,.31.03.62.07.93.13.98.55,1.86.85,2.79.04.11.03.28.21.31.01-.07.04-.12.04-.18.03-1.97-.2-3.93-.29-5.9,0-.14-.04-.27-.14-.37-.36-.34-.73-.68-1.17-1.1Z"/>
  <path class="cls-1" d="M26.38,51.01c.72,0,1.36.13,2.01.13,1.18,0,2.36-.1,3.53-.2,1.35-.12,2.7-.19,4.04.06,1.34.24,2.4.94,3.24,2.02.58.75,1.1,1.55,1.44,2.45.46,1.22,1.19,2.2,2.23,2.96.78.57,1.43,1.3,1.86,2.19.61,1.28,1.5,2.29,2.56,3.18.86.72,1.62,1.53,2.06,2.61.08.19.24.35.34.54.18.34.14.72-.07.86-.22.14-.87.09-1.04-.08-.11-.11-.13-.24-.1-.38.07-.3-.1-.47-.3-.64-.91-.77-1.86-1.5-2.84-2.16-.58-.39-1.24-.61-1.91-.74-1.1-.22-2.21-.39-3.34-.22-.64.1-1.25.35-1.9.42-.6.06-1.2.17-1.82.06-1.05-.19-1.82-1.02-1.91-2.11,0-.1-.02-.2,0-.29.12-.84-.25-1.36-.98-1.71-.64-.31-1.28-.6-1.96-.81-.82-.27-1.6-.62-2.3-1.15-.34-.25-.68-.5-1.09-.62-.61-.18-.83-.07-1.03.54-.12.37-.23.74-.42,1.09-.67,1.26-1.72,1.97-3.1,2.13-1.86.22-3.53-.38-5.1-1.34-.69-.42-1.34-.89-2.05-1.27-.03-.02-.07-.04-.1-.06-.13-.1-.32-.19-.28-.4.04-.25.26-.25.45-.26.25,0,.5,0,.74-.03,1.38-.13,2.5-.75,3.34-1.9.66-.91,1.32-1.81,2-2.71.39-.51.85-.95,1.35-1.34.75-.57,1.58-.84,2.43-.82ZM36.31,58.46c-.04-.24-.21-.31-.34-.41-.43-.33-.87-.63-1.29-.97-1.68-1.32-3.59-2.02-5.67-2.31-.53-.07-1.06-.19-1.55.15-.06.04-.15.05-.22.05-.28-.02-.51.12-.74.26-.7.44-1.28,1.05-1.93,1.56-.11.09-.15.21-.17.35-.09.6-.31,1.16-.59,1.7-.18.34-.37.68-.55,1.02-.15.29-.09.4.23.37.36-.04.72-.08,1.06-.22.6-.24,1.05-.62,1.23-1.29.08-.3.18-.6.29-.89.56-1.45,2.09-2.03,3.43-1.31.34.18.66.4.98.6.44.28.9.5,1.4.66.8.25,1.6.52,2.36.89.15.08.31.18.49.15.54-.09,1.08-.18,1.59-.38ZM18.3,58.42c.41,0,.82-.02,1.22,0,1.48.1,2.71-.49,3.82-1.42.84-.7,1.66-1.42,2.5-2.13.3-.26.31-.29-.04-.55-.46-.34-.89-.73-1.27-1.17-.33-.37-.34-.37-.71,0-.54.53-.96,1.15-1.42,1.75-1.11,1.47-2.23,2.93-4.1,3.52ZM43.33,62.14c-.56-.67-1.1-1.32-1.85-1.72-.56-.3-1.13-.43-1.76-.24-.59.17-1.2.22-1.81.25-.67.03-1.32.17-1.97.33-.3.07-.39.26-.38.55.03.6.37,1.08.92,1.29.39.14.78.16,1.18.09.68-.11,1.35-.25,2.01-.44.83-.24,1.67-.39,2.54-.23.37.07.74.09,1.12.13ZM40.85,58.49c-.71-.84-1.04-1.77-1.48-2.63-.43-.84-1.01-1.56-1.7-2.19-.49-.44-1.07-.75-1.71-.91-.09-.02-.19-.05-.28-.05-.12,0-.18.07-.14.19.03.09.08.18.13.26.67,1.12,1.18,2.32,1.58,3.56.09.27.22.5.45.65.5.33,1,.65,1.55.86.46.18.94.29,1.58.25ZM35.94,55.99c-.38-1.2-.86-2.27-1.54-3.25-.12-.17-.26-.28-.48-.28-.72,0-1.45,0-2.17.01-.25,0-.3.13-.12.33.32.36.67.7.92,1.12.19.33.47.55.82.68.69.25,1.3.64,1.91,1.04.17.11.33.27.65.34ZM25.07,52.42c.68.56,1.28,1.03,1.95,1.41.22.12.43.12.66.05.38-.12.78-.18,1.18-.19.67,0,1.33.06,1.99.19.12.02.26.1.37-.09-.13-.3-.41-.49-.61-.74-.29-.37-.64-.49-1.1-.47-1.18.03-2.36.05-3.53-.18-.26-.05-.52-.09-.9.03ZM23.24,57.97c-.7.26-1.29.69-1.99.89-.69.19-1.39.23-2.19.25.96.54,1.91.81,2.88,1,.24.05.47.04.6-.2.32-.6.57-1.22.7-1.93ZM37.51,59.27c-.15-.14-.25-.13-.34-.11-.49.14-1,.23-1.5.31-.14.02-.27.06-.21.25.05.14.13.25.3.19.57-.21,1.13-.42,1.75-.65Z"/>
  <path class="cls-1" d="M76.27,41.08c1.29,0,2.53-.24,3.76-.63.94-.3,1.86-.69,2.84-.87.55-.1.65-.07.9.37.25.43.23.67-.11,1.05-.26.29-.52.57-.84.79-.85.57-1.62,1.23-2.35,1.93-.62.59-1.07,1.32-1.39,2.12-.17.43-.35.85-.47,1.31-.55,2.19-1.69,3.95-3.62,5.11-.5.3-1.05.45-1.62.52-.47.05-.95.09-1.42.11-1.17.05-2.24.43-3.24,1.02-.53.31-1.06.61-1.6.91-1.31.72-2.7.91-4.15.62-1.22-.25-2.42-.17-3.63.07-.79.16-1.46.56-2.12.99-1.85,1.21-3.57,2.6-5.26,4.03-.18.15-.33.35-.59.17-.19-.13-.22-.39-.08-.69.07-.14.15-.28.25-.39,1.18-1.32,2.33-2.68,3.78-3.73.48-.35.94-.73,1.43-1.07.55-.38.88-.91,1.09-1.53.22-.69.45-1.37.67-2.05.17-.52.39-1.02.63-1.51.54-1.13,1.43-1.86,2.56-2.3.71-.27,1.43-.53,2.15-.78.71-.25,1.33-.67,1.95-1.09,1.01-.67,2.02-1.33,3.06-1.95,1.59-.94,3.25-1.7,5.01-2.26.4-.13.81-.23,1.23-.27.4-.03.8,0,1.2,0ZM65.48,50.06c.47.11.91.2,1.34.32.92.25,1.83.53,2.75.78.55.15,1.11.28,1.69.19.47-.07.95-.09,1.42-.12,1.27-.08,2.14-.88,3.01-1.75-.11-.08-.16-.14-.22-.17-1.07-.53-2.04-1.21-3.03-1.87-.38-.25-.77-.5-1.18-.7-.33-.16-.65-.19-.98.01-.26.16-.54.29-.81.42-1.35.62-2.52,1.51-3.66,2.46-.12.1-.25.18-.32.44ZM59.78,52.65c.14,0,.18.01.21,0,.14-.07.27-.15.4-.22,1.54-.84,2.87-1.96,4.2-3.1.54-.46.54-.45.36-1.12-.11-.38-.13-.41-.52-.27-.57.2-1.15.41-1.71.65-.56.24-1.11.52-1.53.99-.77.86-1.09,1.93-1.41,3.07ZM67.77,46.92c.24.05.39-.09.55-.18.98-.52,2-.96,3.05-1.33.45-.16.9-.32,1.35-.48.18-.07.39-.13.39-.37-.01-.51.15-.99.16-1.49-.24-.07-.4.05-.58.12-.86.32-1.67.75-2.49,1.16-.25.13-.58.17-.77.36-.39.38-.86.64-1.3.94-.17.11-.29.26-.31.47-.02.27-.07.54-.03.81ZM66.64,53.15c-.21-.22-.42-.26-.61-.33-.54-.19-1.1-.32-1.66-.44-.49-.1-.94-.05-1.38.21-.3.17-.62.31-.91.49-.53.32-1.1.58-1.58,1.04.49.05.98.03,1.47.06.68.05,1.36.09,2.05,0,.94-.12,1.75-.57,2.62-1.03ZM74.6,45.13c.37.32,2.22,1.33,2.55,1.44.26.09.35-.05.42-.25.19-.55.38-1.1.64-1.62.28-.57.64-1.08.99-1.63-1.49.77-2.99,1.5-4.59,2.07ZM71.92,46.16c.38.22.65.37.91.53,1.02.61,2.08,1.13,3.12,1.69.49.27.49.28.79-.21.04-.07.08-.13.12-.2.14-.24.11-.41-.15-.57-.7-.42-1.39-.88-2.1-1.3-.28-.17-.58-.29-.87-.43-.14-.07-.28-.11-.44-.06-.43.14-.85.3-1.38.55ZM78.68,42.23c-1.01.03-2.01.18-3.01.11-.44-.03-.87.08-1.29.23-.15.05-.29.11-.35.27-.2.47-.29.97-.37,1.47-.02.15.08.21.21.18.13-.03.25-.08.38-.13.91-.34,1.81-.71,2.68-1.15.6-.29,1.2-.58,1.75-.98ZM64.14,51.23c.07.14.2.12.31.14.84.17,1.65.43,2.44.77.21.09.43.17.65.22.43.1.73-.12,1.05-.43-1.34-.57-2.64-1.03-4.07-.92-.18.01-.34.02-.39.22ZM66.88,46.61c-.32.04-.5.32-.76.46-.58.33-.63.53-.32,1.27.35-.24.69-.48,1.02-.72.12-.09.17-.2.15-.35-.04-.21.01-.43-.09-.66Z"/>
  <path class="cls-1" d="M47.42,79.75c-.02.43-.24.56-.6.38-2.24-1.12-4.6-1.6-7.08-1.42-.21.01-.42.05-.61.12-1.51.52-2.93.24-4.31-.45-1.22-.6-2.35-1.37-3.46-2.15-1.21-.85-2.44-1.66-3.63-2.53-1.21-.88-2.33-1.88-2.77-3.4-.42-1.45-1.22-2.63-2.2-3.71-.24-.27-.47-.56-.71-.84-.13-.15-.25-.3-.31-.49-.06-.21.01-.38.18-.51.15-.11.28-.07.42.02.83.56,1.71,1.01,2.57,1.52.66.39,1.36.7,2.06.99.46.19.95.28,1.45.27.61-.01,1.22-.01,1.83-.02,1.18-.02,2.24.37,3.26.93,2.04,1.11,3.59,2.73,4.84,4.69.49.77,1.05,1.48,1.69,2.13.6.59,1.27,1.04,2.07,1.31.56.19,1.11.42,1.67.59,1.29.4,2.27,1.32,3.36,2.06.19.13.3.29.28.52ZM30.71,74.36c1.73,1.18,3.34,2.43,5.22,3.22.96.4,1.95.63,3,.32.49-.14,1-.22,1.51-.33-.16-.12-.35-.13-.53-.18-.92-.25-1.86-.43-2.76-.74-1.88-.65-3.73-1.36-5.43-2.42-.35-.22-.66-.26-1.02.13ZM31.94,73.08c-.66-1.3-1.18-2.64-1.54-4.04-.09-.33-.28-.43-.58-.44-.8-.02-1.6.02-2.39-.09-.1-.01-.23-.07-.26-.02.27.32.49.64.76.91.88.88,1.69,1.84,2.61,2.69.42.38.86.75,1.4.98ZM34.58,74.48c.07-.08.04-.16.01-.22-.45-1.13-.74-2.29-.77-3.52,0-.16-.04-.31-.18-.41-.66-.5-1.36-.93-2.11-1.27-.07-.03-.15-.04-.21.01-.09.08-.08.19-.03.27.28.42.39.93.62,1.37.43.81.92,1.57,1.35,2.38.24.46.6.8.89,1.21.09.13.26.23.44.2ZM38.93,75.93c.01-.14-.06-.21-.12-.28-.45-.53-.9-1.06-1.34-1.59-.61-.75-1.21-1.51-1.9-2.18-.11-.11-.22-.22-.34-.31-.13-.09-.23-.03-.24.12,0,.17,0,.35.04.52.12.7.37,1.35.61,2.01.21.59.5,1.04,1.16,1.13.11.01.21.09.32.13.59.22,1.18.39,1.83.45ZM25.21,68.1s-.07.06-.11.09c.38.68.6,1.43.93,2.13.48,1.04,1.25,1.81,2.15,2.46.32.23.65.28,1.02.12.37-.16.4-.22.14-.53-1.06-1.23-2.11-2.47-3.29-3.58-.26-.25-.55-.47-.83-.7ZM30.63,73.56c-.55-.49-.62-.5-1.02-.21-.2.15-.19.24.04.38.35.21.65.07.98-.17Z"/>
  <path class="cls-1" d="M47.78,47.79c.03.54-.09,1.01-.37,1.43-.45.68-.57,1.48-.75,2.26-.08.35.05.7.18,1.02.18.45.36.9.6,1.33.46.84.56,1.73.4,2.66-.1.6-.11,1.2.04,1.8.08.33.21.63.45.87.62.6,1.08,1.31,1.43,2.1.47,1.02.98,2.03,1.27,3.13.03.11.06.22.09.34.04.21-.04.46-.19.51-.32.11-.65.17-.94.39-.08.07-.21-.07-.26-.18-.06-.16-.11-.33-.15-.5-.36-1.62-.95-3.12-2-4.42-.62-.76-1.08-1.61-1.25-2.6-.09-.54-.14-1.08-.12-1.63.07-1.64-.27-3.14-1.42-4.36-.53-.56-1.03-1.15-1.56-1.71-.3-.31-.52-.68-.71-1.06-.2-.41-.29-.84-.21-1.31.06-.33.1-.66.18-.98.32-1.35.6-2.7.73-4.08.03-.3.02-.64.42-.74.44-.11.84-.08,1.14.31.48.61.95,1.22,1.41,1.84.58.78,1.09,1.59,1.4,2.53.12.36.2.71.17,1.05ZM45.96,46.71c-.24-1.07-.84-1.88-1.58-2.74-.1.5-.18.89-.24,1.29-.03.18,0,.36.15.48.52.39,1.07.71,1.67.98ZM43.59,47.94c-.02.18-.04.26-.03.33,0,.1.03.19.05.29.19.83.85,1.32,1.34,1.93.11.14.23.06.32-.08.22-.35.22-.66-.08-1.02-.44-.54-.96-.98-1.59-1.46ZM43.75,46.9c-.03.18.05.29.2.37.63.34,1.16.81,1.73,1.23.09.07.18.14.28.2.07.04.14.05.21,0,.07-.06.08-.14.05-.21-.04-.11-.08-.22-.14-.32-.51-.76-1.31-1.17-2.02-1.68-.12-.09-.22,0-.26.13-.03.09-.04.19-.06.29Z"/>
  <path class="cls-1" d="M34.98,28.65c-.02.74-.12,1.28-.44,1.78-.25.39-.4.84-.68,1.22-.57.77-1.29,1.18-2.23.89-.84-.25-1.52-.04-2.17.51-.98.83-2.09.96-3.28.51-.27-.1-.53-.21-.8-.32-.99-.42-2.01-.72-3.08-.83-.26-.03-.58-.03-.67-.35-.09-.32.13-.55.36-.74.28-.23.57-.46.87-.67.65-.47,1.17-1.06,1.56-1.77.63-1.13,1.43-2.12,2.3-3.05.7-.75,1.55-1.12,2.59-.86.19.05.37.07.56.12.62.14,1.23.18,1.84-.1.81-.36,1.5-.13,2.03.57.73.96,1.21,2.02,1.24,3.11ZM22.85,31.55c.05.12.15.12.24.14.56.13,1.13.18,1.67.39.59.23,1.17.45,1.76.69.95.38,1.83.23,2.64-.39.2-.15.39-.31.59-.46.51-.37,1.06-.51,1.68-.34.28.08.56.12.85.12.51,0,.92-.2,1.2-.66.24-.38.4-.8.61-1.19.24-.48.25-.98.1-1.48-.18-.58-.45-1.11-.79-1.61-.45-.65-1-.93-1.77-.62-.67.27-1.34.23-2.02.04-.24-.07-.48-.11-.73-.16-.77-.16-1.41.02-1.97.63-.77.84-1.5,1.71-2.09,2.7-.43.73-.97,1.34-1.64,1.85-.13.1-.32.15-.33.36Z"/>
  <path class="cls-1" d="M33.75,26.09c-.23,0-.46.02-.69,0-.69-.06-1.27-.34-1.56-1.01-.3-.69-.79-1.17-1.41-1.55-.79-.48-1.46-1.12-2.14-1.75-.66-.61-.9-1.35-.75-2.22.21-1.25.01-2.49-.05-3.74-.01-.25-.13-.49-.22-.72-.11-.32-.04-.46.27-.59.26-.11.52-.08.79-.03.94.19,1.83.54,2.69.96.6.29,1.22.43,1.88.42.55-.01,1.1-.03,1.65.05,1.32.18,2.12.95,2.51,2.24.25.83.25,1.61-.23,2.36-.31.5-.34,1.02-.13,1.57.11.29.22.58.32.88.5,1.45-.16,2.67-1.62,3.03-.43.1-.87.11-1.31.11ZM27.88,16.17c-.03.15-.04.19-.04.23.08,1.14.25,2.28.07,3.44-.09.54.18,1,.56,1.34.67.6,1.35,1.21,2.14,1.64.74.4,1.37.89,1.73,1.71.18.4.52.68.98.7.55.03,1.1.04,1.65-.06.82-.15.86-.27.37-.93-.05-.06-.1-.12-.14-.18-.71-1.02-1.18-2.14-1.29-3.39-.04-.51-.14-1-.22-1.5-.08-.49-.36-.8-.79-.98-.34-.14-.69-.22-1.04-.29-1.42-.29-2.86-.5-3.99-1.71ZM35.34,21.97c0-.56.17-1.05.44-1.5.18-.29.22-.62.21-.95-.03-.62-.21-1.19-.51-1.71-.33-.59-.83-.94-1.47-1.11-.45-.12-.91-.11-1.36-.11-1.01.01-1.96-.21-2.85-.7-.38-.21-.79-.38-1.2-.54-.1-.04-.22-.16-.37-.02.67.79,1.45,1.38,2.47,1.57.26.05.52.1.78.15.62.12,1.24.21,1.85.36.79.2,1.31.68,1.4,1.56.04.45.14.88.16,1.33.02.59.17,1.15.46,1.68Z"/>
  <path class="cls-1" d="M36.76,27.9c.99.08,1.77.61,2.28,1.49.45.77.79,1.6,1.09,2.44.42,1.17.17,2.28-.41,3.31-.27.48-.47.97-.52,1.53-.04.47-.28.85-.64,1.13-.32.25-.65.48-.99.69-.68.42-1.17.98-1.4,1.77-.1.34-.22.67-.37.98-.32.66-.77.7-1.14.08-.53-.88-1-1.81-1.23-2.82-.23-.99-.7-1.8-1.34-2.54-.27-.31-.48-.65-.7-1-.76-1.2-.53-2.45.45-3.38.7-.67,1.28-1.44,1.9-2.17.78-.92,1.78-1.45,3.02-1.52ZM35.27,40.21c.15-.2.19-.39.24-.57.2-.75.61-1.33,1.25-1.75.35-.23.7-.47,1.04-.71.37-.26.58-.63.56-1.09-.01-.53.17-.98.44-1.43.4-.67.57-1.4.47-2.19-.08-.66-1.14-2.86-1.59-3.33-.61-.63-.97-.62-1.57.05-.08.09-.15.18-.22.27-.57.83-1.22,1.59-1.87,2.36-1.05,1.25-.88,1.79-.27,2.96.63,1.19,1.01,2.48,1.37,3.77.09.32.06.66.07.99,0,.2-.04.42.07.67ZM32.34,32.45c-.46.48-.63,1.04-.52,1.7.1.58.39,1.05.76,1.48.76.89,1.42,1.83,1.57,3.05.03.23.09.47.3.71.08-.53.03-.98-.14-1.39-.49-1.14-.82-2.35-1.47-3.42-.39-.64-.65-1.32-.5-2.13Z"/>
  <path class="cls-1" d="M45.62,29.13c-.43,0-.77-.03-1.11-.1-.95-.18-1.91-.33-2.87-.5-.22-.04-.45-.08-.67-.16-.64-.23-1.22-.53-1.42-1.3-.1-.39-.28-.76-.44-1.14-.39-.96-.34-1.91.12-2.83.57-1.12,1.32-2.09,2.21-2.96.48-.47,1.1-.6,1.75-.55.42.03.82.14,1.22.27.52.17,1.05.35,1.59.43.58.08,1.12.26,1.63.52,1.18.6,2.44.85,3.74.97.32.03.59.14.85.3.35.21.38.46.09.75-.27.27-.58.5-.85.78-.95.97-1.76,2.04-2.42,3.24-.21.37-.43.74-.72,1.05-.76.82-1.68,1.26-2.71,1.22ZM51.07,22.68c-.16-.17-.32-.17-.46-.2-1.09-.22-2.15-.52-3.15-1.01-.24-.12-.49-.21-.76-.26-.97-.19-1.94-.37-2.91-.57-.87-.18-1.58.11-2.16.75-.53.59-1.04,1.19-1.5,1.84-.26.37-.44.77-.57,1.21-.04.13-.1.28-.06.4.21.69.27,1.42.59,2.07.14.29.36.5.67.6.22.07.44.12.67.16,1.09.17,2.19.32,3.28.49,1.58.25,2.86-.38,3.61-1.84.71-1.38,1.61-2.59,2.76-3.64Z"/>
  <path class="cls-1" d="M48.86,37.38c-.21-.19-.42-.4-.63-.59-.42-.38-.63-.86-.69-1.43-.05-.49-.09-.97-.11-1.46-.04-1.02-.21-2.02-.66-2.94-.33-.68-.73-1.3-1.42-1.62-.64-.29-1.01-.74-1.25-1.41-.48-1.31-1.5-1.84-2.78-1.89-1.12.05-2.05.42-2.61,1.44-.25.45-.58.75-1.01.99-.65.37-.86.91-.6,1.63.2.55.11,1.01-.13,1.51-.49.98-.38,1.48.39,2.24.21.21.43.38.68.52.38.21.77.43,1.17.61.57.25.99.64,1.22,1.24.25.66.75,1.01,1.43,1.1,1.04.14,2.07.33,3.11.39.65.04,1.28.18,1.88.43.42.18.85.34,1.28.49.5.18.75.11.94-.24.23-.42.17-.67-.21-1.02ZM45.48,36.6c-.17,0-.34,0-.61,0-.75-.09-1.6-.19-2.45-.28-.56-.06-.96-.35-1.16-.9-.25-.67-.74-1.07-1.37-1.32-.39-.15-.77-.34-1.13-.55-.28-.16-.54-.36-.77-.6-.32-.33-.41-.69-.21-1.11.11-.23.21-.46.32-.69.21-.43.22-.85.04-1.3-.27-.66-.2-.81.42-1.16.35-.2.68-.42,1.02-.64.77-.48,1.36-.39,1.98.29.21.23.36.5.48.79.11.27.22.54.32.81.24.62.62,1.11,1.15,1.49.14.1.27.22.41.31.66.46.99,1.12,1.07,1.91.09.9.23,1.78.68,2.58.11.2.06.34-.18.35ZM46.04,34.87c-.13-.45-.2-.91-.2-1.38,0-1.21-.44-2.16-1.55-2.71-.51-.25-.78-.72-.98-1.24-.23-.57-.41-1.17-.86-1.63-.67-.69-1.44-1-2.38-.76-.07.02-.15.03-.34.06.21-.35.44-.46.7-.52,1.05-.21,1.99.23,2.5,1.19.16.31.29.64.41.97.13.39.37.68.72.87,1.66.87,2.15,2.42,2.31,4.16.05.57.04,1.15.08,1.74-.26-.19-.32-.48-.4-.74Z"/>
  <path class="cls-1" d="M44.12,18.62c-.69-1.01-.91-2.1-.95-3.3-.03-.9-.35-1.75-.43-2.65-.04-.42-.17-.84-.35-1.23-.11-.25-.31-.4-.59-.38-.3.02-.36.28-.37.51-.04.82-.52,1.35-1.09,1.84-.5.43-1.11.68-1.69.96-.51.25-.94.58-1.21,1.11-.2.38-.49.7-.86.92-.79.46-1.17,1.19-1.37,2.06-.12.54-.09,1.09-.16,1.63-.09.73.01,1.44.19,2.14.13.55.42.99.91,1.29.62.38,1.2.82,1.67,1.39.49.59,1.12.84,1.79.82,1.04.02,1.72-.41,2.13-1.3.32-.69.73-1.32,1.19-1.92.46-.62.91-1.25,1.2-1.98.26-.64.38-1.33-.02-1.91ZM39.49,23.33c-.07.2-.13.41-.21.61-.23.62-.34.65-.81.19-.39-.38-.83-.68-1.31-.93-.64-.34-.97-.9-1.05-1.58-.11-1.04-.15-2.1.06-3.15.14-.69.47-1.22,1.05-1.6.46-.29.83-.68,1.07-1.19.19-.38.51-.63.86-.83.75-.41,1.54-.76,2.15-1.58.08.39,0,.59-.07.79-.39,1.16-.28,2.3.04,3.45.12.43.24.86.36,1.29.14.47.1.93-.12,1.36-.38.72-.73,1.46-1.33,2.03-.33.31-.54.7-.7,1.13ZM42.83,21.04c-.28.47-.54.94-.88,1.36-.5.62-.92,1.28-1.26,2.01-.26.55-.38.59-1.03.5.49-.5.57-1.15.81-1.74.14-.33.37-.59.62-.83.61-.61,1-1.37,1.37-2.14.24-.49.25-1.01.08-1.54-.17-.52-.34-1.04-.49-1.56-.21-.76-.35-1.52-.12-2.3.03-.09.03-.2.13-.26.14.13.12.32.14.49.02.27.02.55.02.82.03.89.13,1.75.64,2.51.6.9.52,1.79-.02,2.69Z"/>
</svg>