<?xml version="1.0" encoding="UTF-8"?>
<svg id="object" xmlns="http://www.w3.org/2000/svg" viewBox="0 0 340.24 42.82">
  <defs>
    <style>
      .cls-1 {
        fill: #623c17;
      }
    </style>
  </defs>
  <g>
    <path class="cls-1" d="M327.3,28.52c-.24,0-.48-.02-.71-.07-.91-.18-1.53-.93-1.53-1.86s.61-1.68,1.53-1.86h0c2.11-.42,4.79,1.3,4.9,1.37l.74.48-.74.48c-.1.07-2.24,1.44-4.2,1.44ZM326.83,25.87c-.44.09-.6.43-.6.73s.16.64.6.72c.97.19,2.27-.28,3.17-.73-.91-.45-2.2-.92-3.17-.72h0Z"/>
    <path class="cls-1" d="M322.91,27.18s-.09,0-.14,0h0c-.36,0-2.5-.11-3.95-2.74-.45-.8-1.05-1.54-1.57-1.94l-.09-.07c-.63-.51-1.46-.66-2.23-.41-.73.24-1.26.79-1.46,1.52-.02.06-.03.12-.04.18-.1.52.03,1.05.37,1.49.48.64,1.1.92,1.71.78.54-.13.96-.57,1.07-1.12.05-.26-.02-.54-.19-.77-.26-.35-.57-.51-.89-.43-.27.06-.48.28-.53.56-.05.25.11.48.35.53l-.22,1.13c-.86-.17-1.42-1.01-1.26-1.88.14-.73.69-1.31,1.41-1.47.77-.17,1.54.15,2.07.88.36.49.5,1.1.39,1.68-.19,1.01-.95,1.8-1.94,2.03-1.06.24-2.14-.21-2.89-1.21-.53-.7-.74-1.58-.58-2.41.02-.09.04-.17.06-.26.29-1.1,1.12-1.97,2.22-2.33,1.15-.37,2.39-.14,3.32.62l.08.06c.63.48,1.33,1.34,1.86,2.29.82,1.48,1.86,1.94,2.46,2.08-.24-.16-.42-.39-.52-.67-.2-.54-.04-1.13.42-1.58.32-.31.76-.48,1.19-.44.98.09,1.71.96,1.63,1.95-.04.57-.31,1.09-.74,1.46-.38.33-.86.5-1.35.5ZM323.24,24.42c-.09,0-.19.04-.26.11-.13.12-.18.25-.14.36.02.06.08.13.17.14l-.08.99c.21,0,.41-.09.57-.22.2-.17.32-.41.34-.67.03-.36-.23-.68-.58-.71,0,0-.02,0-.02,0Z"/>
    <path class="cls-1" d="M315.66,32.47c-.37,0-.74-.06-1.1-.17-1.1-.36-1.93-1.23-2.22-2.33-.02-.08-.04-.17-.06-.26-.16-.83.05-1.7.58-2.4.75-1,1.83-1.46,2.89-1.21.99.23,1.75,1.03,1.94,2.03.11.58-.03,1.19-.39,1.68-.53.72-1.31,1.05-2.07.88-.72-.16-1.27-.74-1.41-1.47-.17-.87.4-1.71,1.26-1.88l.22,1.13c-.24.05-.39.29-.35.53.05.28.26.5.53.56.31.07.63-.08.89-.43.17-.23.24-.51.19-.77-.11-.56-.53-1-1.07-1.12-.61-.14-1.23.14-1.71.78-.34.45-.47.98-.37,1.49.01.06.03.12.04.18.2.73.73,1.29,1.46,1.53.77.25,1.61.1,2.24-.41l.08-.06c.53-.41,1.14-1.16,1.59-1.96,1.46-2.64,3.61-2.71,3.96-2.73.54-.04,1.07.14,1.49.5.43.37.7.89.74,1.46.08.99-.66,1.87-1.63,1.95-.43.04-.87-.12-1.19-.44-.46-.45-.61-1.04-.42-1.58.1-.28.29-.51.52-.67-.6.14-1.64.6-2.46,2.08-.53.95-1.23,1.81-1.88,2.3l-.06.05c-.64.52-1.42.79-2.22.79ZM322.94,27.18l.08.99c-.09,0-.15.08-.17.14-.04.11,0,.24.14.36.08.08.19.12.28.11.35-.03.61-.35.58-.71-.02-.26-.14-.5-.34-.67-.16-.14-.36-.22-.57-.22Z"/>
  </g>
  <rect class="cls-1" x="206.12" y="26.02" width="108.89" height="1.16"/>
  <g>
    <g>
      <path class="cls-1" d="M13.03,28.52c-1.96,0-4.09-1.38-4.2-1.44l-.74-.48.74-.48c.11-.07,2.79-1.8,4.9-1.37h0c.91.18,1.53.93,1.53,1.86s-.61,1.68-1.53,1.86c-.23.05-.47.07-.71.07ZM10.34,26.59c.91.45,2.21.92,3.17.73.44-.09.6-.43.6-.72s-.16-.64-.6-.73h0c-.97-.19-2.27.28-3.17.72Z"/>
      <path class="cls-1" d="M17.43,27.18c-.49,0-.97-.17-1.35-.5-.43-.37-.7-.89-.74-1.46-.08-.99.66-1.86,1.63-1.95.43-.03.87.13,1.19.44.46.45.61,1.04.42,1.58-.1.28-.29.51-.52.67.6-.14,1.64-.6,2.46-2.08.53-.95,1.23-1.81,1.88-2.3l.06-.05c.93-.76,2.17-.99,3.32-.62,1.1.36,1.93,1.23,2.22,2.33.02.08.04.17.06.25.16.83-.05,1.71-.58,2.41-.75,1-1.83,1.46-2.89,1.21-.99-.23-1.75-1.03-1.94-2.03-.11-.58.03-1.19.39-1.68.53-.72,1.31-1.05,2.07-.88.72.16,1.27.74,1.41,1.47.17.87-.4,1.71-1.26,1.88l-.22-1.13c.24-.05.39-.29.35-.53-.05-.28-.26-.5-.53-.56-.31-.07-.63.08-.89.43-.17.23-.24.51-.19.77.11.56.53,1,1.07,1.12.61.14,1.23-.14,1.71-.78.34-.45.47-.98.37-1.49-.01-.06-.03-.12-.04-.18-.19-.73-.73-1.29-1.46-1.52-.77-.25-1.61-.1-2.24.41l-.08.06c-.53.41-1.14,1.16-1.59,1.96-1.46,2.64-3.59,2.74-3.96,2.73-.05,0-.09,0-.14,0ZM17.09,24.42s-.02,0-.02,0c-.35.03-.61.35-.58.71.02.26.14.5.34.67.16.14.36.22.57.22l-.08-.99c.09,0,.15-.08.17-.14.04-.11,0-.24-.14-.36-.07-.07-.17-.11-.26-.11Z"/>
      <path class="cls-1" d="M24.68,32.47c-.8,0-1.58-.27-2.22-.79l-.08-.06c-.63-.48-1.33-1.34-1.86-2.29-.82-1.48-1.86-1.94-2.46-2.08.24.16.42.39.52.67.2.54.04,1.13-.42,1.58-.32.31-.77.47-1.19.44-.98-.09-1.71-.96-1.63-1.95.04-.57.31-1.09.74-1.46.42-.36.95-.53,1.49-.5h0c.36,0,2.5.11,3.95,2.74.45.8,1.05,1.54,1.57,1.94l.09.07c.63.51,1.46.67,2.23.41.73-.24,1.26-.79,1.46-1.53.02-.06.03-.12.04-.18.1-.51-.03-1.04-.37-1.49-.48-.64-1.1-.92-1.71-.78-.54.13-.96.57-1.07,1.12-.05.26.02.54.19.77.26.35.57.51.89.43.27-.06.47-.28.53-.56.05-.25-.11-.48-.35-.53l.22-1.13c.86.17,1.42,1.01,1.26,1.88-.14.73-.69,1.3-1.41,1.47-.76.17-1.54-.15-2.07-.88-.36-.49-.5-1.1-.39-1.68.19-1.01.95-1.8,1.94-2.03,1.06-.24,2.14.21,2.89,1.21.53.7.74,1.58.58,2.41-.02.09-.04.17-.06.25-.29,1.1-1.12,1.97-2.22,2.33-.36.12-.73.17-1.1.17ZM17.4,27.18c-.21,0-.41.08-.57.22-.2.17-.32.41-.34.67-.03.36.23.68.58.71.09.01.2-.04.28-.11.13-.12.18-.25.14-.36-.02-.06-.08-.13-.17-.14l.08-.99Z"/>
    </g>
    <rect class="cls-1" x="25.33" y="26.02" width="109.26" height="1.16"/>
  </g>
  <g>
    <g>
      <path class="cls-1" d="M204.91,24.77c-3.56,2.72-7.86.25-10.37-1.74-2.63-2.08-5.75-3.34-8.97-3.45-11.54-.4-12.88,12.7-12.88,12.7,0,0,7.38-12.39,16.11-8.09,0,0,6.09,2.65,7.15,10.59,0,0,1.92-3.75-.45-7.34,2.22,1.05,5.87,2.04,9.4-2.67Z"/>
      <path class="cls-1" d="M135.49,24.77c3.56,2.72,7.86.25,10.37-1.74,2.63-2.08,5.75-3.34,8.97-3.45,11.54-.4,12.88,12.7,12.88,12.7,0,0-7.38-12.39-16.11-8.09,0,0-6.09,2.65-7.15,10.59,0,0-1.92-3.75.45-7.34-2.22,1.05-5.87,2.04-9.4-2.67Z"/>
    </g>
    <path class="cls-1" d="M181.02,16.78c-4.08-.79-7.8,4.27-10.07,8.35-.27.49-.52.97-.75,1.41-.22-.44-.47-.92-.74-1.4-2.28-4.07-6-9.15-10.07-8.36,3.18-4.96,8.13-2.38,10.81,5.7,2.69-8.08,7.64-10.66,10.83-5.7Z"/>
    <path class="cls-1" d="M168.62,11.9c-.47-2.47,1.58-5.8,1.58-5.8,0,0,2.05,3.33,1.58,5.8-.35,1.84-2.82,1.84-3.17,0Z"/>
  </g>
</svg>