<?xml version="1.0" encoding="UTF-8"?>
<svg id="object" xmlns="http://www.w3.org/2000/svg" viewBox="0 0 100 100">
  <defs>
    <style>
      .cls-1 {
        fill: #623c17;
      }
    </style>
  </defs>
  <path class="cls-1" d="M33.66,50c-5.58-6.11-11.28,0-11.28,0,0,0,5.7,6.11,11.28,0Z"/>
  <g>
    <path class="cls-1" d="M40.64,50c-8.25.67-6.91,8.91-6.91,8.91,0,0,8.32-.76,6.91-8.91Z"/>
    <path class="cls-1" d="M40.64,50c-8.25-.67-6.91-8.91-6.91-8.91,0,0,8.32.76,6.91,8.91Z"/>
  </g>
  <g>
    <path class="cls-1" d="M49.85,50c-8.25.67-6.91,8.91-6.91,8.91,0,0,8.32-.76,6.91-8.91Z"/>
    <path class="cls-1" d="M49.85,50c-8.25-.67-6.91-8.91-6.91-8.91,0,0,8.32.76,6.91,8.91Z"/>
  </g>
  <g>
    <path class="cls-1" d="M59.05,50c-8.25.67-6.91,8.91-6.91,8.91,0,0,8.32-.76,6.91-8.91Z"/>
    <path class="cls-1" d="M59.05,50c-8.25-.67-6.91-8.91-6.91-8.91,0,0,8.32.76,6.91,8.91Z"/>
  </g>
  <g>
    <path class="cls-1" d="M68.26,50c-8.25.67-6.91,8.91-6.91,8.91,0,0,8.32-.76,6.91-8.91Z"/>
    <path class="cls-1" d="M68.26,50c-8.25-.67-6.91-8.91-6.91-8.91,0,0,8.32.76,6.91,8.91Z"/>
  </g>
  <g>
    <path class="cls-1" d="M77.46,50c-8.25.67-6.91,8.91-6.91,8.91,0,0,8.32-.76,6.91-8.91Z"/>
    <path class="cls-1" d="M77.46,50c-8.25-.67-6.91-8.91-6.91-8.91,0,0,8.32.76,6.91,8.91Z"/>
  </g>
</svg>